<svg xmlns="http://www.w3.org/2000/svg">
<defs>
<font id="" horiz-adv-x="251" >
  <font-face 
    font-family=""
    font-weight="400"
    font-stretch="normal"
    units-per-em="256"
    panose-1="3 0 5 9 0 0 0 0 0 0"
    ascent="204"
    descent="-52"
    x-height="135"
    cap-height="178"
    bbox="10 -63 2798 1796"
    underline-thickness="12"
    underline-position="-40"
    unicode-range="U+0020-FFE5"
  />
<missing-glyph horiz-adv-x="260" 
d="M55 83q2 -2 2 -4q-2 -7 -7 -12q-1 0 -2 -1h3q4 -1 4 -3v0h2q2 -1 2 -3l-1 -3v-2q1 0 1 -1l2 1h16q6 -2 6 -6l-4 -3h-3q-5 5 -9 5t-4 1q-1 0 -1 -1l-3 1h-1l-2 -7l-2 -4l1 -4q-1 -2 -2 -3v-2l2 -2q0 -3 -4 -8q0 -2 -1 -3q1 -4 1 -7v0q-2 -3 -3 -5q-11 2 -11 4v1h3q6 0 6 1
q0 2 1 3q0 2 -1 7h-1q-1 -1 -2 -1q-3 1 -3 2v2q3 6 5 6v1h-1l-3 -1q-1 0 -1 1v7v1v1v2q0 6 -2 6l-8 -3q-8 -5 -14 -10h-3q-3 1 -3 6q2 3 4 3h2q3 3 16 5q0 1 4 3q-1 2 -1 4l3 2v0q1 0 3 -6h1q3 0 3 2q0 1 -1 2l1 2q-2 0 -2 2q2 4 4 7q7 6 7 13zM45 83h1v-1v-1q-2 -5 -2 -9
h-1v-1l1 -1v-2q0 -1 -1 -1h-1l-1 1v2q2 13 4 13zM201 79q1 0 2 -8v0q2 0 38 8q2 -6 2 -14l7 -40q0 -2 -11 -3q-19 -5 -28 -7h-1q-2 3 -2 10v1v0q-2 -1 -37 -8q0 -1 -2 -1l-3 1q-5 0 -9 1v0h-2h-8q0 1 -3 1l-5 6q-3 -7 -5 -7h-4q-3 0 -5 3l1 1q3 -1 5 -1q4 0 5 8v1q-2 3 -3 4
h-1q-1 -1 -5 -9q-1 -2 -3 -4h-2l-1 1v2q0 4 5 13q1 4 4 8l3 6q-3 2 -3 3v1l6 2q2 8 3 8v0q2 -1 3 -3q0 -1 -2 -5v0v0l3 2q3 -1 3 -2v-2q-2 -2 -4 -2q0 1 -1 1q-5 -4 -5 -5v-1h1l1 1h1l6 -3l1 -1v-1q-3 -4 -4 -10q2 -2 10 -9q6 -2 14 -4q2 -3 4 -3v1q-3 17 -8 50zM176 64
q0 -2 1 -2h3q1 0 1 -1v0q0 -3 -1 -3v0q-10 0 -13 -5q0 -2 1 -11q1 0 5 -7h2q2 2 4 2h3q4 0 4 -7l-1 -4h1q1 0 1 2v8q0 1 2 3h1q2 0 9 -2l1 2q0 1 -1 2h-7q-4 0 -4 2q1 1 7 4v2q-3 3 -7 3q-6 0 -11 -3v0l3 -7h-1h-5l-2 -1q-1 2 -2 7q1 3 1 4v0q0 2 4 4h1q16 0 19 -4l4 -6
q1 4 4 7q-4 6 -15 6v1q1 1 1 2q0 4 -8 5q-5 -2 -5 -3zM228 65l2 -4q-2 -1 -9 -4v-2q0 -1 3 -2h2h1h1q0 -1 -13 -14q1 -3 2 -4l9 2h1l-1 -3v0q0 -5 3 -7q2 1 2 4q-1 4 -1 6h1q2 0 4 -1l3 1l5 -2q1 0 2 1q0 2 -8 6q-5 4 -5 7q1 0 1 5q6 0 6 3v0v1q0 2 -6 2v1v1q0 5 -3 5h-1z

<glyph glyph-name=".notdef" horiz-adv-x="260" 
d="M55 83q2 -2 2 -4q-2 -7 -7 -12q-1 0 -2 -1h3q4 -1 4 -3v0h2q2 -1 2 -3l-1 -3v-2q1 0 1 -1l2 1h16q6 -2 6 -6l-4 -3h-3q-5 5 -9 5t-4 1q-1 0 -1 -1l-3 1h-1l-2 -7l-2 -4l1 -4q-1 -2 -2 -3v-2l2 -2q0 -3 -4 -8q0 -2 -1 -3q1 -4 1 -7v0q-2 -3 -3 -5q-11 2 -11 4v1h3q6 0 6 1
q0 2 1 3q0 2 -1 7h-1q-1 -1 -2 -1q-3 1 -3 2v2q3 6 5 6v1h-1l-3 -1q-1 0 -1 1v7v1v1v2q0 6 -2 6l-8 -3q-8 -5 -14 -10h-3q-3 1 -3 6q2 3 4 3h2q3 3 16 5q0 1 4 3q-1 2 -1 4l3 2v0q1 0 3 -6h1q3 0 3 2q0 1 -1 2l1 2q-2 0 -2 2q2 4 4 7q7 6 7 13zM45 83h1v-1v-1q-2 -5 -2 -9
h-1v-1l1 -1v-2q0 -1 -1 -1h-1l-1 1v2q2 13 4 13zM201 79q1 0 2 -8v0q2 0 38 8q2 -6 2 -14l7 -40q0 -2 -11 -3q-19 -5 -28 -7h-1q-2 3 -2 10v1v0q-2 -1 -37 -8q0 -1 -2 -1l-3 1q-5 0 -9 1v0h-2h-8q0 1 -3 1l-5 6q-3 -7 -5 -7h-4q-3 0 -5 3l1 1q3 -1 5 -1q4 0 5 8v1q-2 3 -3 4
h-1q-1 -1 -5 -9q-1 -2 -3 -4h-2l-1 1v2q0 4 5 13q1 4 4 8l3 6q-3 2 -3 3v1l6 2q2 8 3 8v0q2 -1 3 -3q0 -1 -2 -5v0v0l3 2q3 -1 3 -2v-2q-2 -2 -4 -2q0 1 -1 1q-5 -4 -5 -5v-1h1l1 1h1l6 -3l1 -1v-1q-3 -4 -4 -10q2 -2 10 -9q6 -2 14 -4q2 -3 4 -3v1q-3 17 -8 50zM176 64
q0 -2 1 -2h3q1 0 1 -1v0q0 -3 -1 -3v0q-10 0 -13 -5q0 -2 1 -11q1 0 5 -7h2q2 2 4 2h3q4 0 4 -7l-1 -4h1q1 0 1 2v8q0 1 2 3h1q2 0 9 -2l1 2q0 1 -1 2h-7q-4 0 -4 2q1 1 7 4v2q-3 3 -7 3q-6 0 -11 -3v0l3 -7h-1h-5l-2 -1q-1 2 -2 7q1 3 1 4v0q0 2 4 4h1q16 0 19 -4l4 -6
q1 4 4 7q-4 6 -15 6v1q1 1 1 2q0 4 -8 5q-5 -2 -5 -3zM228 65l2 -4q-2 -1 -9 -4v-2q0 -1 3 -2h2h1h1q0 -1 -13 -14q1 -3 2 -4l9 2h1l-1 -3v0q0 -5 3 -7q2 1 2 4q-1 4 -1 6h1q2 0 4 -1l3 1l5 -2q1 0 2 1q0 2 -8 6q-5 4 -5 7q1 0 1 5q6 0 6 3v0v1q0 2 -6 2v1v1q0 5 -3 5h-1z
M152 67v0v-1q-1 0 -1 -3h-1v1q0 1 2 3zM154 67v0q1 0 2 -3v-1v0q0 3 -2 3v1zM153 65h1q1 0 1 -1l-1 -3h1v-1v0l-2 2v0v-1h-1v3q0 1 1 1zM153 64v-1v0q1 0 1 1v0h-1zM204 57l2 -2h1h3q2 -2 2 -9v-7q0 -4 -4 -8v0q0 -1 2 -2v0q2 0 3 9q3 13 6 20q-4 5 -6 5h-1q-5 0 -8 -6z
M50 56v-1h4v8q-4 -4 -4 -7zM111 63q3 -3 3 -5q0 -1 -4 -4v-2q-1 -14 -1 -18l-2 -3h-1l-1 2h-1q0 -2 -2 -2v-6q1 -1 3 -2h1q1 1 2 1t1 -1v-1q0 -1 -1 -3q-4 1 -6 1h-2v0h-1h-1q-2 1 -3 3v2l3 13h-1q-5 -9 -5 -16l-1 -3h-2q-1 0 -1 4h-1q0 -2 -4 -3v2v2q0 1 5 15l1 3
q-1 1 -1 2q1 0 1 1v0h-1q-3 0 -5 4v1q0 1 2 1h2q2 0 3 2v6q1 2 2 2h1q1 0 2 -2v-1q0 -1 -1 -2q0 -1 4 -5v-2q-4 -3 -5 -9q0 -2 -1 -5h1q5 6 5 13l1 3l-1 1v0q1 3 2 3v0q3 -1 3 -6q3 0 3 -3v0v1q0 8 -2 8q-3 1 -3 2q0 5 10 6zM150 62h1q0 -3 1 -3v-1v0l-2 3v1zM156 62v0v-1
q0 -1 -2 -3v0v1q2 0 2 3zM50 51v-2q1 -2 1 -4v-1v0q3 5 3 7h-1h-3zM42 51v-3q0 -1 1 -1q0 1 1 4h-2zM183 49h4v-1v-1l-1 -1q-4 1 -4 2zM135 43v-2q1 0 3 -3q0 1 1 2v4q0 1 -2 2v0q-2 -1 -2 -3zM106 44v-2v-1v0v3v0zM231 44l4 -5v0h-2h-3l-1 1q1 4 2 4zM228 41v-1l-1 -1l-1 1
q0 1 2 1zM114 28h1q4 -2 4 -5v-1q-2 -3 -4 -3v0q-1 0 -1 1q0 2 1 2l-2 4v1q0 1 1 1zM34 25q1 0 1 -3v-1q0 -1 -1 -5v-5q0 -4 2 -4v-1v-1q0 -2 -2 -2q0 -2 -2 -3q-3 0 -3 17q1 8 5 8v0zM61 17h2q1 0 2 -4q-1 -5 -4 -6l-1 1v8q0 1 1 1zM81 15q1 0 2 -5h1q1 5 3 5q2 -3 2 -5
l3 5h1q-1 -5 -3 -7h-1q-1 0 -2 5q-1 0 -3 -5h-1q-1 0 -3 7h1zM95 15q1 0 2 -4h1q1 4 3 4q1 0 3 -5q1 5 2 5v0q1 0 1 -1q-2 -6 -3 -6h-1l-3 5q-1 -5 -2 -5h-1q-1 0 -3 7h1zM109 15q1 0 2 -5h1q0 5 3 5q2 -3 2 -5h1q1 5 2 5h1v-1q0 -2 -3 -6h-1q-1 0 -2 5l-3 -5h-2q-2 4 -2 7
h1zM126 15q1 0 4 -3q3 3 4 3v0q-3 -4 -3 -7h-1h-1l-1 4q-1 0 -3 3h1zM151 15q4 0 4 -2l-1 -1v0q-2 2 -3 2q-3 0 -4 -2v-1q0 -1 2 -2h3q1 0 1 1v0h-2q-1 0 -1 1l1 1h3q1 0 1 -2v-1q0 -1 -4 -2q-6 1 -6 4q0 4 6 4zM168 15q2 0 6 -4v0v3l1 1v0q1 0 1 -1v-5q0 -1 -1 -2
q-1 0 -6 5q0 -4 -1 -4v0l-1 1v5zM179 15l3 -3l3 3q1 0 1 -1q-3 -3 -3 -6h-2l-1 4q-1 0 -3 3h2zM192 15q4 0 5 -3v-2q-1 -3 -5 -3q-5 0 -5 5q0 3 5 3zM207 15q1 0 1 -1v-4q0 -2 -4 -3q-5 1 -5 3v4q0 1 1 1h1l1 -6h1h2q1 0 1 1v4q0 1 1 1zM220 15q4 0 4 -2l-1 -1h-1q-1 2 -2 2
h-2q-1 0 -2 -2v-1q0 -1 2 -2h2q1 0 2 2h1q1 0 1 -1q0 -2 -5 -3q-3 0 -5 3v2q2 3 6 3zM230 15q5 0 5 -4q0 -3 -5 -4q-5 1 -5 5v0q1 3 5 3zM136 15h7v0v-1h-5v-2h4h1q0 -1 -1 -1h-4v-2h5q1 0 1 -1h-1h-7q-1 0 -1 1v5zM158 15h6q1 0 1 -1h-1h-5v-2h5v0v-1h-5v-2h6v-1h-7
q-1 0 -1 1v5q0 1 1 1zM238 15h2q1 0 2 -4l3 4h2v-1v-5v-1h-1q-1 0 -1 4v0q-1 -4 -2 -4h-1q-1 0 -3 4q0 -4 -1 -4v0q-1 0 -1 1v5zM189 12v-1q0 -1 2 -2h2q2 0 2 3q0 1 -1 2h-2q-3 -1 -3 -2zM227 12q0 -3 3 -3h1q2 0 2 2q0 3 -2 3h-2q-1 0 -2 -2zM122 9h1q1 0 1 -1h-1h-1v1v0z
M210 9h2v-1h-2v1z" />
    <glyph glyph-name="space" unicode=" " horiz-adv-x="20" 
 />
    <glyph glyph-name="exclam" unicode="!" horiz-adv-x="54" 
d="M37 184l-4 -126h-10l-4 126h18zM10 14q1 16 17 17q15 -2 17 -17q-1 -15 -17 -16q-16 1 -17 16z" />
    <glyph glyph-name="quotedbl" unicode="&#x22;" horiz-adv-x="84" 
d="M10 184h24v-28l-7 -35h-10l-7 35v28zM50 184h24v-28l-6 -35h-11l-7 35v28z" />
    <glyph glyph-name="numbersign" unicode="#" horiz-adv-x="158" 
d="M70 206h11l-41 -229h-12l16 84h-34l2 11h34l7 41h-34l2 11h34zM86 -23h-11l42 229h11l-15 -82h35l-3 -11h-34l-7 -41h34l-2 -11h-34z" />
    <glyph glyph-name="dollar" unicode="$" horiz-adv-x="112" 
d="M99 155l-7 -9q-16 14 -29 15v-59q39 -13 38 -46q0 -17 -10 -27q-11 -11 -28 -13v-22h-12v22q-23 2 -41 19l8 9q17 -16 33 -17v66q-35 12 -36 41q2 31 36 37v19h12v-19q20 -2 36 -16zM51 105v56q-23 -6 -24 -28q1 -19 24 -28zM63 91v-64q24 2 26 29q0 23 -26 35z" />
    <glyph glyph-name="percent" unicode="%" horiz-adv-x="130" 
d="M107 188h11l-95 -188h-10zM10 142q4 43 37 46q24 -1 25 -27q0 -15 -7 -27q-12 -19 -30 -20q-25 0 -25 28zM22 140q-1 -18 13 -18q23 2 26 41q-1 17 -14 17q-22 -2 -25 -40zM59 24q3 44 36 47q24 -1 25 -27q0 -15 -7 -27q-10 -18 -30 -18q-24 0 -24 25zM70 22
q0 -17 14 -17q22 2 25 41q-1 17 -14 17q-22 -2 -25 -41z" />
    <glyph glyph-name="ampersand" unicode="&#x26;" horiz-adv-x="133" 
d="M89 29l-40 61q-27 -31 -26 -53q1 -29 28 -30q26 1 38 22zM57 100l37 -59q4 15 4 50h13q-1 -40 -10 -60l22 -26l-8 -7l-20 22q-16 -22 -43 -22q-40 2 -42 38q0 25 29 61q2 3 3 4q-1 1 -2 3q-17 28 -16 44q0 20 10 30q9 10 23 10q26 -3 29 -34q1 -23 -29 -54zM55 178
q-16 -1 -18 -27q-1 -20 14 -41q3 4 7 11q19 24 15 34q-2 22 -18 23z" />
    <glyph glyph-name="quotesingle" unicode="'" horiz-adv-x="44" 
d="M10 184h24v-28l-7 -35h-10l-7 35v28z" />
    <glyph glyph-name="parenleft" unicode="(" horiz-adv-x="73" 
d="M63 -8l-6 -8q-25 17 -38 50q-9 26 -9 52q0 34 14 64q11 25 33 40l6 -8q-17 -12 -29 -36t-12 -60q0 -23 6 -44q11 -35 35 -50z" />
    <glyph glyph-name="parenright" unicode=")" horiz-adv-x="73" 
d="M10 182l6 8q23 -16 36 -46q11 -25 11 -58q0 -30 -10 -56q-12 -29 -37 -46l-6 8q22 13 34 45q7 23 7 49q0 33 -9 55q-12 28 -32 41z" />
    <glyph glyph-name="asterisk" unicode="*" horiz-adv-x="134" 
d="M61 184h11v-50l49 14l3 -11l-50 -14l32 -40l-9 -7l-30 39l-30 -39l-9 7l31 40l-49 14l3 11l48 -14v50z" />
    <glyph glyph-name="plus" unicode="+" horiz-adv-x="156" 
d="M146 98v-11h-62v-63h-11v63h-63v11h63v62h11v-62h62z" />
    <glyph glyph-name="comma" unicode="," horiz-adv-x="55" 
d="M10 -26v10q16 6 20 15h-5q-15 0 -15 14q1 15 17 16q17 -1 18 -21q-2 -23 -35 -34z" />
    <glyph glyph-name="hyphen" unicode="-" horiz-adv-x="156" 
d="M146 98v-11h-136v11h136z" />
    <glyph glyph-name="period" unicode="." horiz-adv-x="54" 
d="M10 14q1 16 17 17q15 -2 17 -17q-1 -15 -17 -16q-16 1 -17 16z" />
    <glyph glyph-name="slash" unicode="/" horiz-adv-x="106" 
d="M20 -5h-10l74 196h12z" />
    <glyph glyph-name="zero" unicode="0" horiz-adv-x="126" 
d="M116 92q0 -39 -6 -59q-13 -34 -45 -39q-22 -2 -41 17q-14 28 -12 59q2 48 8 81q13 36 45 37q31 -1 44 -35q7 -21 7 -61zM98 84q1 29 -2 41q-10 44 -22 47q-35 5 -44 -30q-4 -20 -4 -50q0 -33 5 -53q11 -33 34 -33q19 4 31 35q2 19 2 43z" />
    <glyph glyph-name="one" unicode="1" horiz-adv-x="103" 
d="M73 188l-14 -178h34v-10l-73 -9l-8 19h35v165l-37 -12l1 8z" />
    <glyph glyph-name="two" unicode="2" horiz-adv-x="128" 
d="M28 12l80 -2v-10l-86 -10q-12 41 -4 57q8 17 37 42q42 32 41 57q-2 30 -32 32q-33 -2 -21 -36l-28 -4q5 48 49 50q43 -2 54 -49q-9 -22 -51 -55q-49 -40 -39 -72z" />
    <glyph glyph-name="three" unicode="3" horiz-adv-x="127" 
d="M57 84l-1 21q38 3 41 39q-3 31 -35 34q-25 0 -30 -44l-19 24q17 29 50 30q42 -4 52 -47q-7 -27 -36 -40q37 -13 38 -50q0 -24 -15 -38q-14 -14 -39 -14q-33 -1 -53 30l35 10q-11 -32 17 -32q41 2 43 42q-1 43 -48 35z" />
    <glyph glyph-name="four" unicode="4" horiz-adv-x="133" 
d="M105 181l-8 -121h26v-11h-21l-5 -49h-12v49l-64 -11l-11 20l68 130zM85 60l1 99l-3 -4l-60 -95h62z" />
    <glyph glyph-name="five" unicode="5" horiz-adv-x="117" 
d="M95 184v-10l-57 -9l-15 -71q13 19 36 19q46 -4 48 -57q0 -23 -12 -38q-12 -19 -40 -19q-26 0 -45 26l22 19q2 -36 25 -37q35 3 38 48q-1 44 -36 48q-20 0 -30 -27l-18 9l7 99h77z" />
    <glyph glyph-name="six" unicode="6" horiz-adv-x="121" 
d="M99 59q-2 45 -28 39q-46 1 -48 -44q1 -30 19 -39q55 -6 57 44zM108 178l-18 -27q-7 25 -19 26q-19 1 -36 -30q-14 -28 -2 -46q6 14 33 14q41 -3 45 -56q-3 -59 -52 -60q-49 1 -49 79q1 48 16 75q19 34 51 35q17 0 31 -10z" />
    <glyph glyph-name="seven" unicode="7" horiz-adv-x="125" 
d="M10 184l105 -3l-79 -181h-13l69 174l-79 -13z" />
    <glyph glyph-name="eight" unicode="8" horiz-adv-x="133" 
d="M35 49q5 -34 31 -42q43 2 45 42q-2 40 -45 42q-34 -5 -31 -42zM104 140q-11 27 -37 27q-35 -2 -39 -29q2 -35 38 -37q36 2 38 39zM42 96q-24 12 -26 44q3 45 50 48q48 -2 50 -48q-2 -32 -26 -44q32 -11 33 -47q0 -22 -13 -36q-14 -14 -44 -14q-55 1 -56 50q0 35 32 47z
" />
    <glyph glyph-name="nine" unicode="9" horiz-adv-x="121" 
d="M13 6l8 31q12 -23 25 -25q25 -5 41 29q13 29 12 35q-16 -15 -38 -15q-47 11 -51 64q3 60 52 63q26 0 40 -29q9 -19 9 -53q0 -39 -12 -67q-19 -39 -55 -40q-17 -1 -31 7zM22 125q2 -45 36 -46q15 1 29 17q12 15 11 34q-3 46 -36 48q-38 -2 -40 -53z" />
    <glyph glyph-name="colon" unicode=":" horiz-adv-x="54" 
d="M10 14q1 16 17 17q15 -2 17 -17q-1 -15 -17 -16q-16 1 -17 16zM10 103q1 17 17 18q15 -2 17 -18q-2 -15 -17 -17q-16 1 -17 17z" />
    <glyph glyph-name="semicolon" unicode=";" horiz-adv-x="55" 
d="M10 -26v10q16 6 20 15h-5q-15 0 -15 14q1 15 17 16q17 -1 18 -21q0 -11 -10 -20q-11 -11 -25 -14zM10 103q1 17 17 18q15 -2 17 -18q-2 -15 -17 -17q-16 1 -17 17z" />
    <glyph glyph-name="less" unicode="&#x3c;" horiz-adv-x="124" 
d="M10 92l97 92l7 -8l-87 -84l87 -84l-7 -8z" />
    <glyph glyph-name="equal" unicode="=" horiz-adv-x="156" 
d="M146 115v-11h-136v11h136zM146 81v-12h-136v12h136z" />
    <glyph glyph-name="greater" unicode="&#x3e;" horiz-adv-x="124" 
d="M17 184l97 -92l-97 -92l-7 8l87 84l-87 84z" />
    <glyph glyph-name="question" unicode="?" horiz-adv-x="109" 
d="M59 57l-18 -14l6 39q0 8 2 14q3 8 20 19q17 14 16 30q-2 31 -32 33q-27 -1 -19 -42l-24 13q5 37 43 39q20 0 31 -11q13 -12 13 -33q2 -23 -23 -39q-18 -11 -15 -32v-16zM38 14q2 15 17 17q16 -2 18 -17q-1 -15 -18 -16q-16 1 -17 16z" />
    <glyph glyph-name="at" unicode="@" horiz-adv-x="172" 
d="M143 45l2 -28q-32 -19 -65 -19q-67 4 -70 78q1 47 26 82q23 30 55 30q66 -6 71 -77q-4 -60 -40 -63q-16 1 -22 15q-12 -15 -27 -15q-20 1 -22 23q1 26 15 45q13 15 44 15h8l-7 -40q-6 -33 12 -32q24 2 27 50q-3 61 -71 61q-26 -5 -32 -15q-24 -31 -25 -78q2 -66 60 -70
q28 0 61 38zM102 103l3 17q-15 -1 -29 -14q-8 -13 -13 -34q1 -13 11 -14q19 1 28 45z" />
    <glyph glyph-name="A" unicode="A" horiz-adv-x="148" 
d="M71 192l67 -189l-19 -3l-16 56l-53 -3l-27 -53h-13zM76 140l-29 -76l53 2z" />
    <glyph glyph-name="B" unicode="B" horiz-adv-x="119" 
d="M22 10h39q34 4 36 38q-4 40 -43 43l-23 -2zM63 0h-53v184h45q44 -2 46 -45q-1 -29 -30 -41q37 -12 38 -49q0 -17 -7 -27q-14 -22 -39 -22zM22 101h19q47 1 48 39q1 34 -39 34l-17 -4z" />
    <glyph glyph-name="C" unicode="C" horiz-adv-x="124" 
d="M111 150l-30 -18q14 44 -13 46q-46 0 -46 -87q-1 -84 45 -84q32 3 22 55l25 -22q-6 -41 -48 -42q-31 0 -45 27q-11 23 -11 65q0 51 15 75q16 23 43 23q37 -2 43 -38z" />
    <glyph glyph-name="D" unicode="D" horiz-adv-x="121" 
d="M10 0v184h46q30 0 44 -26q11 -21 11 -66q0 -48 -14 -72q-15 -20 -45 -20h-42zM35 172l-13 -162h23q36 -1 46 24q8 18 8 58q0 42 -9 60q-11 24 -45 22z" />
    <glyph glyph-name="E" unicode="E" horiz-adv-x="112" 
d="M100 184v-10l-66 -3l-12 -71h56v-10h-46l-10 -80h80v-10l-87 -9l-5 193h90z" />
    <glyph glyph-name="F" unicode="F" horiz-adv-x="114" 
d="M104 184v-10l-74 -11l-8 -62h62v-10l-52 -5l-10 -86h-12v184h94z" />
    <glyph glyph-name="G" unicode="G" horiz-adv-x="128" 
d="M106 79l-42 -14l-3 24h57v-91l-26 -6l14 34h-1q-10 -27 -43 -28q-33 0 -45 33q-7 21 -7 55q0 54 13 77q13 25 42 25q39 -1 44 -46l-24 -5q10 39 -19 41q-23 0 -34 -23q-10 -21 -10 -64q0 -35 7 -56q9 -28 34 -28q42 2 43 57v15z" />
    <glyph glyph-name="H" unicode="H" horiz-adv-x="127" 
d="M34 178l-12 -77h73v83l22 -10l-10 -174h-12v91l-65 -2l-8 -89h-12v184z" />
    <glyph glyph-name="I" unicode="I" horiz-adv-x="83" 
d="M73 184v-10l-21 -10l-4 -154h25v-10l-59 -14l-4 24h26v164l-22 -18l-4 28h63z" />
    <glyph glyph-name="J" unicode="J" horiz-adv-x="118" 
d="M60 184h47v-126q1 -62 -50 -60q-47 -1 -46 58v19l34 7l-22 -33q0 -43 34 -42q37 1 38 42v125l-35 -18v28z" />
    <glyph glyph-name="K" unicode="K" horiz-adv-x="128" 
d="M39 172l-17 -72q19 0 44 36q17 23 26 49l25 -24q-57 -55 -78 -67l79 -94h-17l-67 84l-2 -6l-10 -78h-12v184z" />
    <glyph glyph-name="L" unicode="L" horiz-adv-x="113" 
d="M39 165l-17 -155h81v-10l-88 -9l-5 193z" />
    <glyph glyph-name="M" unicode="M" horiz-adv-x="144" 
d="M65 83l42 101l27 -8l-13 -176h-12v160h-1l-39 -119l-34 90l-13 -131h-12v184h13z" />
    <glyph glyph-name="N" unicode="N" horiz-adv-x="128" 
d="M90 0l-55 137l-13 -137h-12v184h17l63 -158l1 1v157l27 -13l-15 -171h-13z" />
    <glyph glyph-name="O" unicode="O" horiz-adv-x="129" 
d="M64 -2q-26 0 -40 19q-14 22 -14 75q0 49 11 70q14 26 43 26q31 0 43 -26q12 -22 11 -70q0 -41 -8 -61q-11 -34 -46 -33zM22 92q0 -44 11 -64q9 -21 31 -21q26 -1 35 29q7 19 7 56q0 46 -19 62q-8 9 -26 10q-15 5 -32 -15q-7 -11 -7 -57z" />
    <glyph glyph-name="P" unicode="P" horiz-adv-x="112" 
d="M10 0v184h42q49 -1 50 -55q0 -25 -14 -39q-15 -15 -43 -15l-15 -3l-8 -72h-12zM52 174l-17 -3l-13 -86h22q44 0 45 44q0 44 -37 45z" />
    <glyph glyph-name="Q" unicode="Q" horiz-adv-x="130" 
d="M99 11l21 -25l-21 -11l-18 20q-2 3 -17 3q-33 0 -45 31q-9 22 -9 63q0 45 11 67q12 29 43 29q29 0 43 -25q12 -22 12 -71q0 -30 -4 -46q-5 -25 -16 -35zM22 92q-2 -85 42 -85t42 85q-10 71 -37 72q-43 -8 -47 -72z" />
    <glyph glyph-name="R" unicode="R" horiz-adv-x="127" 
d="M10 0v184h44q47 -2 49 -50q0 -18 -9 -32t-10 -28l33 -74h-15l-46 80l-24 -4l-10 -76h-12zM32 157l-10 -67h30q37 3 38 45q-1 38 -51 39z" />
    <glyph glyph-name="S" unicode="S" horiz-adv-x="127" 
d="M109 167l-17 -39q-13 51 -30 50q-33 -2 -35 -33q-2 -19 29 -37l16 -9q45 -25 42 -51q-2 -48 -52 -50q-31 0 -52 26l19 29q7 -46 33 -46q36 3 39 38q6 21 -36 44l-17 10q-34 19 -33 45q2 41 47 44q26 0 47 -21z" />
    <glyph glyph-name="T" unicode="T" horiz-adv-x="143" 
d="M133 184v-10l-50 -11l-8 -163h-12v174l-52 -20l-1 30h123z" />
    <glyph glyph-name="U" unicode="U" horiz-adv-x="130" 
d="M94 184l26 -14l-13 -123q0 -24 -15 -37q-14 -12 -34 -12q-16 0 -30 9q-18 15 -18 38v139l30 -13l-18 -117q0 -25 12 -39q11 -8 24 -8q17 0 26 10q10 11 10 32v135z" />
    <glyph glyph-name="V" unicode="V" horiz-adv-x="130" 
d="M62 8l36 176l22 -25l-48 -159h-20l-42 184l36 -17z" />
    <glyph glyph-name="W" unicode="W" horiz-adv-x="147" 
d="M67 122l32 -102h1l10 164l27 -21l-27 -163h-16l-20 72l-33 -72h-17l-14 184l24 -18l1 -146z" />
    <glyph glyph-name="X" unicode="X" horiz-adv-x="123" 
d="M12 184l35 -11l14 -68l34 79l18 -16l-46 -75l44 -93h-15l-31 63l-40 -63h-15l45 93z" />
    <glyph glyph-name="Y" unicode="Y" horiz-adv-x="134" 
d="M62 92l39 92l23 -23l-50 -85l-6 -76h-12v78l-46 106l35 -21z" />
    <glyph glyph-name="Z" unicode="Z" horiz-adv-x="120" 
d="M13 184h91v-10l-72 -161l78 -3v-10l-89 -14l-11 24l80 164l-73 -20z" />
    <glyph glyph-name="bracketleft" unicode="[" horiz-adv-x="89" 
d="M10 190h69v-10h-57v-190h57v-11h-69v211z" />
    <glyph glyph-name="backslash" unicode="\" horiz-adv-x="105" 
d="M83 -5l-73 196h9l76 -196h-12z" />
    <glyph glyph-name="bracketright" unicode="]" horiz-adv-x="88" 
d="M78 190v-211h-68v11h56v190h-56v10h68z" />
    <glyph glyph-name="asciicircum" unicode="^" horiz-adv-x="102" 
d="M50 173l-36 -27l-4 6l40 37l42 -37l-6 -6z" />
    <glyph glyph-name="underscore" unicode="_" horiz-adv-x="174" 
d="M164 -30h-154v13h154v-13z" />
    <glyph glyph-name="grave" unicode="`" horiz-adv-x="69" 
d="M18 188l41 -33l-6 -8l-43 30z" />
    <glyph glyph-name="a" unicode="a" horiz-adv-x="128" 
d="M83 35v35q-16 8 -29 8q-31 -1 -32 -39q2 -30 26 -32q20 -1 35 28zM118 7l-28 -8q-3 6 -5 20v1q-16 -22 -37 -21q-19 0 -30 13q-8 11 -8 28q0 21 12 35q9 13 29 13q15 0 33 -9q3 51 -28 49q-14 0 -30 -25l-5 27q19 8 36 8q39 -1 39 -47q0 -9 -1 -28q0 -18 -1 -28
q1 -20 24 -28z" />
    <glyph glyph-name="b" unicode="b" horiz-adv-x="131" 
d="M22 190l17 -11l-5 -52q14 11 33 11q52 -6 54 -69q0 -30 -11 -46q-15 -23 -42 -24q-25 0 -36 20l-5 -20l-17 18q12 1 12 31v142zM35 102l-1 -67q12 -29 34 -28q20 1 32 21q9 16 9 40q-1 57 -45 60q-13 0 -29 -26z" />
    <glyph glyph-name="c" unicode="c" horiz-adv-x="122" 
d="M99 51l12 -31q-19 -21 -44 -21q-56 2 -57 67q0 40 20 58q14 14 36 14q27 0 46 -27l-19 -26q-4 43 -27 43q-43 -2 -44 -60q1 -57 44 -61q19 0 33 44z" />
    <glyph glyph-name="d" unicode="d" horiz-adv-x="127" 
d="M117 170l-8 -122q0 -30 6 -48l-12 -1l-4 20q-12 -20 -36 -20t-39 19q-14 20 -14 51q2 62 53 69q19 0 34 -11v63zM97 35l-1 67q-16 26 -30 26q-43 -4 -44 -60q1 -56 41 -61q22 0 34 28z" />
    <glyph glyph-name="e" unicode="e" horiz-adv-x="125" 
d="M114 31l-1 -22q-29 -10 -49 -10q-51 1 -54 68q0 31 15 52q13 19 40 19q49 -3 50 -72l-87 -10q-4 -49 37 -49q20 0 49 24zM35 77l68 -1q-3 48 -39 52q-39 -4 -29 -51z" />
    <glyph glyph-name="f" unicode="f" horiz-adv-x="130" 
d="M117 179l3 -29q-7 19 -14 22q-12 6 -21 6q-25 0 -28 -28v-24h45v-10l-40 -2l-5 -114h-12v116l-29 -12l-6 22h35v16q2 21 9 32q11 14 30 14q15 0 33 -9z" />
    <glyph glyph-name="g" unicode="g" horiz-adv-x="131" 
d="M19 -23l12 21q10 -28 29 -29q34 2 35 43v17q-16 -16 -38 -17q-43 3 -47 60q2 64 50 66q17 1 37 -15l3 15l21 -19q-14 -1 -14 -43v-9v-57q0 -22 -15 -37q-13 -13 -34 -14q-22 1 -39 18zM95 43l-2 44q-12 41 -34 41q-35 -2 -37 -53q1 -48 36 -53q22 1 37 21z" />
    <glyph glyph-name="h" unicode="h" horiz-adv-x="110" 
d="M10 0v190l22 -16l-10 -68h1q16 31 45 32q31 -4 32 -39v-99l-23 -2l11 87q0 43 -22 43q-16 0 -30 -17t-10 -45l-4 -66h-12z" />
    <glyph glyph-name="i" unicode="i" horiz-adv-x="78" 
d="M49 0v125l-26 -14l-13 24l56 -1l-5 -134h-12zM55 188q12 -1 13 -13q-1 -13 -13 -14q-13 1 -14 14q1 12 14 13z" />
    <glyph glyph-name="j" unicode="j" horiz-adv-x="106" 
d="M10 7l31 -3q-19 -35 8 -35q27 2 29 29v127l-26 -15l-14 25l57 -3l-5 -132q-3 -38 -40 -41q-19 0 -30 13q-10 13 -10 35zM83 188q12 -1 13 -13q-1 -13 -13 -14q-13 1 -14 14q1 12 14 13z" />
    <glyph glyph-name="k" unicode="k" horiz-adv-x="120" 
d="M80 135h16q-8 -10 -14 -16q-24 -29 -27 -32q-4 -3 -13 -13l68 -59l-19 -15l-56 67l-9 -13l-4 -54h-12v190l26 -17l-14 -104q15 14 29 30q15 15 29 36z" />
    <glyph glyph-name="l" unicode="l" horiz-adv-x="77" 
d="M49 0v180l-33 -13l-6 23l57 -3l-5 -187h-13z" />
    <glyph glyph-name="m" unicode="m" horiz-adv-x="148" 
d="M14 0v94q0 27 -4 44h12l3 -17q14 17 32 17q15 0 21 -16q12 16 28 16q25 -1 32 -30l-6 -108h-12v109q0 19 -16 19q-14 0 -16 -27l-9 -101h-12v104q1 24 -14 24q-17 -1 -19 -25l-8 -103h-12z" />
    <glyph glyph-name="n" unicode="n" horiz-adv-x="122" 
d="M35 54l-8 -54h-12v68q1 45 -5 69l18 -13l-2 -26h1q13 37 48 40q30 -1 37 -47l-6 -91h-12v91q2 38 -21 37t-34 -31q-6 -23 -4 -43z" />
    <glyph glyph-name="o" unicode="o" horiz-adv-x="124" 
d="M62 -1q-30 1 -43 25q-9 18 -9 44q0 30 10 46q17 24 42 24q51 -4 52 -70q-1 -67 -52 -69zM62 7q39 1 40 61q-8 51 -42 48q-32 -2 -38 -48q1 -60 40 -61z" />
    <glyph glyph-name="p" unicode="p" horiz-adv-x="125" 
d="M16 -52v140q0 30 -6 49l11 1l5 -22q11 22 36 22q23 -1 39 -20q14 -21 14 -51q0 -29 -14 -48t-40 -20q-21 0 -27 2l-6 -53h-12zM38 94l-10 -73q16 -14 30 -14q44 4 45 61q-1 55 -41 60q-21 1 -24 -34z" />
    <glyph glyph-name="q" unicode="q" horiz-adv-x="125" 
d="M109 -52h-12l-7 57q-8 -7 -27 -6q-24 1 -40 20q-12 17 -13 48q0 31 14 52q15 19 39 19q24 -1 35 -22h1l4 22l12 -1q-6 -19 -6 -49v-140zM97 21l-5 65q-8 43 -29 42q-40 -5 -41 -60q1 -57 44 -61q15 0 31 14z" />
    <glyph glyph-name="r" unicode="r" horiz-adv-x="121" 
d="M37 55l12 -62l-24 7v94l-15 64l23 -12l3 -47q19 39 46 39q28 -1 29 -41l-27 -4q16 35 -3 35q-15 -1 -29 -19q-15 -23 -15 -54z" />
    <glyph glyph-name="s" unicode="s" horiz-adv-x="113" 
d="M98 124l-11 -29q-13 33 -31 33q-25 -3 -27 -25q0 -17 30 -27q44 -14 43 -43q0 -18 -15 -28q-11 -6 -26 -6q-27 1 -51 20l9 26q21 -37 43 -38q27 2 28 25q2 21 -32 33q-42 13 -41 39q3 31 40 34q21 0 41 -14z" />
    <glyph glyph-name="t" unicode="t" horiz-adv-x="127" 
d="M102 135v-10l-43 -4l-6 -88q1 -26 21 -26t26 30l17 -8q-14 -29 -43 -30q-19 -1 -26 11q-7 9 -7 30v85l-27 -17l-4 27h31v44l22 -8l-10 -36h49z" />
    <glyph glyph-name="u" unicode="u" horiz-adv-x="118" 
d="M89 81v54l19 -17l-7 -49q0 -34 5 -69l-19 -4l3 42h-1q-13 -37 -48 -39q-30 1 -31 41v95l20 -13l-8 -76q0 -40 21 -39q19 1 34 22q12 21 12 52z" />
    <glyph glyph-name="v" unicode="v" horiz-adv-x="118" 
d="M97 135l11 -25l-41 -110h-14l-43 135l30 -15l20 -104z" />
    <glyph glyph-name="w" unicode="w" horiz-adv-x="151" 
d="M34 0l-24 135l22 -17l10 -100h1l24 83h13l24 -83l19 117l18 -28l-29 -107h-13l-26 86l-16 -83z" />
    <glyph glyph-name="x" unicode="x" horiz-adv-x="139" 
d="M118 120l-42 -47l53 -51l-17 -22l-43 65l-43 -65h-16l53 73l-49 43l20 19l35 -53l34 53z" />
    <glyph glyph-name="y" unicode="y" horiz-adv-x="142" 
d="M120 135l12 -30l-48 -98q-1 -2 -2 -5q-8 -18 -14 -26q-12 -17 -27 -17q-22 1 -31 26l20 19q-2 -35 11 -35q14 0 24 25l11 22l-44 119l35 -18l15 -86z" />
    <glyph glyph-name="z" unicode="z" horiz-adv-x="122" 
d="M22 135h87v-10l-84 -115h87v-10h-102v10l84 115l-68 -20z" />
    <glyph glyph-name="braceleft" unicode="{" horiz-adv-x="78" 
d="M42 50v-40q0 -28 26 -30l-1 -1q-23 1 -31 10q-6 9 -6 26v38q2 27 -20 30v1q22 3 20 29v42q0 16 6 25q7 9 31 10l1 -1q-28 -3 -26 -32v-42q2 -28 -21 -31v-1q23 -3 21 -33z" />
    <glyph glyph-name="bar" unicode="|" horiz-adv-x="31" 
d="M10 -62v254h11v-254h-11z" />
    <glyph glyph-name="braceright" unicode="}" horiz-adv-x="77" 
d="M35 117v40q1 30 -25 32v1q25 0 32 -12q6 -9 5 -25v-39q-2 -26 20 -30q-22 -4 -20 -30v-41q0 -16 -6 -23q-9 -10 -31 -11v1q27 3 25 31v41q-2 28 21 32q-23 5 -21 33z" />
    <glyph glyph-name="asciitilde" unicode="~" horiz-adv-x="158" 
d="M140 113l8 -6q-15 -28 -38 -29q-8 0 -31 9q-3 1 -5 2q-20 8 -25 8q-17 1 -31 -26l-8 6q17 31 37 31q13 0 33 -9q22 -10 30 -10q18 1 30 24z" />
    <glyph glyph-name="currency" unicode="&#xa4;" horiz-adv-x="168" 
d="M38 130l-28 27l8 8l28 -27q17 13 38 13t38 -13l28 27l8 -8l-28 -27q13 -17 13 -38t-13 -37l28 -28l-8 -8l-28 28q-17 -14 -38 -14t-38 14l-28 -28l-8 8l28 28q-13 16 -13 37t13 38zM84 43q45 4 49 49q-3 46 -49 49q-45 -3 -49 -49q4 -45 49 -49z" />
    <glyph glyph-name="section" unicode="&#xa7;" horiz-adv-x="118" 
d="M85 89l-48 37q-13 -6 -14 -21q0 -9 10 -18l48 -38q13 6 14 21q0 7 -8 17zM63 48l-15 12q-1 1 -4 3q-34 22 -33 40q0 19 20 29q-9 10 -10 22q1 32 37 34q40 -1 40 -40h-12q1 29 -27 30q-25 -1 -26 -22q0 -13 20 -28q1 0 2 -1l15 -12q1 -1 4 -3q34 -22 33 -40
q0 -18 -20 -29q10 -9 10 -22q-2 -30 -37 -32q-40 1 -40 38h12q-1 -28 27 -28q25 1 26 20q0 13 -17 25q-3 3 -5 4z" />
    <glyph glyph-name="dieresis" unicode="&#xa8;" horiz-adv-x="96" 
d="M10 167q1 12 14 14q14 -1 15 -14q-1 -13 -15 -14q-13 2 -14 14zM57 167q1 13 14 14q14 -1 15 -14q-1 -13 -15 -14q-13 1 -14 14z" />
    <glyph glyph-name="degree" unicode="&#xb0;" horiz-adv-x="119" 
d="M10 141q4 45 50 49q45 -4 49 -49q-4 -46 -49 -50q-46 4 -50 50zM21 141q3 -36 39 -39q35 3 38 39q-3 35 -38 38q-36 -4 -39 -38z" />
    <glyph glyph-name="plusminus" unicode="&#xb1;" horiz-adv-x="156" 
d="M146 110v-11h-62v-63h-12v63h-62v11h62v62h12v-62h62zM146 23v-11h-136v11h136z" />
    <glyph glyph-name="periodcentered" unicode="&#xb7;" horiz-adv-x="72" 
d="M36 117q24 -2 26 -26q-2 -23 -26 -25q-24 2 -26 25q2 24 26 26z" />
    <glyph glyph-name="multiply" unicode="&#xd7;" horiz-adv-x="156" 
d="M146 32l-8 -8l-60 60l-60 -60l-8 8l60 60l-60 60l8 8l60 -60l60 60l8 -8l-60 -60z" />
    <glyph glyph-name="agrave" unicode="&#xe0;" horiz-adv-x="144" 
d="M60 187l41 -33l-6 -8l-44 31zM127 138v-91q0 -27 7 -47l-11 -1l-6 20q-16 -20 -45 -20q-31 0 -48 20q-14 18 -14 50q0 30 17 49q18 19 46 20q30 1 42 -11v11h12zM115 34v81q-14 14 -38 13q-54 -5 -56 -60q2 -56 51 -61q30 1 43 27z" />
    <glyph glyph-name="aacute" unicode="&#xe1;" horiz-adv-x="144" 
d="M65 146l-9 11l44 30l6 -7zM127 138v-91q0 -27 7 -47l-11 -1l-6 20q-16 -20 -45 -20q-31 0 -48 20q-14 18 -14 50q0 30 17 49q18 19 46 20q30 1 42 -11v11h12zM115 34v81q-14 14 -38 13q-54 -5 -56 -60q2 -56 51 -61q30 1 43 27z" />
    <glyph glyph-name="egrave" unicode="&#xe8;" horiz-adv-x="144" 
d="M50 188l41 -33l-6 -8l-44 30zM127 20l5 -11q-30 -10 -58 -10q-32 0 -46 16q-18 18 -18 53q3 68 65 70q58 -3 59 -72h-112q1 -56 53 -59q24 0 52 13zM22 76h100q-4 50 -49 52q-46 -5 -51 -52z" />
    <glyph glyph-name="eacute" unicode="&#xe9;" horiz-adv-x="144" 
d="M66 147l-9 11l44 30l6 -8zM127 20l5 -11q-30 -10 -58 -10q-32 0 -46 16q-18 18 -18 53q3 68 65 70q58 -3 59 -72h-112q1 -56 53 -59q24 0 52 13zM22 76h100q-4 50 -49 52q-46 -5 -51 -52z" />
    <glyph glyph-name="ecircumflex" unicode="&#xea;" horiz-adv-x="144" 
d="M71 173l-35 -27l-6 6l41 37l42 -37l-6 -6zM127 20l5 -11q-30 -10 -58 -10q-32 0 -46 16q-18 18 -18 53q3 68 65 70q58 -3 59 -72h-112q1 -56 53 -59q24 0 52 13zM22 76h100q-4 50 -49 52q-46 -5 -51 -52z" />
    <glyph glyph-name="igrave" unicode="&#xec;" horiz-adv-x="91" 
d="M39 188l41 -33l-6 -8l-44 30zM67 0v125h-57v10h71v-135h-14z" />
    <glyph glyph-name="iacute" unicode="&#xed;" horiz-adv-x="93" 
d="M42 147l-9 11l44 30l6 -8zM67 0v125h-57v10h71v-135h-14z" />
    <glyph glyph-name="ograve" unicode="&#xf2;" horiz-adv-x="144" 
d="M50 188l41 -33l-5 -8l-45 30zM72 -1q-61 1 -62 69q1 28 10 44q17 25 52 26q61 -3 62 -70q-1 -67 -62 -69zM72 7q49 1 51 61q-2 59 -51 60q-49 -1 -51 -60q2 -60 51 -61z" />
    <glyph glyph-name="oacute" unicode="&#xf3;" horiz-adv-x="144" 
d="M67 147l-10 11l45 30l6 -8zM72 -1q-61 1 -62 69q1 28 10 44q17 25 52 26q61 -3 62 -70q-1 -67 -62 -69zM72 7q49 1 51 61q-2 59 -51 60q-49 -1 -51 -60q2 -60 51 -61z" />
    <glyph glyph-name="divide" unicode="&#xf7;" horiz-adv-x="156" 
d="M146 98v-11h-136v11h136zM89 52q-1 -10 -11 -11q-10 1 -11 11q1 10 11 11q10 -1 11 -11zM89 132q-1 -10 -11 -11q-10 1 -11 11q1 10 11 11q10 -1 11 -11z" />
    <glyph glyph-name="ugrave" unicode="&#xf9;" horiz-adv-x="138" 
d="M41 188l41 -33l-6 -8l-45 30zM109 81v55h12v-67q0 -42 7 -69h-12l-6 36h-1q-19 -37 -60 -37q-39 1 -39 41v96h12v-90q0 -38 29 -38q55 7 58 73z" />
    <glyph glyph-name="uacute" unicode="&#xfa;" horiz-adv-x="138" 
d="M58 147l-9 11l44 30l6 -8zM109 81v55h12v-67q0 -42 7 -69h-12l-6 36h-1q-19 -37 -60 -37q-39 1 -39 41v96h12v-90q0 -38 29 -38q55 7 58 73z" />
    <glyph glyph-name="udieresis" unicode="&#xfc;" horiz-adv-x="138" 
d="M27 167q1 13 14 14q13 -1 14 -14q-1 -13 -14 -14q-13 1 -14 14zM74 167q1 13 14 14q13 -1 14 -14q-1 -13 -14 -14q-13 1 -14 14zM109 81v55h12v-67q0 -42 7 -69h-12l-6 36h-1q-19 -37 -60 -37q-39 1 -39 41v96h12v-90q0 -38 29 -38q55 7 58 73z" />
    <glyph glyph-name="amacron" unicode="&#x101;" horiz-adv-x="144" 
d="M127 138v-91q0 -27 7 -47l-11 -1l-6 20q-16 -20 -45 -20q-31 0 -48 20q-14 18 -14 50q0 30 17 49q18 19 46 20q30 1 42 -11v11h12zM115 34v81q-14 14 -38 13q-54 -5 -56 -60q2 -56 51 -61q30 1 43 27zM110 162h-74v10h74v-10z" />
    <glyph glyph-name="emacron" unicode="&#x113;" horiz-adv-x="144" 
d="M112 162h-74v10h74v-10zM127 20l5 -11q-30 -10 -58 -10q-32 0 -46 16q-18 18 -18 53q3 68 65 70q58 -3 59 -72h-112q1 -56 53 -59q24 0 52 13zM22 76h100q-4 50 -49 52q-46 -5 -51 -52z" />
    <glyph glyph-name="ecaron" unicode="&#x11b;" horiz-adv-x="144" 
d="M74 162l36 26l6 -6l-42 -36l-42 36l6 6zM127 20l5 -11q-30 -10 -58 -10q-32 0 -46 16q-18 18 -18 53q3 68 65 70q58 -3 59 -72h-112q1 -56 53 -59q24 0 52 13zM22 76h100q-4 50 -49 52q-46 -5 -51 -52z" />
    <glyph glyph-name="imacron" unicode="&#x12b;" horiz-adv-x="99" 
d="M89 162h-74v10h74v-10zM67 0v125h-57v10h71v-135h-14z" />
    <glyph glyph-name="nacute" unicode="&#x144;" horiz-adv-x="136" 
d="M58 147l-9 10l44 31l6 -8zM28 55v-55h-12v67q0 41 -6 69h12l4 -39h2q19 38 60 41q37 -1 38 -42v-96h-11v90q1 37 -29 37q-27 -1 -42 -23q-16 -22 -16 -49z" />
    <glyph glyph-name="ncaron" unicode="&#x148;" horiz-adv-x="136" 
d="M74 162l36 26l6 -6l-42 -36l-42 36l6 6zM28 55v-55h-12v67q0 41 -6 69h12l4 -39h2q19 38 60 41q37 -1 38 -42v-96h-11v90q1 37 -29 37q-27 -1 -42 -23q-16 -22 -16 -49z" />
    <glyph glyph-name="omacron" unicode="&#x14d;" horiz-adv-x="144" 
d="M109 162h-74v10h74v-10zM72 -1q-61 1 -62 69q1 28 10 44q17 25 52 26q61 -3 62 -70q-1 -67 -62 -69zM72 7q49 1 51 61q-2 59 -51 60q-49 -1 -51 -60q2 -60 51 -61z" />
    <glyph glyph-name="umacron" unicode="&#x16b;" horiz-adv-x="138" 
d="M103 162h-74v10h74v-10zM109 81v55h12v-67q0 -42 7 -69h-12l-6 36h-1q-19 -37 -60 -37q-39 1 -39 41v96h12v-90q0 -38 29 -38q55 7 58 73z" />
    <glyph glyph-name="uni01CE" unicode="&#x1ce;" horiz-adv-x="144" 
d="M74 162l36 26l6 -6l-42 -36l-42 36l6 6zM127 138v-91q0 -27 7 -47l-11 -1l-6 20q-16 -20 -45 -20q-31 0 -48 20q-14 18 -14 50q0 30 17 49q18 19 46 20q30 1 42 -11v11h12zM115 34v81q-14 14 -38 13q-54 -5 -56 -60q2 -56 51 -61q30 1 43 27z" />
    <glyph glyph-name="uni01D0" unicode="&#x1d0;" horiz-adv-x="103" 
d="M52 162l35 26l6 -6l-41 -36l-42 36l6 6zM68 0v125h-57v10h71v-135h-14z" />
    <glyph glyph-name="uni01D2" unicode="&#x1d2;" horiz-adv-x="144" 
d="M72 162l36 26l6 -6l-42 -36l-41 36l5 6zM72 -1q-61 1 -62 69q1 28 10 44q17 25 52 26q61 -3 62 -70q-1 -67 -62 -69zM72 7q49 1 51 61q-2 59 -51 60q-49 -1 -51 -60q2 -60 51 -61z" />
    <glyph glyph-name="uni01D4" unicode="&#x1d4;" horiz-adv-x="138" 
d="M66 162l36 26l6 -6l-42 -36l-42 36l6 6zM109 81v55h12v-67q0 -42 7 -69h-12l-6 36h-1q-19 -37 -60 -37q-39 1 -39 41v96h12v-90q0 -38 29 -38q55 7 58 73z" />
    <glyph glyph-name="uni01D6" unicode="&#x1d6;" horiz-adv-x="138" 
d="M27 167q1 13 14 14q13 -1 14 -14q-1 -13 -14 -14q-13 1 -14 14zM74 167q1 13 14 14q13 -1 14 -14q-1 -13 -14 -14q-13 1 -14 14zM101 197h-74v10h74v-10zM109 81v55h12v-67q0 -42 7 -69h-12l-6 36h-1q-19 -37 -60 -37q-39 1 -39 41v96h12v-90q0 -38 29 -38q55 7 58 73z
" />
    <glyph glyph-name="uni01D8" unicode="&#x1d8;" horiz-adv-x="138" 
d="M27 167q1 13 14 14q13 -1 14 -14q-1 -13 -14 -14q-13 1 -14 14zM74 167q1 13 14 14q13 -1 14 -14q-1 -13 -14 -14q-13 1 -14 14zM47 184l-9 11l44 30l6 -7zM109 81v55h12v-67q0 -42 7 -69h-12l-6 36h-1q-19 -37 -60 -37q-39 1 -39 41v96h12v-90q0 -38 29 -38q55 7 58 73z
" />
    <glyph glyph-name="uni01DA" unicode="&#x1da;" horiz-adv-x="138" 
d="M27 167q1 13 14 14q13 -1 14 -14q-1 -13 -14 -14q-13 1 -14 14zM74 167q1 13 14 14q13 -1 14 -14q-1 -13 -14 -14q-13 1 -14 14zM66 199l36 27l6 -6l-42 -36l-42 36l6 6zM109 81v55h12v-67q0 -42 7 -69h-12l-6 36h-1q-19 -37 -60 -37q-39 1 -39 41v96h12v-90
q0 -38 29 -38q55 7 58 73z" />
    <glyph glyph-name="uni01DC" unicode="&#x1dc;" horiz-adv-x="138" 
d="M27 167q1 13 14 14q13 -1 14 -14q-1 -13 -14 -14q-13 1 -14 14zM74 167q1 13 14 14q13 -1 14 -14q-1 -13 -14 -14q-13 1 -14 14zM49 225l41 -33l-6 -8l-44 31zM109 81v55h12v-67q0 -42 7 -69h-12l-6 36h-1q-19 -37 -60 -37q-39 1 -39 41v96h12v-90q0 -38 29 -38
q55 7 58 73z" />
    <glyph glyph-name="uni0251" unicode="&#x251;" horiz-adv-x="144" 
d="M127 138v-91q0 -27 7 -47l-11 -1l-6 20q-16 -20 -45 -20q-31 0 -48 20q-14 18 -14 50q0 30 17 49q18 19 46 20q30 1 42 -11v11h12zM115 34v81q-14 14 -38 13q-54 -5 -56 -60q2 -56 51 -61q30 1 43 27z" />
    <glyph glyph-name="uni0261" unicode="&#x261;" horiz-adv-x="142" 
d="M20 -23l8 7q20 -15 42 -15q43 3 44 42v17q-20 -15 -48 -16q-52 3 -56 60q0 30 15 48q16 18 44 18q21 0 47 -17l4 16h12q-8 -24 -7 -71v-56q-2 -48 -58 -52q-25 1 -47 19zM114 43v65q-17 18 -46 19q-42 -2 -46 -53q1 -47 45 -52q30 2 47 21z" />
    <glyph glyph-name="caron" unicode="&#x2c7;" horiz-adv-x="104" 
d="M52 161l36 27l6 -6l-42 -37l-42 37l6 6z" />
    <glyph glyph-name="uni02C9" unicode="&#x2c9;" horiz-adv-x="94" 
d="M84 162h-74v10h74v-10z" />
    <glyph glyph-name="Alpha" unicode="&#x391;" horiz-adv-x="143" 
d="M71 192l62 -192h-14l-16 56l-53 -3l-27 -53h-13zM76 140l-34 -74h58z" />
    <glyph glyph-name="Beta" unicode="&#x392;" horiz-adv-x="119" 
d="M22 10h39q34 4 36 38q-4 40 -43 43l-23 -2zM63 0h-53v184h45q44 -2 46 -45q-1 -29 -30 -41q37 -12 38 -49q0 -17 -7 -27q-14 -22 -39 -22zM22 101h19q47 1 48 39q1 34 -39 34l-17 -4z" />
    <glyph glyph-name="Gamma" unicode="&#x393;" horiz-adv-x="136" 
d="M10 178h116v-18h-96v-160h-20v178z" />
    <glyph glyph-name="Delta" unicode="&#x394;" horiz-adv-x="190" 
d="M91 180l89 -180h-170zM92 132l-49 -112h103z" />
    <glyph glyph-name="Epsilon" unicode="&#x395;" horiz-adv-x="112" 
d="M100 184v-10l-66 -3l-12 -71h56v-10h-46l-10 -80h80v-10l-87 -9l-5 193h90z" />
    <glyph glyph-name="Zeta" unicode="&#x396;" horiz-adv-x="120" 
d="M13 184h91v-10l-72 -161l78 -3v-10l-89 -14l-11 24l80 164l-73 -20z" />
    <glyph glyph-name="Eta" unicode="&#x397;" horiz-adv-x="127" 
d="M34 178l-12 -77h73v83l22 -10l-10 -174h-12v91l-65 -2l-8 -89h-12v184z" />
    <glyph glyph-name="Theta" unicode="&#x398;" horiz-adv-x="186" 
d="M49 101h88v-18h-88v18zM92 166q-56 -3 -60 -73q2 -74 61 -76q58 4 61 75q-4 72 -62 74zM93 186q77 -4 83 -94q-5 -91 -84 -93q-79 3 -82 94q5 90 83 93z" />
    <glyph glyph-name="Iota" unicode="&#x399;" horiz-adv-x="40" 
d="M10 178h20v-178h-20v178z" />
    <glyph glyph-name="Kappa" unicode="&#x39a;" horiz-adv-x="128" 
d="M39 172l-17 -72q19 0 44 36q17 23 26 49l25 -24q-57 -55 -78 -67l79 -94h-17l-67 84l-2 -6l-10 -78h-12v184z" />
    <glyph glyph-name="Lambda" unicode="&#x39b;" horiz-adv-x="186" 
d="M78 178h27l71 -178h-23l-63 158l-58 -158h-22z" />
    <glyph glyph-name="Mu" unicode="&#x39c;" horiz-adv-x="144" 
d="M65 83l42 101l27 -8l-13 -176h-12v160h-1l-39 -119l-34 90l-13 -131h-12v184h13z" />
    <glyph glyph-name="Nu" unicode="&#x39d;" horiz-adv-x="128" 
d="M90 0l-55 137l-13 -137h-12v184h17l63 -158l1 1v157l27 -13l-15 -171h-13z" />
    <glyph glyph-name="Xi" unicode="&#x39e;" horiz-adv-x="154" 
d="M10 178h131l-83 -77h83l-85 -83h88v-18h-134l83 82h-80l80 78h-83v18z" />
    <glyph glyph-name="Omicron" unicode="&#x39f;" horiz-adv-x="186" 
d="M92 166q-57 -3 -61 -73q3 -73 63 -76q57 3 61 75q-4 71 -63 74zM94 186q77 -3 82 -93q-4 -92 -82 -94q-80 2 -84 94q4 90 84 93z" />
    <glyph glyph-name="Pi" unicode="&#x3a0;" horiz-adv-x="183" 
d="M50 158v-158h-20v158h-20v18h163v-18h-22v-158h-20v158h-81z" />
    <glyph glyph-name="Rho" unicode="&#x3a1;" horiz-adv-x="135" 
d="M10 177h60q52 -1 55 -54q-2 -51 -55 -53h-39v-70h-21v177zM31 159v-71h38q32 3 34 34q-2 36 -34 37h-38z" />
    <glyph glyph-name="Sigma" unicode="&#x3a3;" horiz-adv-x="156" 
d="M12 178h131v-18h-101l75 -72l-77 -70h106v-18h-136v18l77 70l-75 72v18z" />
    <glyph glyph-name="Tau" unicode="&#x3a4;" horiz-adv-x="172" 
d="M95 0h-21v158h-64v18h152v-18h-67v-158z" />
    <glyph glyph-name="Upsilon" unicode="&#x3a5;" horiz-adv-x="190" 
d="M10 178h26l59 -86l59 86h26l-75 -107v-71h-20v70z" />
    <glyph glyph-name="Phi" unicode="&#x3a6;" horiz-adv-x="188" 
d="M83 36v110q-52 -7 -54 -55q2 -48 54 -55zM103 0h-20v17q-71 7 -73 74q2 67 73 74v13h20v-13q73 -7 75 -75q-2 -68 -75 -74v-16zM103 146v-111q53 6 55 55q-1 49 -55 56z" />
    <glyph glyph-name="Chi" unicode="&#x3a7;" horiz-adv-x="186" 
d="M37 0h-27l70 91l-67 87h27l53 -69l53 69h27l-67 -87l70 -91h-27l-56 74z" />
    <glyph glyph-name="Psi" unicode="&#x3a8;" horiz-adv-x="186" 
d="M10 178h21q2 -67 50 -76v76h21v-77q51 8 53 77h21q-1 -87 -74 -97v-81h-21v81q-70 8 -71 97z" />
    <glyph glyph-name="Omega" unicode="&#x3a9;" horiz-adv-x="176" 
d="M17 0v19h35q-42 38 -42 87q5 70 77 74q75 -2 79 -77q-1 -52 -43 -84h35v-19h-59v23q46 33 47 79q-3 57 -59 58q-54 -3 -57 -54q-1 -43 46 -83v-23h-59z" />
    <glyph glyph-name="alpha" unicode="&#x3b1;" horiz-adv-x="158" 
d="M148 120v-22q-24 -10 -27 -37q0 -28 27 -43v-19q-26 6 -35 27q-15 -27 -51 -27q-50 4 -52 59q4 61 53 64q35 -1 50 -29q12 23 35 27zM29 58q3 -40 34 -43q38 2 39 47q-5 37 -35 41q-37 -1 -38 -45z" />
    <glyph glyph-name="beta" unicode="&#x3b2;" horiz-adv-x="139" 
d="M79 90h-32v16h11q31 3 33 38q-3 21 -28 23q-30 -1 -32 -33v-106q18 -12 38 -12q36 4 39 38q2 33 -29 36zM31 -52h-21v189q4 49 53 50q42 -1 48 -40q0 -29 -15 -41q1 0 0 0v-1q33 -9 32 -49q-4 -54 -60 -57q-19 0 -37 8v-59z" />
    <glyph glyph-name="gamma" unicode="&#x3b3;" horiz-adv-x="172" 
d="M146 113l16 -15q-60 -58 -94 -161h-21q11 35 27 69q-6 82 -64 86l8 19q57 -6 72 -76q24 43 56 78z" />
    <glyph glyph-name="delta" unicode="&#x3b4;" horiz-adv-x="129" 
d="M118 158l-8 -19q-62 34 -74 15q-2 -14 39 -34q44 -21 43 -64q-4 -54 -54 -57q-52 2 -54 59q1 41 34 56q-1 0 -2 1q-32 22 -27 43q20 45 103 0zM98 57q-4 39 -34 42q-33 -3 -35 -41q1 -39 34 -42q32 3 35 41z" />
    <glyph glyph-name="epsilon" unicode="&#x3b5;" horiz-adv-x="99" 
d="M88 113l-7 -18q-41 23 -49 -6q-1 -22 22 -23h28v-17h-29q-25 -2 -23 -21q12 -27 55 -3l4 -19q-68 -24 -78 22q-1 22 14 29q-13 14 -12 35q1 22 23 28q25 6 52 -7z" />
    <glyph glyph-name="zeta" unicode="&#x3b6;" horiz-adv-x="136" 
d="M109 168l17 -10l-37 -62q-44 26 -58 -8q-1 -13 23 -36l4 -4q31 -27 29 -43q-2 -39 -60 -32l3 20q33 -4 36 8q4 12 -16 28l-1 1q-39 34 -37 59q0 22 22 32q23 11 47 1z" />
    <glyph glyph-name="eta" unicode="&#x3b7;" horiz-adv-x="142" 
d="M132 71v-125h-20v126q-2 27 -26 28q-23 -2 -28 -26v-74h-20v87q-1 9 -4 8q-4 0 -14 -10l-10 16q19 23 34 19q7 -3 11 -15q11 15 36 15q39 -1 41 -49z" />
    <glyph glyph-name="theta" unicode="&#x3b8;" horiz-adv-x="120" 
d="M90 78h-60q5 -60 31 -62q26 0 29 62zM61 176q47 0 49 -84q-1 -93 -49 -94q-49 2 -51 94q2 82 51 84zM30 98h60q-1 57 -29 58q-27 -1 -31 -58z" />
    <glyph glyph-name="iota" unicode="&#x3b9;" horiz-adv-x="52" 
d="M10 119h20v-92q0 -8 11 -8l1 -18q-31 -3 -32 17v101z" />
    <glyph glyph-name="kappa" unicode="&#x3ba;" horiz-adv-x="123" 
d="M91 120l18 -14q-28 -21 -55 -42q5 -4 14 -11q29 -21 45 -35l-11 -18q-5 5 -16 14q-19 17 -55 44v-58h-21v120h21v-51q32 24 60 51z" />
    <glyph glyph-name="lambda" unicode="&#x3bb;" horiz-adv-x="144" 
d="M134 16l-13 -17q-16 9 -35 72l-10 30l-43 -98h-21l55 122q-7 31 -19 34q-10 3 -28 -7l-6 -3l-4 20q37 21 57 4q9 -7 30 -74q25 -81 37 -83z" />
    <glyph glyph-name="mu" unicode="&#x3bc;" horiz-adv-x="129" 
d="M10 118h20v-69q2 -30 30 -32q26 2 29 34v67h20v-73q0 -23 10 -37l-16 -10q-7 7 -10 16q-15 -15 -32 -14q-24 0 -31 11v-47h-20v154z" />
    <glyph glyph-name="nu" unicode="&#x3bd;" horiz-adv-x="122" 
d="M89 116h23q-15 -89 -60 -116h-20q-6 96 -22 104l19 14q16 -15 21 -95q33 27 39 93z" />
    <glyph glyph-name="xi" unicode="&#x3be;" horiz-adv-x="119" 
d="M104 174v-20q-59 14 -67 -20q-2 -27 32 -31h35v-19h-30q-43 -4 -44 -36q-1 -24 39 -34t40 -32q0 -25 -19 -37q-24 -11 -50 -2l4 19q40 -11 45 17q1 11 -26 17q-53 12 -52 51q0 34 29 46q-25 12 -23 46q14 50 87 35z" />
    <glyph glyph-name="omicron" unicode="&#x3bf;" horiz-adv-x="128" 
d="M63 103q-31 -3 -34 -44q2 -44 35 -45q33 2 35 44q-2 43 -36 45zM63 121q52 -2 55 -62q-2 -60 -54 -61q-52 2 -54 62q3 58 53 61z" />
    <glyph glyph-name="pi" unicode="&#x3c0;" horiz-adv-x="188" 
d="M73 101v-101h-20v101h-14q-7 0 -19 -2q-7 -1 -10 -1v18q12 2 24 3h144v-18h-43v-68q0 -10 11 -11l-1 -20q-30 0 -30 26v73h-42z" />
    <glyph glyph-name="rho" unicode="&#x3c1;" horiz-adv-x="130" 
d="M31 11v-64h-21l1 98q3 72 57 74q48 -3 52 -58q0 -61 -53 -63q-24 1 -36 13zM100 60q-3 40 -34 40q-31 -1 -34 -45q1 -36 35 -40q32 1 33 45z" />
    <glyph glyph-name="sigma" unicode="&#x3c3;" horiz-adv-x="146" 
d="M69 119h67v-19h-32q14 -17 14 -43q-2 -56 -55 -59q-51 2 -53 60q4 57 53 61q4 0 7 -1zM62 99q-31 -3 -33 -42q1 -40 34 -42q33 2 35 42q-2 40 -36 42z" />
    <glyph glyph-name="tau" unicode="&#x3c4;" horiz-adv-x="138" 
d="M96 16v-17q-30 -1 -30 18v76h-34q-5 0 -15 -2q-5 -1 -7 -1v18q2 0 7 1q10 2 15 2h96v-18h-43v-68q0 -9 11 -9z" />
    <glyph glyph-name="upsilon" unicode="&#x3c5;" horiz-adv-x="136" 
d="M14 118h21q-3 -106 33 -103q37 0 34 103h20q4 -124 -54 -121q-58 -7 -54 121z" />
    <glyph glyph-name="phi" unicode="&#x3c6;" horiz-adv-x="146" 
d="M63 17v83q-32 -8 -34 -40q1 -36 34 -43zM82 0v-52h-19v52q-52 5 -53 61q2 49 53 59v50h19v-50q51 -9 54 -61q-3 -54 -54 -59zM82 100v-83q33 6 34 42q-3 34 -34 41z" />
    <glyph glyph-name="chi" unicode="&#x3c7;" horiz-adv-x="158" 
d="M32 -46h-22l56 90q-26 57 -38 58q-5 3 -12 -1l-4 19q11 5 21 3q19 -2 45 -59l37 59h23l-50 -80q31 -69 44 -73q2 -1 5 0q2 1 4 1l7 -18q-13 -5 -22 -4q-17 2 -50 74z" />
    <glyph glyph-name="psi" unicode="&#x3c8;" horiz-adv-x="189" 
d="M15 117h19q-5 -86 50 -101v101h19v-100q56 14 50 100h20q6 -105 -70 -119v-50h-19v50q-74 11 -69 119z" />
    <glyph glyph-name="omega" unicode="&#x3c9;" horiz-adv-x="198" 
d="M65 121l3 -21q-37 -10 -38 -48q2 -35 27 -37q30 4 32 43v21h20v-20q2 -41 32 -44q24 5 26 40q0 31 -37 45l2 21q54 -14 56 -66q-2 -54 -45 -57q-31 0 -44 21q-17 -23 -44 -21q-44 2 -45 57q4 53 55 66z" />
    <glyph glyph-name="afii10023" unicode="&#x401;" horiz-adv-x="148" 
d="M138 0h-128v177h124v-19h-102v-57h93v-20h-93v-61h106v-20zM41 189v27h20v-27h-20zM84 189v27h21v-27h-21z" />
    <glyph glyph-name="afii10017" unicode="&#x410;" horiz-adv-x="180" 
d="M10 0l66 178h27l67 -178h-24l-18 46h-77l-17 -46h-24zM89 153l-32 -87h64z" />
    <glyph glyph-name="afii10018" unicode="&#x411;" horiz-adv-x="156" 
d="M10 0v176h124v-20h-103v-52h56q56 -1 59 -50q-2 -53 -54 -54h-82zM88 85h-57v-66h60q31 1 33 34q0 29 -36 32z" />
    <glyph glyph-name="afii10019" unicode="&#x412;" horiz-adv-x="158" 
d="M10 0v178h86q38 -2 43 -42q-2 -31 -27 -42q33 -10 36 -43q-2 -49 -54 -51h-84zM88 158h-57v-56h49q32 1 35 32q-2 23 -27 24zM88 82h-57v-62h57q35 2 37 30q-3 30 -37 32z" />
    <glyph glyph-name="afii10020" unicode="&#x413;" horiz-adv-x="132" 
d="M32 0h-22v177h112v-20h-90v-157z" />
    <glyph glyph-name="afii10021" unicode="&#x414;" horiz-adv-x="203" 
d="M60 136v42h106v-158h27l-1 -59h-21v39h-139v-39h-20l-2 59h18q32 38 32 116zM145 20v139h-63v-21q0 -79 -28 -118h91z" />
    <glyph glyph-name="afii10022" unicode="&#x415;" horiz-adv-x="148" 
d="M138 0h-128v177h124v-19h-102v-57h93v-20h-93v-61h106v-20z" />
    <glyph glyph-name="afii10024" unicode="&#x416;" horiz-adv-x="256" 
d="M95 96l-80 82h30l73 -77v77h22v-77l75 77h28l-80 -83l83 -95h-30l-76 90v-90h-22v90l-78 -90h-30z" />
    <glyph glyph-name="afii10025" unicode="&#x417;" horiz-adv-x="166" 
d="M37 131h-22q4 52 67 53q61 -1 66 -46q1 -32 -26 -41q-1 -2 0 -2q34 -8 34 -44q-3 -51 -73 -53q-66 2 -73 58h22q4 -36 51 -40q49 3 51 34q-3 34 -40 37h-28v19h24q35 3 35 31q-2 26 -43 27q-41 0 -45 -33z" />
    <glyph glyph-name="afii10026" unicode="&#x418;" horiz-adv-x="160" 
d="M10 0v178h22v-141l95 141h23v-177h-22v144l-96 -145h-22z" />
    <glyph glyph-name="afii10027" unicode="&#x419;" horiz-adv-x="160" 
d="M10 0v178h22v-141l95 141h23v-177h-22v144l-96 -145h-22zM36 225h20q1 -18 25 -17q21 0 23 17h20q-7 -33 -44 -35q-41 1 -44 35z" />
    <glyph glyph-name="afii10028" unicode="&#x41a;" horiz-adv-x="157" 
d="M10 0v179h22v-79l80 78h2h28l-84 -82l89 -96h-29l-86 92v-92h-22z" />
    <glyph glyph-name="afii10029" unicode="&#x41b;" horiz-adv-x="174" 
d="M55 177h109v-177h-21v158h-66v-52q0 -62 -14 -82q-14 -24 -53 -24v21q29 0 38 23q5 11 6 30q2 16 1 56v47z" />
    <glyph glyph-name="afii10030" unicode="&#x41c;" horiz-adv-x="198" 
d="M10 0v178h32l58 -145l55 145h33v-178h-21v150l-59 -150h-17l-60 148v-148h-21z" />
    <glyph glyph-name="afii10031" unicode="&#x41d;" horiz-adv-x="154" 
d="M32 84v-84h-22v178h22v-74h90v74h22v-178h-22v84h-90z" />
    <glyph glyph-name="afii10032" unicode="&#x41e;" horiz-adv-x="188" 
d="M93 165q-57 -3 -60 -71q2 -74 60 -76q61 2 62 73q-3 72 -62 74zM94 186q80 -3 84 -93q-2 -93 -85 -94q-79 4 -83 94q5 89 84 93z" />
    <glyph glyph-name="afii10033" unicode="&#x41f;" horiz-adv-x="156" 
d="M10 0v178h136v-178h-22v158h-92v-158h-22z" />
    <glyph glyph-name="afii10034" unicode="&#x420;" horiz-adv-x="152" 
d="M10 0v177h72q55 -2 60 -51q0 -54 -57 -56h-53v-70h-22zM81 158h-49v-68h51q35 0 35 34q-4 33 -37 34z" />
    <glyph glyph-name="afii10035" unicode="&#x421;" horiz-adv-x="180" 
d="M147 60h23q-11 -63 -80 -62q-78 4 -80 95q4 91 87 93q62 -3 71 -62h-23q-9 40 -48 41q-63 0 -65 -72q3 -73 58 -77q51 2 57 44z" />
    <glyph glyph-name="afii10036" unicode="&#x422;" horiz-adv-x="158" 
d="M68 0v157h-58v20h138v-20h-59v-157h-21z" />
    <glyph glyph-name="afii10037" unicode="&#x423;" horiz-adv-x="162" 
d="M76 46l-66 131h25l53 -104l41 104h23l-58 -146q-12 -26 -21 -31q-16 -4 -43 2v21q21 -6 32 -1q7 5 14 24z" />
    <glyph glyph-name="afii10038" unicode="&#x424;" horiz-adv-x="229" 
d="M103 195h22v-27q91 -2 90 -70q4 -69 -90 -71v-27h-22v27q-93 0 -90 71q-1 67 90 70v27zM103 47v101q-69 -2 -68 -51q-3 -49 68 -50zM125 148v-101q72 1 68 50q1 47 -68 51z" />
    <glyph glyph-name="afii10039" unicode="&#x425;" horiz-adv-x="172" 
d="M71 90l-59 89h26l47 -71l47 71h26l-59 -88l63 -91h-27l-50 74l-49 -73h-26z" />
    <glyph glyph-name="afii10040" unicode="&#x426;" horiz-adv-x="180" 
d="M10 0v177h21v-158h93v158h21v-158h25l-1 -56h-20v37h-139z" />
    <glyph glyph-name="afii10041" unicode="&#x427;" horiz-adv-x="143" 
d="M11 131v47h21v-47q0 -22 15 -30q4 -2 24 -2q24 0 41 1v78h21v-178h-21v80q-64 -6 -77 2q-25 11 -24 49z" />
    <glyph glyph-name="afii10042" unicode="&#x428;" horiz-adv-x="230" 
d="M220 0h-210v177h21v-157h73v157h21v-157h74v156h21v-176z" />
    <glyph glyph-name="afii10043" unicode="&#x429;" horiz-adv-x="260" 
d="M228 0h-218v177h21v-158h75v158h21v-158h75v158h22v-157h26l-2 -57h-20v37z" />
    <glyph glyph-name="afii10044" unicode="&#x42a;" horiz-adv-x="198" 
d="M79 19h48q37 0 39 38q-2 30 -37 31h-50v-69zM79 177v-69h53q51 -1 56 -50q-3 -56 -59 -58h-72v158h-47v19h69z" />
    <glyph glyph-name="afii10045" unicode="&#x42b;" horiz-adv-x="202" 
d="M170 178h22v-178h-22v178zM10 0v177h22v-71h54q53 -1 56 -53q-3 -52 -59 -53h-73zM32 19h49q36 0 38 34q-3 33 -36 34h-51v-68z" />
    <glyph glyph-name="afii10046" unicode="&#x42c;" horiz-adv-x="152" 
d="M10 0v177h22v-71h53q55 -1 57 -52q-2 -53 -60 -54h-72zM32 19h49q36 1 39 35q-2 33 -37 34h-51v-69z" />
    <glyph glyph-name="afii10047" unicode="&#x42d;" horiz-adv-x="180" 
d="M37 128h-25q16 56 78 57q73 -4 80 -93q-5 -92 -80 -95q-72 1 -80 62h25q4 -41 54 -42q53 3 58 67h-87v19h87q-10 59 -56 61q-45 -2 -54 -36z" />
    <glyph glyph-name="afii10048" unicode="&#x42e;" horiz-adv-x="236" 
d="M142 165q-56 -4 -62 -71q2 -77 63 -79q58 4 61 78q-3 68 -62 72zM58 86h-27v-84h-21v178h21v-75h28q11 76 84 79q77 -4 83 -91q-4 -93 -84 -95q-78 1 -84 88z" />
    <glyph glyph-name="afii10049" unicode="&#x42f;" horiz-adv-x="155" 
d="M38 0h-27l45 72q-45 5 -46 54q2 51 58 52h77v-178h-21v71h-43zM124 158h-53q-37 -1 -39 -33q1 -33 37 -34h55v67z" />
    <glyph glyph-name="afii10065" unicode="&#x430;" horiz-adv-x="144" 
d="M121 91v-63q3 -11 13 -9v-18h-16q-16 -1 -17 17q-18 -18 -45 -20q-43 2 -46 34q0 22 17 34q14 9 43 10q26 1 29 12q0 30 -31 30t-31 -25h-22q7 44 53 43q51 -2 53 -45zM100 51v16q-9 -5 -24 -6q-9 -1 -13 -2q-30 -5 -29 -26q3 -21 37 -16q25 8 29 34z" />
    <glyph glyph-name="afii10066" unicode="&#x431;" horiz-adv-x="148" 
d="M109 187h18q-1 -20 -25 -28q-2 0 -9 -1q-28 -2 -40 -6q-25 -6 -26 -47q18 25 48 25q61 -1 63 -63q-2 -68 -63 -69q-61 3 -65 74v22q1 58 33 74q6 4 35 8q12 1 17 2q15 4 14 9zM33 63q3 -44 42 -50q40 1 40 52q-2 47 -41 48q-38 -2 -41 -50z" />
    <glyph glyph-name="afii10067" unicode="&#x432;" horiz-adv-x="127" 
d="M10 0v131h68q32 -2 34 -32q0 -23 -19 -31q24 -8 23 -32q-1 -34 -39 -36h-67zM66 115h-36v-38h41q19 2 20 21q-2 16 -25 17zM70 60h-40v-44h39q25 2 26 20q-2 23 -25 24z" />
    <glyph glyph-name="afii10068" unicode="&#x433;" horiz-adv-x="108" 
d="M31 114v-114h-21v130h88v-16h-67z" />
    <glyph glyph-name="afii10069" unicode="&#x434;" horiz-adv-x="172" 
d="M47 95v35h92v-114h23l-2 -47h-19v31h-111v-31h-18l-2 47h17q20 31 20 79zM50 16h69v98h-52v-22q-1 -49 -17 -76z" />
    <glyph glyph-name="afii10070" unicode="&#x435;" horiz-adv-x="142" 
d="M132 60h-100q3 -41 38 -47q32 2 38 26h22q-8 -40 -60 -41q-58 3 -60 72q5 63 60 66q62 0 62 -76zM32 77h77q-4 41 -39 42q-36 -2 -38 -42z" />
    <glyph glyph-name="afii10072" unicode="&#x436;" horiz-adv-x="201" 
d="M68 70l-56 61h28l51 -57v57h20v-57l50 57h27l-56 -61l59 -70h-26l-55 66v-66h-19v66l-54 -66h-27l58 69v1z" />
    <glyph glyph-name="afii10073" unicode="&#x437;" horiz-adv-x="132" 
d="M34 95h-21q6 38 53 40q48 -1 51 -34q1 -26 -22 -33q24 -3 27 -30q-2 -38 -52 -39q-57 0 -60 43h21q2 -27 38 -28q30 1 31 23q-2 23 -26 23h-23v17h25q16 2 19 20q0 21 -29 21q-28 -2 -32 -23z" />
    <glyph glyph-name="afii10074" unicode="&#x438;" horiz-adv-x="132" 
d="M33 0h-23v131h21v-102l68 102h23v-131h-21v103z" />
    <glyph glyph-name="afii10075" unicode="&#x439;" horiz-adv-x="132" 
d="M21 180h18q3 -20 26 -20q23 1 26 20h19q-7 -34 -45 -35q-39 1 -44 35zM33 0h-23v131h21v-102l68 102h23v-131h-21v103z" />
    <glyph glyph-name="afii10076" unicode="&#x43a;" horiz-adv-x="128" 
d="M10 0v131h21v-60l55 60h27l-59 -63l64 -68h-29l-58 64v-64h-21z" />
    <glyph glyph-name="afii10077" unicode="&#x43b;" horiz-adv-x="142" 
d="M43 104v27h89v-130h-21v113h-47v-23q-1 -62 -10 -74q-9 -17 -44 -16v18q24 1 28 16q6 10 5 69z" />
    <glyph glyph-name="afii10078" unicode="&#x43c;" horiz-adv-x="166" 
d="M31 0h-21v131h30l44 -103l44 103h28v-131h-21v102l-43 -102h-17l-44 103v-103z" />
    <glyph glyph-name="afii10079" unicode="&#x43d;" horiz-adv-x="128" 
d="M10 0v131h21v-54h66v54h21v-131h-21v61h-66v-61h-21z" />
    <glyph glyph-name="afii10080" unicode="&#x43e;" horiz-adv-x="144" 
d="M71 120q-36 -3 -39 -53q2 -50 41 -52q36 2 39 52q-2 50 -41 53zM73 137q58 -3 61 -70q-3 -66 -63 -68q-58 2 -61 68q4 66 63 70z" />
    <glyph glyph-name="afii10081" unicode="&#x43f;" horiz-adv-x="128" 
d="M10 0v130h108v-130h-20v113h-68v-113h-20z" />
    <glyph glyph-name="afii10082" unicode="&#x440;" horiz-adv-x="142" 
d="M31 133v-17q21 23 46 22q50 -3 55 -67q-2 -71 -58 -73q-29 1 -44 22v-64h-20v177h21zM110 70q-4 49 -36 51q-42 -1 -43 -54q4 -52 43 -55q34 7 36 58z" />
    <glyph glyph-name="afii10083" unicode="&#x441;" horiz-adv-x="140" 
d="M107 48h23q-7 -50 -59 -50q-59 1 -61 69q2 69 65 70q46 -3 53 -46h-22q-5 26 -31 28q-41 -1 -43 -53q2 -48 39 -52q33 0 36 34z" />
    <glyph glyph-name="afii10084" unicode="&#x442;" horiz-adv-x="132" 
d="M10 115v16h112v-16h-47v-115h-20v115h-45z" />
    <glyph glyph-name="afii10085" unicode="&#x443;" horiz-adv-x="146" 
d="M67 1l-57 130h25l43 -104l35 104h23l-54 -150q-11 -29 -18 -27q-17 -2 -33 2v19q17 -4 25 1q4 4 11 25z" />
    <glyph glyph-name="afii10086" unicode="&#x444;" horiz-adv-x="200" 
d="M90 15v103q-60 -3 -58 -52q-1 -50 58 -51zM90 135v46h21v-46q79 -4 79 -69t-79 -67v-43h-21v43q-79 1 -80 67q1 66 80 69zM111 118v-103q57 4 57 52q1 47 -57 51z" />
    <glyph glyph-name="afii10087" unicode="&#x445;" horiz-adv-x="144" 
d="M35 0h-25l49 69l-46 63h25l33 -46l33 46h25l-45 -63l50 -69h-26l-37 51z" />
    <glyph glyph-name="afii10088" unicode="&#x446;" horiz-adv-x="152" 
d="M10 0v131h20v-114h68v114h20v-114h24l-2 -47h-18v30h-112z" />
    <glyph glyph-name="afii10089" unicode="&#x447;" horiz-adv-x="118" 
d="M10 83v48h21v-45q0 -14 23 -14h33v59h21v-131h-21v53h-35q-42 -1 -42 30z" />
    <glyph glyph-name="afii10090" unicode="&#x448;" horiz-adv-x="194" 
d="M10 0v131h21v-114h56v114h20v-114h56v114h21v-131h-174z" />
    <glyph glyph-name="afii10091" unicode="&#x449;" horiz-adv-x="214" 
d="M184 0h-174v131h20v-114h56v114h20v-114h55v114h21v-114h22l-2 -45h-18v28z" />
    <glyph glyph-name="afii10092" unicode="&#x44a;" horiz-adv-x="160" 
d="M44 0v112h-34v16h55v-50h45q38 -1 40 -39q-1 -38 -40 -39h-66zM108 61h-43v-45h41q24 0 24 22q0 23 -22 23z" />
    <glyph glyph-name="afii10093" unicode="&#x44b;" horiz-adv-x="164" 
d="M154 0h-21v129h21v-129zM10 0v129h21v-51h44q38 -1 41 -38q-2 -39 -41 -40h-65zM72 62h-41v-46h41q21 1 22 24q-2 21 -22 22z" />
    <glyph glyph-name="afii10094" unicode="&#x44c;" horiz-adv-x="126" 
d="M10 0v129h21v-51h44q38 -1 41 -38q-3 -39 -41 -40h-65zM72 62h-41v-46h41q20 2 22 23q-2 22 -22 23z" />
    <glyph glyph-name="afii10095" unicode="&#x44d;" horiz-adv-x="140" 
d="M32 90h-22q9 45 59 47q57 -4 61 -69q-1 -67 -61 -69q-54 1 -59 48h22q3 -30 37 -33q36 3 39 47h-57v17h56q-6 40 -38 41q-29 -1 -37 -29z" />
    <glyph glyph-name="afii10096" unicode="&#x44e;" horiz-adv-x="186" 
d="M115 119q-37 -2 -40 -52q0 -51 40 -53q38 2 39 52q-2 52 -39 53zM53 62h-23v-60h-20v129h20v-53h23q9 57 62 59q58 -2 61 -71q-2 -66 -61 -68q-57 2 -62 64z" />
    <glyph glyph-name="afii10097" unicode="&#x44f;" horiz-adv-x="126" 
d="M50 131h66v-131h-20v53h-30l-32 -53h-24l34 54q-32 6 -33 38q1 39 39 39zM96 114h-42q-19 -2 -22 -22q3 -21 23 -23h41v45z" />
    <glyph glyph-name="afii10071" unicode="&#x451;" horiz-adv-x="142" 
d="M132 60h-100q3 -42 38 -47q32 2 38 25h22q-8 -39 -60 -40q-58 3 -60 71q5 64 60 66q62 0 62 -75zM32 76h77q-4 41 -39 42q-36 -2 -38 -42zM41 179q9 -1 10 -11q-1 -9 -10 -10q-10 1 -11 10q1 10 11 11zM97 179q10 -1 11 -11q-1 -9 -11 -10q-9 1 -10 10q1 10 10 11z" />
    <glyph glyph-name="emdash" unicode="&#x2014;" horiz-adv-x="274" 
d="M10 92h254v-10h-254v10z" />
    <glyph glyph-name="uni2016" unicode="&#x2016;" horiz-adv-x="76" 
d="M21 -26h-11v234h11v-234zM66 -26h-11v234h11v-234z" />
    <glyph glyph-name="quoteleft" unicode="&#x2018;" horiz-adv-x="50" 
d="M10 125v49q2 28 30 31v-10q-19 -2 -20 -21v-15h17v-34h-27z" />
    <glyph glyph-name="quoteright" unicode="&#x2019;" horiz-adv-x="50" 
d="M40 205v-48q-1 -29 -30 -32v9q19 2 20 23v12h-17v36h27z" />
    <glyph glyph-name="quotedblleft" unicode="&#x201c;" horiz-adv-x="78" 
d="M49 138v36q2 20 19 23v-11q-6 -4 -7 -14v-10h7v-24h-19zM10 138v36q2 20 19 23v-11q-8 -2 -8 -14v-10h8v-24h-19z" />
    <glyph glyph-name="quotedblright" unicode="&#x201d;" horiz-adv-x="78" 
d="M29 197v-36q-2 -21 -19 -24v11q7 6 7 15v10h-7v24h19zM68 197v-36q-2 -21 -19 -24v11q8 4 8 15v10h-8v24h19z" />
    <glyph glyph-name="ellipsis" unicode="&#x2026;" horiz-adv-x="218" 
d="M196 98q11 -1 12 -12q-1 -12 -12 -13q-12 1 -13 13q2 11 13 12zM23 98q11 -1 12 -12q-1 -12 -12 -13q-12 1 -13 13q2 11 13 12zM108 98q10 -1 11 -12q-1 -12 -11 -13q-12 1 -13 13q2 11 13 12z" />
    <glyph glyph-name="perthousand" unicode="&#x2030;" horiz-adv-x="172" 
d="M109 24q3 45 32 47q20 -1 21 -25q-3 -46 -32 -47q-21 0 -21 25zM120 22q0 -17 11 -17q17 2 20 41q0 17 -11 17q-18 -1 -20 -41zM104 188h11l-94 -188h-11zM18 142q3 44 32 46q20 0 21 -25q-3 -47 -32 -49q-21 0 -21 28zM29 140q0 -18 11 -18q18 1 20 41q0 17 -11 17
q-17 -2 -20 -40zM50 24q3 45 32 47q20 -1 21 -25q-3 -46 -32 -47q-21 0 -21 25zM61 22q0 -17 11 -17q18 1 20 41q0 17 -11 17q-17 -2 -20 -41z" />
    <glyph glyph-name="minute" unicode="&#x2032;" horiz-adv-x="75" 
d="M62 171l-41 -52q-3 -3 -7 -1t-2 6l27 61q3 6 17 1q9 -10 6 -15z" />
    <glyph glyph-name="second" unicode="&#x2033;" horiz-adv-x="124" 
d="M58 167l-39 -49q-7 -4 -9 5l25 56q6 11 19 6q12 -8 4 -18zM108 170l-41 -51q-3 -3 -6 -1t-2 6l26 57q5 10 18 5q11 -8 5 -16z" />
    <glyph glyph-name="uni203B" unicode="&#x203b;" horiz-adv-x="197" 
d="M10 12l81 81l-77 77q-4 4 -1 8q4 3 8 -1l77 -77l80 80q3 3 6 -1q2 -4 -1 -8l-78 -78l79 -79q3 -8 -6 -8l-80 80l-80 -80q-8 -3 -8 6zM31 112q17 -2 19 -19q-2 -17 -19 -19q-17 2 -19 19q1 18 19 19zM98 43q17 -2 19 -19q-2 -17 -19 -19q-17 2 -19 19q1 18 19 19zM164 112
q17 -2 19 -19q-2 -17 -19 -19q-17 2 -19 19q1 18 19 19zM98 181q17 -2 19 -19q-2 -17 -19 -19q-17 2 -19 19q1 18 19 19z" />
    <glyph glyph-name="uni2103" unicode="&#x2103;" horiz-adv-x="218" 
d="M10 164q4 45 49 49q45 -4 49 -49q-5 -46 -49 -50q-44 4 -49 50zM20 164q4 -35 39 -39q35 4 39 39q-3 34 -39 38q-36 -4 -39 -38zM206 150h-12q-4 26 -31 28q-46 0 -46 -87q-1 -84 45 -84q32 3 34 33h12q-5 -41 -47 -42q-29 0 -42 22q-15 25 -15 70q0 53 18 78
q15 20 41 20q37 -2 43 -38z" />
    <glyph glyph-name="afii61352" unicode="&#x2116;" horiz-adv-x="220" 
d="M90 0l-68 168v-1v-167h-12v184h17l63 -158l1 1v157h12v-184h-13zM162 17q-23 1 -36 18q-11 16 -11 42q1 56 47 59q47 -2 48 -59q0 -27 -10 -40q-13 -20 -38 -20zM162 26q36 0 37 51q-1 51 -37 51q-35 0 -36 -51q1 -51 36 -51zM193 0h-59v10h59v-10z" />
    <glyph glyph-name="uni2160" unicode="&#x2160;" horiz-adv-x="38" 
d="M28 1h-18v185h18v-185z" />
    <glyph glyph-name="uni2161" unicode="&#x2161;" horiz-adv-x="96" 
d="M28 1h-18v185h18v-185zM86 1h-18v185h18v-185z" />
    <glyph glyph-name="uni2162" unicode="&#x2162;" horiz-adv-x="110" 
d="M64 1h-18v185h18v-185zM28 0h-18v185h18v-185zM100 1h-18v185h18v-185z" />
    <glyph glyph-name="uni2163" unicode="&#x2163;" horiz-adv-x="202" 
d="M28 1h-18v185h17zM109 1l-64 185h18l55 -164l56 164h18l-64 -185h-19z" />
    <glyph glyph-name="uni2164" unicode="&#x2164;" horiz-adv-x="167" 
d="M74 1l-64 185h18l56 -164l55 164h18l-64 -185h-19z" />
    <glyph glyph-name="uni2165" unicode="&#x2165;" horiz-adv-x="202" 
d="M74 1l-64 185h18l55 -164l56 164h18l-64 -185h-19zM192 1h-17v185h17v-185z" />
    <glyph glyph-name="uni2166" unicode="&#x2166;" horiz-adv-x="234" 
d="M188 1h-17v185h17v-185zM74 1l-64 185h18l55 -164l56 164h18l-64 -185h-19zM224 1h-17v185h17v-185z" />
    <glyph glyph-name="uni2167" unicode="&#x2167;" horiz-adv-x="252" 
d="M74 1l-64 185h18l55 -164l56 164h18l-64 -185h-19zM183 1h-17v185h17v-185zM213 1h-18v185h18v-185zM242 1h-17v185h17v-185z" />
    <glyph glyph-name="uni2168" unicode="&#x2168;" horiz-adv-x="206" 
d="M27 1h-17v184h17v-184zM176 0l-54 82l-53 -82h-20l63 95l-60 90h20l50 -78l51 78h20l-60 -90l63 -95h-20z" />
    <glyph glyph-name="uni2169" unicode="&#x2169;" horiz-adv-x="166" 
d="M137 1l-54 82l-54 -82h-19l63 95l-61 90h20l51 -78l50 78h21l-61 -90l63 -95h-19z" />
    <glyph glyph-name="uni216A" unicode="&#x216a;" horiz-adv-x="202" 
d="M137 1l-54 82l-53 -82h-20l64 95l-61 90h20l50 -78l51 78h20l-60 -90l63 -95h-20zM192 1h-18v185h18v-185z" />
    <glyph glyph-name="uni216B" unicode="&#x216b;" horiz-adv-x="242" 
d="M137 1l-54 82l-53 -82h-20l64 95l-61 90h20l50 -78l51 78h20l-60 -90l63 -95h-20zM192 1h-18v185h18v-185zM232 1h-18v185h18v-185z" />
    <glyph glyph-name="uni2170" unicode="&#x2170;" horiz-adv-x="36" 
d="M26 1h-16v133h16v-133zM26 163h-16v23h16v-23z" />
    <glyph glyph-name="uni2171" unicode="&#x2171;" horiz-adv-x="94" 
d="M26 1h-15v133h15v-133zM27 163h-17v23h17v-23zM83 1h-15v133h15v-133zM84 163h-17v23h17v-23z" />
    <glyph glyph-name="uni2172" unicode="&#x2172;" horiz-adv-x="102" 
d="M58 1h-15v133h15v-133zM59 163h-17v23h17v-23zM26 0h-15v133h15v-133zM27 162h-17v23h17v-23zM91 1h-15v133h15v-133zM92 163h-17v23h17v-23z" />
    <glyph glyph-name="uni2173" unicode="&#x2173;" horiz-adv-x="182" 
d="M26 2h-15v132h15v-132zM27 163h-17v23h17v-23zM104 1l-51 133h16l44 -114l43 114h16l-51 -133h-17z" />
    <glyph glyph-name="uni2174" unicode="&#x2174;" horiz-adv-x="140" 
d="M61 1l-51 132h17l43 -114l43 114h17l-52 -132h-17z" />
    <glyph glyph-name="uni2175" unicode="&#x2175;" horiz-adv-x="182" 
d="M61 1l-51 133h17l43 -114l43 114l16 -1l-51 -132h-17zM171 1h-15v133h15v-133zM172 163h-17v23h17v-23z" />
    <glyph glyph-name="uni2176" unicode="&#x2176;" horiz-adv-x="226" 
d="M174 2h-15v132h15v-132zM175 163h-17v23h17v-23zM61 1l-51 133h17l43 -114l43 114h17l-52 -133h-17zM215 2h-15v132h15v-132zM216 163h-17v23h17v-23z" />
    <glyph glyph-name="uni2177" unicode="&#x2177;" horiz-adv-x="230" 
d="M60 1l-50 133h16l43 -114l43 114h17l-51 -133h-18zM156 2h-15v132h15v-132zM157 163h-17v23h17v-23zM188 2h-16v132h16v-132zM188 163h-16v23h16v-23zM219 2h-15v132h15v-132zM220 163h-17v23h17v-23z" />
    <glyph glyph-name="uni2178" unicode="&#x2178;" horiz-adv-x="180" 
d="M26 2h-16v132h16v-132zM27 163h-17v23h17v-23zM152 2l-40 57l-41 -57h-19l51 68l-47 64h19l37 -53l37 53h20l-48 -64l49 -68h-18z" />
    <glyph glyph-name="uni2179" unicode="&#x2179;" horiz-adv-x="138" 
d="M110 2l-40 57l-42 -57h-18l51 68l-47 64h19l36 -53l38 53h19l-48 -64l50 -68h-18z" />
    <glyph glyph-name="arrowleft" unicode="&#x2190;" horiz-adv-x="276" 
d="M266 94v-8h-210q20 -22 20 -46q-27 36 -66 51q38 14 66 49q-1 -27 -20 -46h210z" />
    <glyph glyph-name="arrowup" unicode="&#x2191;" horiz-adv-x="120" 
d="M64 -36h-8v207q-24 -20 -46 -19q36 26 50 66q13 -38 50 -66q-28 1 -46 19v-207z" />
    <glyph glyph-name="arrowright" unicode="&#x2192;" horiz-adv-x="276" 
d="M10 94h210q-18 17 -20 46q28 -35 66 -49q-39 -15 -66 -51q0 23 20 46h-210v8z" />
    <glyph glyph-name="arrowdown" unicode="&#x2193;" horiz-adv-x="120" 
d="M64 218v-210q20 19 46 19q-36 -26 -50 -63q-14 37 -50 63q20 2 46 -19v210h8z" />
    <glyph glyph-name="element" unicode="&#x2208;" horiz-adv-x="178" 
d="M168 24v-15h-92q-65 2 -66 78q1 77 66 78h92v-14h-94q-46 -3 -47 -56h136v-14h-136q0 -57 46 -57h95z" />
    <glyph glyph-name="product" unicode="&#x220f;" horiz-adv-x="220" 
d="M185 161v-160q-1 -20 25 -19v-6h-79v6q26 -1 25 19v177h-92v-177q-1 -20 25 -19v-6h-79v6q26 -1 25 19v160q0 25 -24 25v6h198v-6q-24 0 -24 -25z" />
    <glyph glyph-name="summation" unicode="&#x2211;" horiz-adv-x="194" 
d="M164 190l2 -40h-6q0 1 -1 4q-4 26 -38 25h-67l70 -92l-75 -87h95q24 -2 34 29h6q-1 -6 -4 -15q-5 -19 -7 -40q-2 0 -7 1q-8 2 -13 2h-128q-3 0 -8 -1h-7l89 100l-89 116q14 -2 27 -2h127z" />
    <glyph glyph-name="radical" unicode="&#x221a;" horiz-adv-x="276" 
d="M134 0l128 218h4v-11l-136 -234h-6l-82 154l-29 -16l-3 9l47 26z" />
    <glyph glyph-name="proportional" unicode="&#x221d;" horiz-adv-x="182" 
d="M10 82q3 46 42 48q27 0 41 -36q17 35 50 34q24 -1 27 -7q0 -5 -3 -5q-2 0 -7 1h-8q-33 3 -51 -41q18 -28 49 -27q4 0 10 1q4 1 6 1q6 0 6 -3q-7 -11 -29 -12q-33 0 -45 33q-16 -36 -45 -35q-41 2 -43 48zM18 80q1 -30 30 -31q22 0 38 35q2 3 3 5q-12 25 -37 25
q-32 -2 -34 -34z" />
    <glyph glyph-name="infinity" unicode="&#x221e;" horiz-adv-x="190" 
d="M95 76q2 1 4 4q18 16 29 20q40 12 52 -29q-2 -38 -38 -39q-22 3 -43 24q-3 2 -4 3q-1 -1 -4 -3q-20 -22 -43 -24q-36 1 -38 39q12 41 52 29q11 -5 29 -20q2 -3 4 -4zM87 68q-21 18 -31 20q-28 8 -33 -22q5 -25 30 -21q13 3 29 19q3 2 5 4zM103 68q2 -2 5 -4
q16 -18 29 -19q25 -4 30 21q-5 30 -33 22q-10 -2 -31 -20z" />
    <glyph glyph-name="angle" unicode="&#x2220;" horiz-adv-x="194" 
d="M10 1l121 160l9 -6l-109 -144h153v-10h-174z" />
    <glyph glyph-name="uni2225" unicode="&#x2225;" horiz-adv-x="232" 
d="M96 -30h-9l126 248h9zM19 -30h-9l126 248h9z" />
    <glyph glyph-name="logicaland" unicode="&#x2227;" horiz-adv-x="164" 
d="M154 -6h-13l-56 184l-62 -182h-13l67 198h16z" />
    <glyph glyph-name="logicalor" unicode="&#x2228;" horiz-adv-x="164" 
d="M23 192l59 -187l60 187h12l-64 -201h-16l-64 201h13z" />
    <glyph glyph-name="intersection" unicode="&#x2229;" horiz-adv-x="176" 
d="M151 0v92q-1 57 -63 59q-62 -2 -63 -59v-92h-15v92q2 72 78 74q76 -2 78 -74v-92h-15z" />
    <glyph glyph-name="union" unicode="&#x222a;" horiz-adv-x="176" 
d="M151 68v93h15v-91q-1 -72 -78 -73q-77 1 -78 73v91h15v-93q1 -57 63 -58q62 1 63 58z" />
    <glyph glyph-name="integral" unicode="&#x222b;" horiz-adv-x="82" 
d="M35 35l3 84q3 57 26 58q8 0 8 -7q0 -5 -5 -5q-3 0 -6 4q-2 2 -3 2q-8 3 -11 -51l-3 -86q-2 -85 -27 -81q-7 0 -7 7q0 5 5 5q3 0 6 -4q1 -2 2 -2q10 -5 12 76z" />
    <glyph glyph-name="uni222E" unicode="&#x222e;" horiz-adv-x="82" 
d="M46 89l-1 -48q20 3 21 24q-1 20 -20 24zM35 42l2 47q-19 -4 -20 -24q1 -19 18 -23zM47 120v-25q24 -5 25 -30q-2 -26 -28 -30v-1q-1 -34 -5 -54q-5 -27 -22 -27q-7 0 -7 7q0 5 5 5q3 0 6 -4q1 -2 2 -2q10 0 12 57v19q-23 6 -24 30q1 25 26 30l2 24q2 57 25 58q8 0 8 -7
q0 -5 -5 -5q-3 0 -6 4q-2 2 -3 2q-10 2 -11 -51z" />
    <glyph glyph-name="therefore" unicode="&#x2234;" horiz-adv-x="158" 
d="M10 17q1 14 17 16q15 -1 16 -16q-1 -16 -16 -17q-16 1 -17 17zM115 17q1 15 16 16q16 -2 17 -16q-1 -16 -17 -17q-15 1 -16 17zM62 106q1 14 17 16q16 -2 17 -16q-2 -15 -17 -17q-15 2 -17 17z" />
    <glyph glyph-name="uni2235" unicode="&#x2235;" horiz-adv-x="158" 
d="M10 105q2 15 17 17q14 -1 16 -17q-2 -16 -16 -17q-15 2 -17 17zM115 105q2 16 16 17q15 -2 17 -17q-2 -15 -17 -17q-14 1 -16 17zM62 17q2 15 17 17q15 -2 17 -17q-2 -15 -17 -17q-15 2 -17 17z" />
    <glyph glyph-name="uni2236" unicode="&#x2236;" horiz-adv-x="54" 
d="M10 47q1 17 17 18q15 -2 17 -18q-2 -15 -17 -17q-16 1 -17 17zM10 137q1 16 17 17q15 -2 17 -17q-1 -16 -17 -17q-16 1 -17 17z" />
    <glyph glyph-name="uni2237" unicode="&#x2237;" horiz-adv-x="132" 
d="M109 140q12 -1 13 -13q-2 -12 -13 -13q-11 1 -13 13q1 12 13 13zM109 49q11 -1 13 -12q-1 -12 -13 -13q-12 1 -13 13q2 11 13 12zM23 140q12 -1 13 -13q-2 -12 -13 -13q-11 1 -13 13q1 12 13 13zM23 49q11 -1 13 -12q-1 -12 -13 -13q-12 1 -13 13q2 11 13 12z" />
    <glyph glyph-name="uni223D" unicode="&#x223d;" horiz-adv-x="216" 
d="M206 49h-11q-2 53 -40 55q-18 0 -43 -26q-28 -29 -50 -29q-50 0 -52 66h10q1 -54 40 -55q20 0 46 27q27 28 49 28q49 -2 51 -66z" />
    <glyph glyph-name="approxequal" unicode="&#x2248;" horiz-adv-x="188" 
d="M178 118v-14q-22 -18 -42 -17q-16 0 -44 11q-26 10 -39 10q-20 0 -43 -19v13q23 19 42 18q16 0 44 -11q26 -10 39 -10q20 0 43 19zM178 80v-14q-22 -18 -42 -17q-16 0 -44 11q-26 9 -39 9q-20 0 -43 -19v14q22 18 42 17q16 0 44 -11q26 -10 39 -10q19 0 43 20z" />
    <glyph glyph-name="uni224C" unicode="&#x224c;" horiz-adv-x="224" 
d="M214 12h-204v11h204v-11zM214 48h-204v11h204v-11zM212 87h-11q-2 53 -40 54q-18 0 -43 -26q-28 -28 -50 -28q-50 0 -52 65h10q1 -54 40 -55q20 0 46 27q27 28 49 28q48 -2 51 -65z" />
    <glyph glyph-name="notequal" unicode="&#x2260;" horiz-adv-x="190" 
d="M68 57h-58v12h68l20 27h-88v12h97l45 59h13l-45 -59h60v-12h-69l-20 -27h89v-12h-99l-44 -58h-13z" />
    <glyph glyph-name="equivalence" unicode="&#x2261;" horiz-adv-x="188" 
d="M178 111h-168v12h168v-12zM178 41h-168v12h168v-12zM178 76h-168v12h168v-12z" />
    <glyph glyph-name="lessequal" unicode="&#x2264;" horiz-adv-x="194" 
d="M184 59v-16l-174 48v16l174 48v-15l-152 -41zM184 12v-13l-174 47v15z" />
    <glyph glyph-name="greaterequal" unicode="&#x2265;" horiz-adv-x="194" 
d="M184 61v-15l-174 -47v13zM184 107v-16l-174 -48v16l152 40l-152 41v15z" />
    <glyph glyph-name="uni226E" unicode="&#x226e;" horiz-adv-x="190" 
d="M80 61l23 52l-78 -30zM180 21v-12l-94 38l-21 -48h-12l23 52l-66 26v11l99 39l16 40h12l-14 -34l57 23v-12l-63 -25l-27 -62z" />
    <glyph glyph-name="uni226F" unicode="&#x226f;" horiz-adv-x="190" 
d="M65 -1h-12l15 34l-58 -24v13l64 25l26 62l-90 36v11l95 -37l20 48h12l-22 -53l65 -26v-11l-98 -39zM110 104l-22 -52l77 31z" />
    <glyph glyph-name="uni2299" unicode="&#x2299;" horiz-adv-x="206" 
d="M103 76q-13 2 -15 15q2 14 15 15q14 -1 15 -15q-1 -13 -15 -15zM103 9q75 7 82 82q-7 76 -82 83q-75 -7 -82 -83q7 -75 82 -82zM103 184q85 -8 93 -93q-8 -84 -93 -91q-85 7 -93 91q8 85 93 93z" />
    <glyph glyph-name="perpendicular" unicode="&#x22a5;" horiz-adv-x="172" 
d="M10 11h70v150h12v-150h70v-10h-152v10z" />
    <glyph glyph-name="uni2312" unicode="&#x2312;" horiz-adv-x="232" 
d="M222 58l-1 -2q-4 0 -14 11q-39 43 -88 45h-7q-49 -2 -87 -45q-10 -11 -14 -11l-1 2q36 72 105 72q73 1 107 -72z" />
    <glyph glyph-name="uni2460" unicode="&#x2460;" horiz-adv-x="272" 
d="M136 219q115 -11 126 -126q-11 -112 -126 -123q-116 10 -126 123q11 116 126 126zM136 214q-111 -10 -121 -121q10 -108 121 -118q111 10 121 118q-10 111 -121 121zM133 3v134h-47v11q47 0 50 36h13v-181h-16z" />
    <glyph glyph-name="uni2461" unicode="&#x2461;" horiz-adv-x="272" 
d="M136 219q115 -11 126 -126q-11 -112 -126 -123q-116 10 -126 123q11 116 126 126zM136 214q-111 -10 -121 -121q10 -108 121 -118q111 10 121 118q-10 111 -121 121zM99 125h-18q3 56 59 59q53 -2 56 -50q0 -36 -55 -66q-17 -9 -24 -14q-23 -17 -23 -37h100v-14h-118
q0 28 14 44q16 18 49 38q41 21 39 48q-2 35 -40 37q-37 -3 -39 -45z" />
    <glyph glyph-name="uni2462" unicode="&#x2462;" horiz-adv-x="272" 
d="M136 219q115 -11 126 -126q-11 -112 -126 -123q-116 10 -126 123q11 116 126 126zM136 214q-111 -10 -121 -121q10 -108 121 -118q111 10 121 118q-10 111 -121 121zM123 92v13q52 -1 51 35q-1 31 -38 32q-37 -2 -39 -39h-16q0 24 17 41q14 12 41 12q50 -2 52 -45
q1 -29 -26 -40q32 -10 32 -45q-3 -50 -58 -54q-62 -2 -64 55h16q1 -41 45 -42q42 4 45 41q-2 39 -58 36z" />
    <glyph glyph-name="uni2463" unicode="&#x2463;" horiz-adv-x="272" 
d="M136 219q115 -11 126 -126q-11 -112 -126 -123q-116 10 -126 123q11 116 126 126zM136 214q-111 -10 -121 -121q10 -108 121 -118q111 10 121 118q-10 111 -121 121zM147 4v45h-82v14l84 120h15v-121h25v-13h-25v-45h-17zM147 158l-66 -96h66v96z" />
    <glyph glyph-name="uni2464" unicode="&#x2464;" horiz-adv-x="272" 
d="M136 219q115 -11 126 -126q-11 -112 -126 -123q-116 10 -126 123q11 116 126 126zM136 214q-111 -10 -121 -121q10 -108 121 -118q111 10 121 118q-10 111 -121 121zM76 53h16q5 -36 45 -37q40 3 43 46q-3 44 -45 46q-24 0 -39 -19l-14 2l15 94h89v-14h-75l-12 -61
q19 13 40 12q54 -3 57 -60q-3 -56 -57 -60q-60 0 -63 51z" />
    <glyph glyph-name="uni2465" unicode="&#x2465;" horiz-adv-x="272" 
d="M136 219q115 -11 126 -126q-11 -112 -126 -123q-116 10 -126 123q11 116 126 126zM136 214q-111 -10 -121 -121q10 -108 121 -118q111 10 121 118q-10 111 -121 121zM194 141h-17q-7 31 -35 31q-48 1 -50 -82q18 29 47 28q55 -2 57 -58q-2 -56 -57 -58q-64 0 -64 86
q2 96 66 98q46 -2 53 -45zM139 104q-38 -2 -41 -44q2 -44 41 -45q39 1 41 46q1 43 -41 43z" />
    <glyph glyph-name="uni2466" unicode="&#x2466;" horiz-adv-x="272" 
d="M136 219q115 -11 126 -126q-11 -112 -126 -123q-116 10 -126 123q11 116 126 126zM136 214q-111 -10 -121 -121q10 -108 121 -118q111 10 121 118q-10 111 -121 121zM78 166v17h115v-16q-63 -74 -73 -163h-18q10 82 72 162h-96z" />
    <glyph glyph-name="uni2467" unicode="&#x2467;" horiz-adv-x="272" 
d="M136 219q115 -11 126 -126q-11 -112 -126 -123q-116 10 -126 123q11 116 126 126zM136 214q-111 -10 -121 -121q10 -108 121 -118q111 10 121 118q-10 111 -121 121zM136 93q-43 -1 -44 -39q3 -37 45 -39q40 3 43 40q-1 36 -44 38zM135 171q-35 -2 -36 -32q1 -31 38 -32
q35 1 35 35q0 29 -37 29zM108 102q-28 14 -26 39q5 41 52 44q52 -2 54 -44q0 -29 -24 -40q31 -13 32 -45q-2 -54 -64 -55q-53 5 -56 53q1 35 32 48z" />
    <glyph glyph-name="uni2468" unicode="&#x2468;" horiz-adv-x="272" 
d="M136 219q115 -11 126 -126q-11 -112 -126 -123q-116 10 -126 123q11 116 126 126zM136 214q-111 -10 -121 -121q10 -108 121 -118q111 10 121 118q-10 111 -121 121zM78 45h17q6 -30 35 -30q48 0 50 80v1q-16 -27 -49 -28q-53 3 -56 58q2 58 58 60q64 0 64 -92
q-2 -88 -66 -92q-48 1 -53 43zM133 172q-40 -2 -41 -47q1 -42 41 -43q38 2 41 44q-1 43 -41 46z" />
    <glyph glyph-name="uni2469" unicode="&#x2469;" horiz-adv-x="272" 
d="M136 219q115 -11 126 -126q-11 -112 -126 -123q-116 10 -126 123q11 116 126 126zM136 214q-111 -10 -121 -121q10 -108 121 -118q111 10 121 118q-10 111 -121 121zM215 94q1 79 -34 78q-35 0 -35 -80q-1 -78 35 -77q35 -1 34 79zM181 186q48 1 47 -94q0 -91 -47 -91
q-49 -1 -48 93q-1 92 48 92zM90 3v134h-46v11q46 -1 50 36h13v-181h-17z" />
    <glyph glyph-name="uni2474" unicode="&#x2474;" horiz-adv-x="279" 
d="M55 212h13q-39 -57 -39 -119q0 -60 39 -117h-13q-45 58 -44 118q0 62 44 118zM223 -24h-13q39 56 39 118q0 59 -39 118h13q46 -59 44 -119q1 -62 -44 -117zM136 3v134h-47v11q47 0 50 36h13v-181h-16z" />
    <glyph glyph-name="uni2475" unicode="&#x2475;" horiz-adv-x="279" 
d="M55 212h13q-39 -57 -39 -119q0 -60 39 -117h-13q-45 58 -44 118q0 62 44 118zM223 -24h-13q39 56 39 118q0 59 -39 118h13q46 -59 44 -119q1 -62 -44 -117zM102 125h-18q3 56 59 59q53 -2 56 -50q0 -36 -55 -66q-17 -9 -24 -14q-23 -17 -23 -37h100v-14h-118q0 28 14 44
q16 18 49 38q41 21 39 48q-2 35 -40 37q-37 -3 -39 -45z" />
    <glyph glyph-name="uni2476" unicode="&#x2476;" horiz-adv-x="279" 
d="M55 212h13q-39 -57 -39 -119q0 -60 39 -117h-13q-45 58 -44 118q0 62 44 118zM223 -24h-13q39 56 39 118q0 59 -39 118h13q46 -59 44 -119q1 -62 -44 -117zM126 92v13q52 -1 51 35q-1 31 -38 32q-37 -2 -39 -39h-16q0 24 17 41q14 12 41 12q50 -2 52 -45q1 -29 -26 -40
q32 -10 32 -45q-3 -50 -58 -54q-62 -2 -64 55h16q1 -41 45 -42q42 4 45 41q-2 39 -58 36z" />
    <glyph glyph-name="uni2477" unicode="&#x2477;" horiz-adv-x="279" 
d="M55 212h13q-39 -57 -39 -119q0 -60 39 -117h-13q-45 58 -44 118q0 62 44 118zM223 -24h-13q39 56 39 118q0 59 -39 118h13q46 -59 44 -119q1 -62 -44 -117zM150 4v45h-82v14l84 120h15v-121h25v-13h-25v-45h-17zM150 158l-66 -96h66v96z" />
    <glyph glyph-name="uni2478" unicode="&#x2478;" horiz-adv-x="279" 
d="M55 212h13q-39 -57 -39 -119q0 -60 39 -117h-13q-45 58 -44 118q0 62 44 118zM223 -24h-13q39 56 39 118q0 59 -39 118h13q46 -59 44 -119q1 -62 -44 -117zM79 53h16q5 -36 45 -37q40 3 43 46q-3 44 -45 46q-24 0 -39 -19l-14 2l15 94h89v-14h-75l-12 -61q19 13 40 12
q54 -3 57 -60q-3 -56 -57 -60q-60 0 -63 51z" />
    <glyph glyph-name="uni2479" unicode="&#x2479;" horiz-adv-x="279" 
d="M55 212h13q-39 -57 -39 -119q0 -60 39 -117h-13q-45 58 -44 118q0 62 44 118zM223 -24h-13q39 56 39 118q0 59 -39 118h13q46 -59 44 -119q1 -62 -44 -117zM197 141h-17q-7 31 -35 31q-48 1 -50 -82q18 29 47 28q55 -2 57 -58q-2 -56 -57 -58q-64 0 -64 86q2 96 66 98
q46 -2 53 -45zM142 104q-38 -2 -41 -44q2 -44 41 -45q39 1 41 46q1 43 -41 43z" />
    <glyph glyph-name="uni247A" unicode="&#x247a;" horiz-adv-x="279" 
d="M55 212h13q-39 -57 -39 -119q0 -60 39 -117h-13q-45 58 -44 118q0 62 44 118zM223 -24h-13q39 56 39 118q0 59 -39 118h13q46 -59 44 -119q1 -62 -44 -117zM81 166v17h115v-16q-63 -74 -73 -163h-18q10 82 72 162h-96z" />
    <glyph glyph-name="uni247B" unicode="&#x247b;" horiz-adv-x="279" 
d="M55 212h13q-39 -57 -39 -119q0 -60 39 -117h-13q-45 58 -44 118q0 62 44 118zM223 -24h-13q39 56 39 118q0 59 -39 118h13q46 -59 44 -119q1 -62 -44 -117zM139 93q-43 -1 -44 -39q3 -37 45 -39q40 3 43 40q-1 36 -44 38zM138 171q-35 -2 -36 -32q1 -31 38 -32
q35 1 35 35q0 29 -37 29zM111 102q-28 14 -26 39q5 41 52 44q52 -2 54 -44q0 -29 -24 -40q31 -13 32 -45q-2 -54 -64 -55q-53 5 -56 53q1 35 32 48z" />
    <glyph glyph-name="uni247C" unicode="&#x247c;" horiz-adv-x="279" 
d="M55 212h13q-39 -57 -39 -119q0 -60 39 -117h-13q-45 58 -44 118q0 62 44 118zM223 -24h-13q39 56 39 118q0 59 -39 118h13q46 -59 44 -119q1 -62 -44 -117zM81 45h17q6 -30 35 -30q48 0 50 80v1q-16 -27 -49 -28q-53 3 -56 58q2 58 58 60q64 0 64 -92q-2 -88 -66 -92
q-48 1 -53 43zM136 172q-40 -2 -41 -47q1 -42 41 -43q38 2 41 44q-1 43 -41 46z" />
    <glyph glyph-name="uni247D" unicode="&#x247d;" horiz-adv-x="279" 
d="M55 212h13q-39 -57 -39 -119q0 -60 39 -117h-13q-45 58 -44 118q0 62 44 118zM223 -24h-13q39 56 39 118q0 59 -39 118h13q46 -59 44 -119q1 -62 -44 -117zM221 94q0 78 -35 78q-34 0 -34 -80q-1 -78 34 -77q35 0 35 79zM186 186q48 1 47 -94q1 -92 -47 -91
q-48 -1 -47 93q-1 93 47 92zM96 3v134h-47v11q47 -1 50 36h13v-181h-16z" />
    <glyph glyph-name="uni247E" unicode="&#x247e;" horiz-adv-x="279" 
d="M55 212h13q-39 -57 -39 -119q0 -60 39 -117h-13q-45 58 -44 118q0 62 44 118zM223 -24h-13q39 56 39 118q0 59 -39 118h13q46 -59 44 -119q1 -62 -44 -117zM93 3v134h-46v11q46 -1 50 36h13v-181h-17zM192 3v134h-47v11q47 -1 50 36h13v-181h-16z" />
    <glyph glyph-name="uni247F" unicode="&#x247f;" horiz-adv-x="279" 
d="M55 212h13q-39 -57 -39 -119q0 -60 39 -117h-13q-45 58 -44 118q0 62 44 118zM223 -24h-13q39 56 39 118q0 59 -39 118h13q46 -59 44 -119q1 -62 -44 -117zM87 3v134h-46v11q46 -1 50 36h13v-181h-17zM139 125h-16q3 56 54 59q49 -2 52 -50q0 -36 -51 -66q-16 -9 -22 -14
q-21 -17 -22 -37h92v-14h-108q-1 29 13 44q15 18 45 38q38 21 36 48q-2 35 -36 37q-35 -4 -37 -45z" />
    <glyph glyph-name="uni2480" unicode="&#x2480;" horiz-adv-x="279" 
d="M55 212h13q-39 -57 -39 -119q0 -60 39 -117h-13q-45 58 -44 118q0 62 44 118zM223 -24h-13q39 56 39 118q0 59 -39 118h13q46 -59 44 -119q1 -62 -44 -117zM87 3v134h-46v11q46 -1 50 36h13v-181h-17zM163 91v13q52 -1 51 35q-1 31 -38 32q-37 -2 -39 -39h-16q0 24 17 41
q13 12 41 12q50 -2 52 -45q0 -29 -26 -40q32 -10 32 -45q-3 -50 -58 -54q-62 -2 -64 55h16q1 -41 45 -42q42 4 45 41q-2 39 -58 36z" />
    <glyph glyph-name="uni2481" unicode="&#x2481;" horiz-adv-x="279" 
d="M55 212h13q-39 -57 -39 -119q0 -60 39 -117h-13q-45 58 -44 118q0 62 44 118zM223 -24h-13q39 56 39 118q0 59 -39 118h13q46 -59 44 -119q1 -62 -44 -117zM87 3v134h-46v11q46 -1 50 36h13v-181h-17zM196 4v45h-82v14l84 120h15v-121h25v-13h-25v-45h-17zM196 158
l-66 -96h66v96z" />
    <glyph glyph-name="uni2482" unicode="&#x2482;" horiz-adv-x="279" 
d="M55 212h13q-39 -57 -39 -119q0 -60 39 -117h-13q-45 58 -44 118q0 62 44 118zM223 -24h-13q39 56 39 118q0 59 -39 118h13q46 -59 44 -119q1 -62 -44 -117zM87 3v134h-46v11q46 -1 50 36h13v-181h-17zM116 53h17q5 -36 43 -37q40 2 43 46q-2 44 -44 46q-24 0 -39 -19
l-13 2l14 94h89v-14h-75l-11 -61q18 13 39 12q53 -3 56 -60q-3 -55 -56 -60q-59 0 -63 51z" />
    <glyph glyph-name="uni2483" unicode="&#x2483;" horiz-adv-x="279" 
d="M55 212h13q-39 -57 -39 -119q0 -60 39 -117h-13q-45 58 -44 118q0 62 44 118zM223 -24h-13q39 56 39 118q0 59 -39 118h13q46 -59 44 -119q1 -62 -44 -117zM87 3v134h-46v11q46 -1 50 36h13v-181h-17zM234 141h-16q-7 30 -35 31q-48 1 -50 -82q18 29 47 28q55 -2 57 -58
q-2 -56 -58 -58q-63 0 -63 86q2 96 66 98q46 -2 52 -45zM179 104q-37 -2 -40 -44q2 -44 41 -45q39 1 41 46q0 43 -42 43z" />
    <glyph glyph-name="uni2484" unicode="&#x2484;" horiz-adv-x="279" 
d="M55 212h13q-39 -57 -39 -119q0 -60 39 -117h-13q-45 58 -44 118q0 62 44 118zM223 -24h-13q39 56 39 118q0 59 -39 118h13q46 -59 44 -119q1 -62 -44 -117zM87 3v134h-46v11q46 -1 50 36h13v-181h-17zM119 166v17h107v-16q-59 -74 -68 -163h-17q9 81 67 162h-89z" />
    <glyph glyph-name="uni2485" unicode="&#x2485;" horiz-adv-x="279" 
d="M55 212h13q-39 -57 -39 -119q0 -60 39 -117h-13q-45 58 -44 118q0 62 44 118zM223 -24h-13q39 56 39 118q0 59 -39 118h13q46 -59 44 -119q1 -62 -44 -117zM87 3v134h-46v11q46 -1 50 36h13v-181h-17zM177 93q-43 -1 -44 -39q3 -37 45 -39q40 3 42 40q-1 37 -43 38z
M176 171q-35 -2 -36 -32q1 -31 38 -32q35 1 35 35q0 29 -37 29zM148 102q-27 15 -25 39q5 42 52 44q52 -2 54 -44q0 -29 -24 -40q31 -13 32 -45q-2 -54 -64 -55q-53 5 -56 53q1 35 31 48z" />
    <glyph glyph-name="uni2486" unicode="&#x2486;" horiz-adv-x="279" 
d="M55 212h13q-39 -57 -39 -119q0 -60 39 -117h-13q-45 58 -44 118q0 62 44 118zM223 -24h-13q39 56 39 118q0 59 -39 118h13q46 -59 44 -119q1 -62 -44 -117zM87 3v134h-46v11q46 -1 50 36h13v-181h-17zM119 45h17q6 -30 35 -30q46 0 50 80l-1 1q-16 -27 -48 -28
q-53 3 -56 58q2 58 58 60q63 0 63 -92q-2 -89 -65 -92q-48 1 -53 43zM174 172q-42 -2 -42 -47q1 -42 42 -43q38 2 41 44q-2 43 -41 46z" />
    <glyph glyph-name="uni2487" unicode="&#x2487;" horiz-adv-x="279" 
d="M223 -24h-13q39 56 39 118q0 59 -39 118h13q46 -59 44 -119q1 -62 -44 -117zM66 125h-13q2 56 44 59q38 -2 40 -50q0 -35 -39 -65q-13 -10 -18 -16q-17 -16 -18 -36h74v-14h-85q3 -5 10 -16q5 -7 7 -11h-13q-45 58 -44 118q0 62 44 118h13q-39 -57 -39 -119q0 -42 21 -87
q0 8 0 6q1 22 10 35q12 18 36 38q30 21 28 48q-2 35 -29 37q-27 -3 -29 -45zM216 94q1 79 -33 78q-32 0 -32 -80q-1 -78 33 -77q33 -1 32 79zM184 186q45 0 44 -94q1 -92 -44 -91q-46 -1 -45 93q-1 93 45 92z" />
    <glyph glyph-name="uni2488" unicode="&#x2488;" horiz-adv-x="192" 
d="M57 3v134h-47v11q47 -1 50 36h13v-181h-16zM182 3h-19v23h19v-23z" />
    <glyph glyph-name="uni2489" unicode="&#x2489;" horiz-adv-x="202" 
d="M33 125h-18q3 56 59 59q53 -2 56 -50q0 -36 -55 -66q-17 -9 -24 -14q-23 -17 -23 -37h100v-14h-118q0 28 14 44q16 18 49 38q41 21 39 48q-2 35 -40 37q-37 -4 -39 -45zM192 3h-19v23h19v-23z" />
    <glyph glyph-name="uni248A" unicode="&#x248a;" horiz-adv-x="203" 
d="M57 92v13q53 -1 52 35q-1 31 -38 32q-37 -2 -39 -39h-16q0 24 17 41q13 12 41 12q50 -2 52 -45q0 -29 -26 -40q32 -10 32 -45q-3 -50 -58 -54q-63 -2 -64 55h16q1 -41 45 -42q42 4 45 41q-2 39 -59 36zM193 3h-19v23h19v-23z" />
    <glyph glyph-name="uni248B" unicode="&#x248b;" horiz-adv-x="214" 
d="M93 4v45h-83v14l84 120h15v-121h25v-13h-25v-45h-16zM93 158l-66 -96h66v96zM204 3h-19v23h19v-23z" />
    <glyph glyph-name="uni248C" unicode="&#x248c;" horiz-adv-x="202" 
d="M10 53h16q6 -36 45 -37q40 2 43 46q-2 44 -45 46q-24 0 -39 -19l-13 2l14 94h90v-14h-76l-11 -61q18 13 39 12q54 -3 57 -60q-3 -56 -57 -60q-59 0 -63 51zM192 3h-19v23h19v-23z" />
    <glyph glyph-name="uni248D" unicode="&#x248d;" horiz-adv-x="202" 
d="M128 141h-17q-6 30 -34 31q-47 2 -51 -82q18 29 48 28q55 -2 57 -58q-2 -56 -58 -58q-63 0 -63 86q2 97 65 98q47 -2 53 -45zM73 104q-38 -3 -41 -44q3 -43 41 -45q40 1 42 46q0 43 -42 43zM192 3h-18v23h18v-23z" />
    <glyph glyph-name="uni248E" unicode="&#x248e;" horiz-adv-x="200" 
d="M10 166v17h115v-16q-63 -74 -73 -163h-18q10 82 72 162h-96zM190 3h-19v23h19v-23z" />
    <glyph glyph-name="uni248F" unicode="&#x248f;" horiz-adv-x="202" 
d="M70 93q-42 -1 -43 -39q3 -37 44 -39q40 3 43 40q-1 36 -44 38zM70 171q-36 -1 -37 -32q1 -31 38 -32q35 1 35 35q0 29 -36 29zM42 102q-27 14 -25 39q5 42 51 44q53 -2 55 -44q0 -28 -25 -40q31 -13 32 -45q-2 -54 -64 -55q-53 5 -56 53q1 35 32 48zM192 3h-19v23h19v-23
z" />
    <glyph glyph-name="uni2490" unicode="&#x2490;" horiz-adv-x="202" 
d="M13 45h17q5 -30 35 -30q46 0 50 80l-1 1q-16 -27 -48 -28q-53 3 -56 58q2 58 58 60q63 0 63 -92q-2 -89 -66 -92q-47 1 -52 43zM68 172q-42 -2 -42 -47q1 -42 42 -43q38 2 40 44q-2 43 -40 46zM192 3h-18v23h18v-23z" />
    <glyph glyph-name="uni2491" unicode="&#x2491;" horiz-adv-x="232" 
d="M182 94q0 78 -35 78q-34 0 -34 -80q-1 -78 34 -77q35 0 35 79zM147 186q49 0 48 -94q1 -91 -48 -91q-48 -1 -47 93q-1 93 47 92zM57 3v134h-47v11q47 -1 50 36h13v-181h-16zM222 3h-19v23h19v-23z" />
    <glyph glyph-name="uni2492" unicode="&#x2492;" horiz-adv-x="234" 
d="M57 3v134h-47v11q47 0 50 36h13v-181h-16zM155 3v134h-46v11q46 -1 49 36h14v-181h-17zM224 3h-19v23h19v-23z" />
    <glyph glyph-name="uni2493" unicode="&#x2493;" horiz-adv-x="240" 
d="M57 3v134h-47v11q46 -1 50 36h13v-181h-16zM110 125h-17q3 56 58 59q53 -2 56 -50q0 -36 -55 -66q-17 -9 -24 -14q-23 -17 -23 -37h100v-14h-118q0 28 14 44q16 18 49 38q41 21 39 48q-2 35 -40 37q-37 -4 -39 -45zM230 3h-19v23h19v-23z" />
    <glyph glyph-name="uni2494" unicode="&#x2494;" horiz-adv-x="240" 
d="M57 3v134h-47v11q46 -1 50 36h13v-181h-16zM132 91v13q52 -1 51 35q-1 31 -38 32q-37 -2 -39 -39h-16q0 24 17 41q14 12 41 12q50 -2 52 -45q1 -29 -26 -40q32 -10 32 -45q-3 -50 -58 -54q-62 -2 -64 55h16q1 -41 45 -42q42 4 45 41q-2 39 -58 36zM230 3h-19v23h19v-23z
" />
    <glyph glyph-name="uni2495" unicode="&#x2495;" horiz-adv-x="240" 
d="M57 3v134h-47v11q46 -1 50 36h13v-181h-16zM166 4v45h-83v14l84 120h15v-121h25v-13h-25v-45h-16zM166 158l-67 -96h67v96zM230 3h-19v23h19v-23z" />
    <glyph glyph-name="uni2496" unicode="&#x2496;" horiz-adv-x="240" 
d="M57 3v134h-47v11q46 -1 50 36h13v-181h-16zM86 53h16q5 -36 45 -37q40 2 43 46q-3 44 -45 46q-24 0 -39 -19l-14 2l15 94h90v-14h-76l-11 -61q18 13 39 12q54 -3 57 -60q-3 -56 -57 -60q-59 0 -63 51zM230 3h-19v23h19v-23z" />
    <glyph glyph-name="uni2497" unicode="&#x2497;" horiz-adv-x="240" 
d="M57 3v134h-47v11q46 -1 50 36h13v-181h-16zM204 141h-17q-7 31 -34 31q-49 1 -51 -82q18 29 47 28q56 -2 58 -58q-2 -56 -58 -58q-64 1 -64 86q2 96 66 98q46 -2 53 -45zM149 104q-38 -2 -41 -44q2 -44 41 -45q39 1 41 46q1 43 -41 43zM230 3h-19v23h19v-23z" />
    <glyph glyph-name="uni2498" unicode="&#x2498;" horiz-adv-x="240" 
d="M57 3v134h-47v11q46 -1 50 36h13v-181h-16zM89 166v17h114v-16q-63 -74 -73 -163h-18q10 82 72 162h-95zM230 3h-19v23h19v-23z" />
    <glyph glyph-name="uni2499" unicode="&#x2499;" horiz-adv-x="240" 
d="M57 3v134h-47v11q46 -1 50 36h13v-181h-16zM146 93q-42 -1 -43 -39q3 -37 44 -39q40 3 43 40q-1 36 -44 38zM146 171q-36 -1 -37 -32q1 -31 38 -32q35 1 35 35q0 29 -36 29zM118 102q-27 14 -25 39q5 42 51 44q53 -2 55 -44q0 -28 -25 -40q31 -13 32 -45q-2 -53 -63 -55
q-54 5 -57 53q1 35 32 48zM230 3h-19v23h19v-23z" />
    <glyph glyph-name="uni249A" unicode="&#x249a;" horiz-adv-x="240" 
d="M57 3v134h-47v11q46 -1 50 36h13v-181h-16zM88 45h17q6 -30 35 -30q48 0 50 80v1q-17 -27 -49 -28q-53 3 -56 58q2 58 58 60q64 0 64 -92q-2 -88 -66 -92q-48 1 -53 43zM143 172q-40 -2 -41 -47q1 -42 41 -43q38 2 41 44q-1 43 -41 46zM230 3h-19v23h19v-23z" />
    <glyph glyph-name="uni249B" unicode="&#x249b;" horiz-adv-x="236" 
d="M28 125h-14q2 56 46 59q41 -2 43 -50q0 -35 -41 -65q-15 -10 -20 -16q-18 -16 -18 -36h77v-14h-91q0 28 11 44q12 18 38 38q32 21 30 48q-2 35 -31 37q-29 -4 -30 -45zM186 94q1 79 -35 78q-34 0 -34 -80q-1 -78 35 -77q35 -1 34 79zM152 186q48 0 47 -94q0 -91 -47 -91
q-49 -1 -48 93q-1 93 48 92zM226 3h-18v23h18v-23z" />
    <glyph glyph-name="SF100000" unicode="&#x2500;" horiz-adv-x="276" 
d="M10 96h256v-13h-256v13z" />
    <glyph glyph-name="uni2501" unicode="&#x2501;" horiz-adv-x="276" 
d="M10 104h256v-29h-256v29z" />
    <glyph glyph-name="SF110000" unicode="&#x2502;" horiz-adv-x="33" 
d="M10 218v-254h13v254h-13z" />
    <glyph glyph-name="uni2503" unicode="&#x2503;" horiz-adv-x="49" 
d="M10 218v-254h29v254h-29z" />
    <glyph glyph-name="uni2504" unicode="&#x2504;" horiz-adv-x="248" 
d="M10 96h56v-13h-56v13zM96 96h56v-13h-56v13zM182 96h56v-13h-56v13z" />
    <glyph glyph-name="uni2505" unicode="&#x2505;" horiz-adv-x="248" 
d="M10 104h56v-29h-56v29zM96 104h56v-29h-56v29zM182 104h56v-29h-56v29z" />
    <glyph glyph-name="uni2506" unicode="&#x2506;" horiz-adv-x="33" 
d="M10 204h13v-57h-13v57zM23 118v-57h-13v57h13zM23 32v-55h-13v55h13z" />
    <glyph glyph-name="uni2507" unicode="&#x2507;" horiz-adv-x="49" 
d="M39 204v-57h-29v57h29zM39 118v-57h-29v57h29zM39 32v-55h-29v55h29z" />
    <glyph glyph-name="uni2508" unicode="&#x2508;" horiz-adv-x="252" 
d="M10 96h40v-13h-40v13zM74 96h40v-13h-40v13zM138 96h40v-13h-40v13zM202 96h40v-13h-40v13z" />
    <glyph glyph-name="uni2509" unicode="&#x2509;" horiz-adv-x="252" 
d="M10 104h40v-29h-40v29zM74 104h40v-29h-40v29zM138 104h40v-29h-40v29zM202 104h40v-29h-40v29z" />
    <glyph glyph-name="uni250A" unicode="&#x250a;" horiz-adv-x="33" 
d="M23 206v-40h-13v40h13zM23 142v-40h-13v40h13zM23 78v-40h-13v40h13zM23 14v-38h-13v38h13z" />
    <glyph glyph-name="uni250B" unicode="&#x250b;" horiz-adv-x="49" 
d="M39 206v-40h-29v40h29zM39 142v-40h-29v40h29zM39 78v-40h-29v40h29zM39 14v-38h-29v38h29z" />
    <glyph glyph-name="SF010000" unicode="&#x250c;" horiz-adv-x="155" 
d="M145 96v-13h-122v-119h-13v132h135z" />
    <glyph glyph-name="uni250D" unicode="&#x250d;" horiz-adv-x="155" 
d="M145 104v-29h-122v-111h-13v140h135z" />
    <glyph glyph-name="uni250E" unicode="&#x250e;" horiz-adv-x="163" 
d="M153 96v-13h-114v-119h-29v132h143z" />
    <glyph glyph-name="uni250F" unicode="&#x250f;" horiz-adv-x="163" 
d="M153 104v-29h-114v-111h-29v140h143z" />
    <glyph glyph-name="SF030000" unicode="&#x2510;" horiz-adv-x="154" 
d="M10 83v13h134v-132h-13v119h-121z" />
    <glyph glyph-name="uni2511" unicode="&#x2511;" horiz-adv-x="154" 
d="M10 104h134v-140h-13v111h-121v29z" />
    <glyph glyph-name="uni2512" unicode="&#x2512;" horiz-adv-x="162" 
d="M10 96h142v-132h-29v119h-113v13z" />
    <glyph glyph-name="uni2513" unicode="&#x2513;" horiz-adv-x="162" 
d="M10 104h142v-140h-29v111h-113v29z" />
    <glyph glyph-name="SF020000" unicode="&#x2514;" horiz-adv-x="155" 
d="M23 218v-122h122v-13h-135v135h13z" />
    <glyph glyph-name="uni2515" unicode="&#x2515;" horiz-adv-x="155" 
d="M23 218v-114h122v-29h-135v143h13z" />
    <glyph glyph-name="uni2516" unicode="&#x2516;" horiz-adv-x="163" 
d="M39 218v-122h114v-13h-143v135h29z" />
    <glyph glyph-name="uni2517" unicode="&#x2517;" horiz-adv-x="163" 
d="M39 218v-114h114v-29h-143v143h29z" />
    <glyph glyph-name="SF040000" unicode="&#x2518;" horiz-adv-x="154" 
d="M10 96h121v122h13v-135h-134v13z" />
    <glyph glyph-name="uni2519" unicode="&#x2519;" horiz-adv-x="154" 
d="M10 104h121v114h13v-143h-134v29z" />
    <glyph glyph-name="uni251A" unicode="&#x251a;" horiz-adv-x="162" 
d="M10 96h113v122h29v-135h-142v13z" />
    <glyph glyph-name="uni251B" unicode="&#x251b;" horiz-adv-x="162" 
d="M10 104h113v114h29v-143h-142v29z" />
    <glyph glyph-name="SF080000" unicode="&#x251c;" horiz-adv-x="155" 
d="M23 218v-122h122v-13h-122v-119h-13v254h13z" />
    <glyph glyph-name="uni251D" unicode="&#x251d;" horiz-adv-x="155" 
d="M23 218v-114h122v-29h-122v-111h-13v254h13z" />
    <glyph glyph-name="uni251E" unicode="&#x251e;" horiz-adv-x="163" 
d="M39 218v-122h114v-13h-122v-119h-13v127h-8v127h29z" />
    <glyph glyph-name="uni251F" unicode="&#x251f;" horiz-adv-x="163" 
d="M31 218v-122h122v-13h-114v-119h-29v124h8v130h13z" />
    <glyph glyph-name="uni2520" unicode="&#x2520;" horiz-adv-x="163" 
d="M39 218v-122h114v-13h-114v-119h-29v254h29z" />
    <glyph glyph-name="uni2521" unicode="&#x2521;" horiz-adv-x="163" 
d="M39 218v-114h114v-29h-122v-111h-13v111h-8v143h29z" />
    <glyph glyph-name="uni2522" unicode="&#x2522;" horiz-adv-x="163" 
d="M31 218v-114h122v-29h-114v-111h-29v140h8v114h13z" />
    <glyph glyph-name="uni2523" unicode="&#x2523;" horiz-adv-x="163" 
d="M39 218v-114h114v-29h-114v-111h-29v254h29z" />
    <glyph glyph-name="SF090000" unicode="&#x2524;" horiz-adv-x="154" 
d="M144 218v-254h-13v119h-121v13h121v122h13z" />
    <glyph glyph-name="uni2525" unicode="&#x2525;" horiz-adv-x="154" 
d="M144 218v-254h-13v111h-121v29h121v114h13z" />
    <glyph glyph-name="uni2526" unicode="&#x2526;" horiz-adv-x="162" 
d="M152 218v-127h-8v-127h-13v119h-121v13h113v122h29z" />
    <glyph glyph-name="uni2527" unicode="&#x2527;" horiz-adv-x="162" 
d="M144 218v-130h8v-124h-29v119h-113v13h121v122h13z" />
    <glyph glyph-name="uni2528" unicode="&#x2528;" horiz-adv-x="162" 
d="M152 218v-254h-29v119h-113v13h113v122h29z" />
    <glyph glyph-name="uni2529" unicode="&#x2529;" horiz-adv-x="162" 
d="M152 218v-143h-8v-111h-13v111h-121v29h113v114h29z" />
    <glyph glyph-name="uni252A" unicode="&#x252a;" horiz-adv-x="162" 
d="M144 218v-114h8v-140h-29v111h-113v29h121v114h13z" />
    <glyph glyph-name="uni252B" unicode="&#x252b;" horiz-adv-x="162" 
d="M152 218v-254h-29v111h-113v29h113v114h29z" />
    <glyph glyph-name="SF060000" unicode="&#x252c;" horiz-adv-x="276" 
d="M10 96h256v-13h-122v-119h-13v119h-121v13z" />
    <glyph glyph-name="uni252D" unicode="&#x252d;" horiz-adv-x="276" 
d="M10 104h134v-8h122v-13h-122v-120h-13v112h-121v29z" />
    <glyph glyph-name="uni252E" unicode="&#x252e;" horiz-adv-x="276" 
d="M10 96h121v8h135v-29h-122v-111h-13v119h-121v13z" />
    <glyph glyph-name="uni252F" unicode="&#x252f;" horiz-adv-x="276" 
d="M10 104h256v-29h-122v-111h-13v111h-121v29z" />
    <glyph glyph-name="uni2530" unicode="&#x2530;" horiz-adv-x="276" 
d="M10 96h256v-13h-114v-119h-29v119h-113v13z" />
    <glyph glyph-name="uni2531" unicode="&#x2531;" horiz-adv-x="276" 
d="M10 104h142v-8h114v-13h-114v-119h-29v111h-113v29z" />
    <glyph glyph-name="uni2532" unicode="&#x2532;" horiz-adv-x="276" 
d="M10 96h113v8h143v-29h-114v-111h-29v119h-113v13z" />
    <glyph glyph-name="uni2533" unicode="&#x2533;" horiz-adv-x="276" 
d="M10 104h256v-29h-114v-111h-29v111h-113v29z" />
    <glyph glyph-name="SF070000" unicode="&#x2534;" horiz-adv-x="276" 
d="M10 96h121v122h13v-122h122v-13h-256v13z" />
    <glyph glyph-name="uni2535" unicode="&#x2535;" horiz-adv-x="276" 
d="M144 218v-122h122v-13h-122v-8h-134v29h121v114h13z" />
    <glyph glyph-name="uni2536" unicode="&#x2536;" horiz-adv-x="276" 
d="M144 218v-114h122v-29h-135v8h-121v13h121v122h13z" />
    <glyph glyph-name="uni2537" unicode="&#x2537;" horiz-adv-x="276" 
d="M144 218v-114h122v-29h-256v29h121v114h13z" />
    <glyph glyph-name="uni2538" unicode="&#x2538;" horiz-adv-x="276" 
d="M152 218v-122h114v-13h-256v13h113v122h29z" />
    <glyph glyph-name="uni2539" unicode="&#x2539;" horiz-adv-x="276" 
d="M152 218v-122h114v-13h-114v-8h-142v29h113v114h29z" />
    <glyph glyph-name="uni253A" unicode="&#x253a;" horiz-adv-x="276" 
d="M152 218v-114h114v-29h-143v8h-113v13h113v122h29z" />
    <glyph glyph-name="uni253B" unicode="&#x253b;" horiz-adv-x="276" 
d="M152 218v-114h114v-29h-256v29h113v114h29z" />
    <glyph glyph-name="SF050000" unicode="&#x253c;" horiz-adv-x="276" 
d="M144 218v-122h122v-13h-122v-119h-13v119h-121v13h121v122h13z" />
    <glyph glyph-name="uni253D" unicode="&#x253d;" horiz-adv-x="276" 
d="M144 218v-122h122v-13h-122v-119h-13v111h-121v29h121v114h13z" />
    <glyph glyph-name="uni253E" unicode="&#x253e;" horiz-adv-x="276" 
d="M144 218v-114h122v-29h-122v-111h-13v119h-121v13h121v122h13z" />
    <glyph glyph-name="uni253F" unicode="&#x253f;" horiz-adv-x="276" 
d="M144 218v-114h122v-29h-122v-111h-13v111h-121v29h121v114h13z" />
    <glyph glyph-name="uni2540" unicode="&#x2540;" horiz-adv-x="276" 
d="M152 218v-122h114v-13h-122v-119h-13v119h-121v13h113v122h29z" />
    <glyph glyph-name="uni2541" unicode="&#x2541;" horiz-adv-x="276" 
d="M144 218v-122h122v-13h-114v-119h-29v119h-113v13h121v122h13z" />
    <glyph glyph-name="uni2542" unicode="&#x2542;" horiz-adv-x="276" 
d="M152 218v-122h114v-13h-114v-119h-29v119h-113v13h113v122h29z" />
    <glyph glyph-name="uni2543" unicode="&#x2543;" horiz-adv-x="276" 
d="M152 218v-122h114v-13h-122v-119h-13v111h-121v29h113v114h29z" />
    <glyph glyph-name="uni2544" unicode="&#x2544;" horiz-adv-x="276" 
d="M152 218v-114h114v-29h-122v-111h-13v119h-121v13h113v122h29z" />
    <glyph glyph-name="uni2545" unicode="&#x2545;" horiz-adv-x="276" 
d="M144 218v-122h122v-13h-114v-119h-29v111h-113v29h121v114h13z" />
    <glyph glyph-name="uni2546" unicode="&#x2546;" horiz-adv-x="276" 
d="M144 218v-114h122v-29h-114v-111h-29v119h-113v13h121v122h13z" />
    <glyph glyph-name="uni2547" unicode="&#x2547;" horiz-adv-x="276" 
d="M152 218v-114h114v-29h-122v-111h-13v111h-121v29h113v114h29z" />
    <glyph glyph-name="uni2548" unicode="&#x2548;" horiz-adv-x="276" 
d="M144 218v-114h122v-29h-114v-111h-29v111h-113v29h121v114h13z" />
    <glyph glyph-name="uni2549" unicode="&#x2549;" horiz-adv-x="276" 
d="M152 218v-122h114v-13h-114v-119h-29v111h-113v29h113v114h29z" />
    <glyph glyph-name="uni254A" unicode="&#x254a;" horiz-adv-x="276" 
d="M152 218v-114h114v-29h-114v-111h-29v119h-113v13h113v122h29z" />
    <glyph glyph-name="uni254B" unicode="&#x254b;" horiz-adv-x="276" 
d="M152 218v-114h114v-29h-114v-111h-29v111h-113v29h113v114h29z" />
    <glyph glyph-name="filledbox" unicode="&#x25a0;" horiz-adv-x="224" 
d="M214 -14h-204v202h204v-202z" />
    <glyph glyph-name="H22073" unicode="&#x25a1;" horiz-adv-x="224" 
d="M214 -14h-204v202h204v-202zM21 177v-180h182v180h-182z" />
    <glyph glyph-name="triagup" unicode="&#x25b2;" horiz-adv-x="206" 
d="M196 0h-186l93 188z" />
    <glyph glyph-name="uni25B3" unicode="&#x25b3;" horiz-adv-x="206" 
d="M103 164l-76 -153h152zM196 0h-186l93 188z" />
    <glyph glyph-name="uni25C6" unicode="&#x25c6;" horiz-adv-x="212" 
d="M106 0l-96 94l96 96l96 -96z" />
    <glyph glyph-name="uni25C7" unicode="&#x25c7;" horiz-adv-x="212" 
d="M106 13l81 81l-81 81l-81 -81zM106 0l-96 94l96 96l96 -96z" />
    <glyph glyph-name="circle" unicode="&#x25cb;" horiz-adv-x="206" 
d="M103 9q75 7 82 82q-7 76 -82 83q-75 -7 -82 -83q7 -75 82 -82zM103 184q85 -8 93 -93q-8 -84 -93 -91q-85 7 -93 91q8 85 93 93z" />
    <glyph glyph-name="uni25CE" unicode="&#x25ce;" horiz-adv-x="206" 
d="M103 184q85 -8 93 -93q-8 -84 -93 -91q-85 7 -93 91q8 85 93 93zM103 178q-79 -7 -87 -87q8 -78 87 -86q79 8 87 86q-7 80 -87 87zM103 156q59 -6 65 -64q-5 -59 -65 -65q-59 6 -65 65q6 58 65 64zM103 149q-53 -5 -58 -57q5 -53 58 -58q53 5 58 58q-5 52 -58 57z" />
    <glyph glyph-name="H18533" unicode="&#x25cf;" horiz-adv-x="206" 
d="M103 184q85 -8 93 -93q-8 -84 -93 -91q-85 7 -93 91q8 85 93 93z" />
    <glyph glyph-name="uni2605" unicode="&#x2605;" horiz-adv-x="210" 
d="M105 179l24 -70h71l-58 -44l21 -67l-58 39l-58 -39l21 67l-58 44h71z" />
    <glyph glyph-name="uni2606" unicode="&#x2606;" horiz-adv-x="210" 
d="M60 12l45 34l45 -33l1 1l-18 54l46 34h-57l-17 55h-1l-17 -55h-56l45 -34l-17 -55zM105 179l24 -70h71l-58 -44l21 -67l-58 40l-58 -40l20 67l-57 44h71z" />
    <glyph glyph-name="female" unicode="&#x2640;" horiz-adv-x="134" 
d="M22 129q3 -42 45 -45q42 3 45 45q-3 42 -45 45q-42 -3 -45 -45zM23 19v12h38v42q-47 9 -51 56q5 52 57 57q52 -5 57 -57q-4 -47 -51 -56v-42h38v-12h-38v-29h-12v29h-38z" />
    <glyph glyph-name="male" unicode="&#x2642;" horiz-adv-x="134" 
d="M22 46q4 -42 45 -46q41 4 45 46q-4 41 -45 45q-41 -4 -45 -45zM23 137l-3 5q33 23 45 43h5q9 -16 39 -38q3 -3 5 -4l-2 -6q-22 9 -39 26v-61q47 -9 51 -56q-4 -50 -57 -55q-53 5 -57 55q4 47 51 56v60q-17 -15 -38 -25z" />
    <glyph glyph-name="uni3000" unicode="&#x3000;" horiz-adv-x="20" 
 />
    <glyph glyph-name="uni3001" unicode="&#x3001;" horiz-adv-x="92" 
d="M82 -12l-8 -11q-23 28 -64 52l8 10q42 -25 64 -51z" />
    <glyph glyph-name="uni3002" unicode="&#x3002;" horiz-adv-x="75" 
d="M38 34q-19 -2 -21 -21q2 -17 21 -18q18 1 20 18q-2 19 -20 21zM38 40q25 -2 27 -27q-2 -23 -27 -25q-26 2 -28 25q2 25 28 27z" />
    <glyph glyph-name="uni3003" unicode="&#x3003;" horiz-adv-x="115" 
d="M59 132l-45 -87h-4l28 84q3 10 11 12q10 0 10 -9zM104 132l-45 -87h-4l28 84q2 10 11 12q11 0 10 -9z" />
    <glyph glyph-name="uni3005" unicode="&#x3005;" horiz-adv-x="173" 
d="M68 189l24 -12q1 0 1 -4q0 -3 -6 -5q-2 -1 -3 -2q-7 -15 -17 -28h60q3 0 8 3t7 3q17 -11 21 -22q-1 -7 -6 -7h-6q-2 0 -5 -4q-1 -1 -1 -2q-23 -33 -50 -63q38 -30 10 -41q-7 0 -22 26q-4 7 -6 10q-13 18 -27 29l1 2q20 -7 35 -19q31 35 52 74q-1 1 -2 1h-75
q-25 -29 -47 -38q-4 1 -3 4q28 23 44 50q14 25 7 39q1 8 6 6z" />
    <glyph glyph-name="uni3008" unicode="&#x3008;" horiz-adv-x="92" 
d="M82 213l-62 -123l62 -122l-7 -3l-65 125l65 126z" />
    <glyph glyph-name="uni3009" unicode="&#x3009;" horiz-adv-x="92" 
d="M10 213l7 3l65 -126l-65 -125l-7 3l62 122z" />
    <glyph glyph-name="uni300A" unicode="&#x300a;" horiz-adv-x="116" 
d="M83 211l-65 -121l65 -120l-6 -3l-67 123l67 125zM106 212l-64 -122l64 -121l-5 -2l-67 123l67 125z" />
    <glyph glyph-name="uni300B" unicode="&#x300b;" horiz-adv-x="116" 
d="M33 211l6 4l67 -125l-67 -123l-6 3l65 120zM10 212l5 3l67 -125l-67 -123l-5 2l64 121z" />
    <glyph glyph-name="uni300C" unicode="&#x300c;" horiz-adv-x="106" 
d="M96 201h-78v-229h-8v238h86v-9z" />
    <glyph glyph-name="uni300D" unicode="&#x300d;" horiz-adv-x="106" 
d="M10 -21h78v231h8v-238h-86v7z" />
    <glyph glyph-name="uni300E" unicode="&#x300e;" horiz-adv-x="92" 
d="M10 207h72v-27h-46v-206h-26v233zM77 202h-62v-223h16v206h46v17z" />
    <glyph glyph-name="uni300F" unicode="&#x300f;" horiz-adv-x="92" 
d="M82 -26h-72v26h46v207h26v-233zM15 -21h62v223h-16v-206h-46v-17z" />
    <glyph glyph-name="uni3010" unicode="&#x3010;" horiz-adv-x="82" 
d="M10 -35v251h62q-33 -56 -34 -125q-1 -75 34 -126h-62z" />
    <glyph glyph-name="uni3011" unicode="&#x3011;" horiz-adv-x="82" 
d="M72 -35h-62q35 51 34 126q-1 69 -34 125h62v-251z" />
    <glyph glyph-name="uni3013" unicode="&#x3013;" horiz-adv-x="166" 
d="M10 157h146v-40h-146v40zM10 74h146v-40h-146v40z" />
    <glyph glyph-name="uni3014" unicode="&#x3014;" horiz-adv-x="84" 
d="M74 207l-56 -29v-178l53 -25l-2 -8l-59 29v187l61 32z" />
    <glyph glyph-name="uni3015" unicode="&#x3015;" horiz-adv-x="84" 
d="M10 207l3 8l61 -32v-187l-59 -29l-2 8l53 25v178z" />
    <glyph glyph-name="uni3016" unicode="&#x3016;" horiz-adv-x="84" 
d="M10 214h64q-39 -44 -40 -124q1 -79 40 -122h-64v246zM15 209v-236h48q-34 46 -34 117q0 72 34 119h-48z" />
    <glyph glyph-name="uni3017" unicode="&#x3017;" horiz-adv-x="84" 
d="M74 214v-246h-64q39 43 40 122q-1 80 -40 124h64zM69 209h-48q34 -47 34 -119q0 -71 -34 -117h48v236z" />
    <glyph glyph-name="uni3041" unicode="&#x3041;" horiz-adv-x="192" 
d="M93 29l-19 -6q0 3 -2 5q-1 0 -3 -2q-32 -22 -51 -7q-8 7 -8 20v3q0 8 8 25q1 4 2 5q11 14 24 25q9 7 23 13v1q0 4 1 11q1 8 1 11h-24h-18l-2 19q10 -1 22 -1h13h12v1q2 6 2 14v3v7q-1 5 -1 7h6q5 0 15 -2q5 -1 7 -1q-3 -7 -9 -22q-1 -4 -1 -5q24 3 45 9l2 -19
q-24 -6 -50 -8q-1 -9 -4 -19q12 3 24 3h3q1 5 1 11h2l22 -4q-1 -4 -3 -9q17 -3 29 -12q19 -13 20 -38v-5q0 -23 -17 -39q-11 -14 -34 -21q-2 -1 -2 0l-15 13v3q17 3 30 13q17 13 17 30v5q-2 26 -33 35q-13 -31 -39 -59v-2q1 -4 4 -11zM82 94v-10q0 -5 2 -16q-2 7 0 -3l2 2
q12 15 20 36h-2q-15 -2 -22 -5v-4zM65 78v11v2q-22 -11 -29 -28q-12 -19 -2 -27q6 -6 17 1q9 3 17 11q-3 15 -3 30z" />
    <glyph glyph-name="uni3042" unicode="&#x3042;" horiz-adv-x="228" 
d="M42 157h15q5 0 16 1h8q0 2 1 5q2 17 2 26q0 4 -1 10h5q5 0 14 -1q8 -1 12 -1q1 -4 -2 -10q-2 -3 -2 -5q0 -3 -2 -10q-1 -8 -2 -11q5 0 11 2q27 4 45 10v-25q-27 -6 -55 -11h-5q-1 -10 -2 -24q13 4 31 6q0 1 1 4v4v2q-1 2 2 4l24 -4l1 -2l-1 -1q-1 -2 -3 -8q23 -1 40 -15
q22 -23 23 -49v-7q-1 -36 -39 -60q-15 -10 -24 -10h-1q-12 13 -22 19q25 2 43 16q18 16 19 37v3q-1 24 -21 39q-3 2 -11 4h-2q-4 2 -11 3q-14 -39 -43 -73q4 -12 7 -18q-3 -1 -10 -4t-11 -3q-3 0 -5 6q-7 -6 -11 -6q-19 -15 -37 -15h-4q-23 1 -25 34v4q1 29 29 59
q14 13 37 23q0 6 1 19q1 12 1 10h-15q-11 -1 -17 -1h-15q-3 0 -3 1q-4 4 -6 14v1q-3 6 -1 9q11 -1 21 -1zM80 29l-1 3q-3 25 -3 50q-23 -12 -37 -38q-6 -9 -6 -20q1 -15 13 -15t25 11q4 5 9 9zM100 93v-24q0 -18 1 -18q19 26 26 48q-17 -3 -24 -5q-1 -1 -3 -1z" />
    <glyph glyph-name="uni3043" unicode="&#x3043;" horiz-adv-x="202" 
d="M12 154l24 -6q1 -3 -2 -7v-6q0 -33 13 -66l3 -6q5 -12 11 -15q2 -1 4 -1q5 0 12 7l1 1q7 6 13 14h2l11 -19v-3q-8 -9 -17 -16q-13 -11 -23 -11q-16 -1 -32 32q-10 20 -17 66q-2 14 -3 20q0 5 -1 12q-1 3 -1 4h2zM192 77l-22 -8q-14 36 -38 68l17 9h2q28 -36 41 -69z" />
    <glyph glyph-name="uni3044" unicode="&#x3044;" horiz-adv-x="242" 
d="M10 167l1 1q18 -3 34 -7q0 -2 -2 -7q-2 -7 -2 -11q-1 -5 -1 -12v-7q0 -25 4 -42q6 -21 14 -40q7 -16 17 -16q7 0 15 7q10 9 16 19h2l12 -18q2 -1 0 -3q-4 -10 -14 -18q-15 -14 -33 -14q-24 0 -38 31q-3 7 -7 20q-2 9 -4 13q-6 28 -9 56q0 3 -1 10q-1 6 -2 9q0 5 -1 15
q0 9 -1 14zM159 141l23 7h2q18 -22 39 -65q8 -14 9 -22l-24 -11h-4q-15 48 -46 88z" />
    <glyph glyph-name="uni3045" unicode="&#x3045;" horiz-adv-x="132" 
d="M111 175l-6 -21q-25 5 -51 14h-2q-4 1 -5 5l7 18q27 -12 57 -16zM122 91v-5q-1 -54 -51 -87l-17 14q33 18 42 48q3 8 5 24v1q0 10 -6 19q-8 13 -27 8q-11 -4 -20 -9q-7 -4 -13 -7q-4 -2 -7 -2l-18 23q1 1 2 1h6q7 0 21 5l9 3l9 3q17 5 26 5h5q14 -1 24 -12q10 -15 10 -32
z" />
    <glyph glyph-name="uni3046" unicode="&#x3046;" horiz-adv-x="158" 
d="M52 183l10 24h1q39 -16 70 -21l1 -1q-1 -3 -2 -9q-3 -11 -4 -17l-1 -1q-6 0 -19 4q-1 1 -2 1q-14 4 -40 12q-8 3 -13 5zM10 119h7q10 0 28 6q13 3 26 7q15 5 32 5h3q23 -1 33 -18q9 -13 9 -33v-9q-1 -62 -55 -108q-1 0 -3 -1t-3 -1h-1l-1 1q-8 7 -20 15v2q54 36 56 97v5
q-1 26 -22 27h-4q-9 0 -26 -8q-2 -1 -3 -1q-15 -5 -27 -14l-2 -2q-4 -3 -6 -2l-21 29v3z" />
    <glyph glyph-name="uni3047" unicode="&#x3047;" horiz-adv-x="180" 
d="M128 165l-11 -19q-25 9 -51 22v1l11 17q33 -16 51 -21zM106 133l20 -11v-3q-14 -8 -32 -32q-4 -5 -6 -8h7q10 0 14 -6q4 -3 6 -11q0 -3 1 -9q1 -13 2 -18q6 -11 18 -12h4q17 0 30 6v-24q-15 -3 -31 -3h-11q-14 0 -22 7q-6 9 -8 19q-1 12 -3 24q-3 8 -10 9h-4h-2
q-1 -1 -2 -1q-9 -5 -18 -18q-9 -9 -23 -27q-1 -3 -5 -7q-1 -2 -2 -3l-19 15q47 47 75 91q-6 -2 -21 -5q-15 -2 -22 -5q-1 0 -3 -1q-2 -2 -5 -2l-10 24q9 1 29 2q35 2 52 9h1z" />
    <glyph glyph-name="uni3048" unicode="&#x3048;" horiz-adv-x="218" 
d="M91 205h2q31 -17 49 -23q1 -1 3 -2q4 -1 5 -3l-8 -21l-3 -1q-31 11 -59 28v2q5 9 11 20zM27 125h5q27 0 53 5q19 1 34 7q5 2 6 4h2l23 -14q2 -1 1 -4v-1q-13 -9 -32 -34l-12 -15h7q11 0 19 -6q5 -6 7 -20q1 -3 2 -9q2 -12 4 -18q3 -12 14 -13h12q16 0 36 5v-27
q-17 -2 -32 -2h-21q-19 0 -28 13q-6 9 -10 30q0 2 -1 5q-1 7 -2 10q-5 9 -13 9q-11 0 -21 -12q-24 -27 -43 -55h-2q-12 9 -25 16v1q29 27 70 77q17 20 24 34l-1 2q-10 -5 -30 -8q-16 -3 -23 -6q-2 0 -5 -2q-3 -3 -5 -2z" />
    <glyph glyph-name="uni3049" unicode="&#x3049;" horiz-adv-x="188" 
d="M130 137l10 17q20 -10 38 -24l-11 -16q-23 18 -37 23zM54 178l26 -3l2 -2q-5 -10 -7 -27q0 -5 0 -3q4 0 13 2l15 3v-18q-5 -2 -17 -4q-9 -2 -12 -3v-29q23 9 41 9h6q18 0 30 -8q15 -11 16 -29v-4q0 -23 -19 -35q-14 -10 -40 -15l-2 1l-11 16v2q50 7 51 32q-1 23 -31 24
q-17 -1 -41 -13v-11q0 -7 1 -20q1 -12 1 -18v-5q-1 -10 -11 -14q-9 -4 -23 2q-32 12 -32 32q0 14 17 27q12 9 25 17v16v9q1 7 1 11q-8 -1 -26 -1h-7l-2 21h2q5 -2 12 -2h4q5 0 16 2q-7 -2 3 0v13v6q0 5 -1 14q-1 3 -1 4zM53 63q-22 -15 -22 -23q0 -5 6 -9q5 -4 14 -5
q4 0 4 3q0 10 -2 31q2 -15 0 3z" />
    <glyph glyph-name="uni304A" unicode="&#x304a;" horiz-adv-x="224" 
d="M213 138l1 -1l-12 -21h-2q-24 16 -49 29v2l12 17l2 1q30 -15 48 -27zM56 194h7q5 0 15 -1q10 -2 15 -2l1 -2q-6 -19 -7 -41q1 1 10 3q15 5 23 8l1 -25q-18 -6 -36 -10q-1 -9 -1 -18v-17q30 14 54 14h4q24 0 40 -10q19 -14 20 -36v-5q0 -13 -6 -24t-18 -20
q-21 -15 -53 -18q-6 10 -16 23q17 1 33 7q21 8 28 20q6 12 0 25q-9 13 -30 14h-5q-21 0 -49 -14q0 -3 1 -8q0 -5 1 -16q2 -21 2 -32v-5q-1 -18 -15 -24q-13 -2 -29 5q-36 13 -36 34q0 15 14 31q18 18 35 27q-1 22 0 42q-4 0 -12 -1q-16 -2 -24 -2h-7l-3 25l1 2q11 -2 22 -2
q15 0 24 2q0 19 -4 51zM61 50q-1 0 -2 -1q-18 -11 -21 -21q-2 -9 4 -15q12 -10 19 -4q3 2 3 9q0 8 -2 17v8q-1 5 -1 7z" />
    <glyph glyph-name="uni304B" unicode="&#x304b;" horiz-adv-x="260" 
d="M173 148v3q3 3 9 7q6 5 9 7t9 -6q10 -9 19 -21q17 -20 31 -41v-3l-24 -15q-28 44 -53 69zM124 135h15q15 0 20 -8q6 -8 6 -19v-4q0 -27 -9 -59q-8 -35 -28 -45q-12 -7 -34 -7h-5q-3 0 -3 1q-2 4 -5 11q-4 9 -7 14v1q4 0 11 -1t10 -1h4q13 0 19 9q4 4 10 18q1 1 1 2
q9 23 9 48v6q-1 11 -10 12q-7 0 -22 -2q-7 -1 -11 -1q-14 -43 -38 -82q-9 -15 -21 -28q-4 0 -12 5q-3 2 -5 3q-1 0 -2 1q-6 1 -7 4q22 19 39 54q10 20 19 39q-15 -1 -29 -8l-1 -1q-3 -2 -7 -2l-14 29l1 2q9 -2 28 0q7 1 10 1q10 3 19 3q2 6 3 10q6 18 6 40v4v3q-1 2 -1 4
q4 -1 11 -2q14 -2 22 -4q0 -4 -4 -9q-1 -1 -1 -2q-2 -4 -3 -14q-1 -3 -1 -5q0 -3 -2 -11q-1 -7 -2 -11q11 2 21 2z" />
    <glyph glyph-name="uni304C" unicode="&#x304c;" horiz-adv-x="272" 
d="M230 94l-1 -2l-21 -12q-20 37 -49 68v3l19 11q28 -26 52 -68zM237 161v-2l-13 -11h-2q-13 20 -24 26v2l12 10h2q10 -8 25 -25zM223 195v2l12 10h2q1 -1 3 -2q7 -6 16 -15q6 -6 6 -10l-12 -11h-2q-10 15 -25 26zM77 191l34 -8q-1 -3 -3 -8q-2 -3 -3 -5q-1 -3 -2 -11
q-1 -3 -1 -5q-1 -4 -2 -12q-2 -7 -2 -10q3 1 8 1q6 1 8 1t6 1h6h4q10 0 19 -4q10 -8 10 -20v-12q0 -27 -9 -63q-7 -34 -27 -39q-15 -7 -31 -7h-7q-3 7 -8 17q-3 6 -4 9l1 2q2 0 7 -1q9 -2 14 -2h4q14 0 21 13q5 11 9 27q6 29 6 46q-1 13 -14 12q-5 -1 -15 -2l-15 -3
q-20 -67 -55 -111l-2 -1q-5 3 -16 7q-5 3 -8 4v2q23 26 36 51q6 10 15 34q3 6 4 9q-15 -4 -30 -10q-4 -3 -9 -3l-11 28l2 2q2 0 6 -1q5 -1 8 0q7 1 21 4q13 3 19 4q0 3 1 6q5 23 5 47v11z" />
    <glyph glyph-name="uni304D" unicode="&#x304d;" horiz-adv-x="184" 
d="M132 186h2q8 -14 9 -21q-8 -5 -24 -10q-5 -2 -8 -3q3 -4 8 -14q5 -9 7 -14q6 2 18 7l18 6h3l9 -18l-1 -3q-4 -1 -11 -3q-8 -3 -12 -4q-6 -3 -13 -4q2 -3 3 -6q12 -19 28 -39q0 -1 1 -2q4 -5 4 -8l-22 -21q-32 21 -80 21h-6q-13 0 -21 -4q-13 -9 -9 -22q1 -4 11 -11
q11 -7 23 -8q15 -3 30 -3h5q6 0 12 1l-2 -28h-7q-93 5 -97 54v5q1 16 20 29q19 9 40 9h10q21 0 50 -9h1q-2 3 -6 10q-3 7 -13 25q-10 -3 -21 -4q-27 -4 -55 -5l-2 1l-12 19l1 2h7q29 0 57 5q8 0 14 2q-6 13 -13 28q-21 -6 -43 -9q-2 4 -6 9q-3 4 -4 6q-3 3 -4 7h3q20 3 43 8
q-1 4 -5 12l-6 12q0 2 -2 4q-1 4 -1 6l27 5q6 -17 12 -32q15 5 30 12z" />
    <glyph glyph-name="uni304E" unicode="&#x304e;" horiz-adv-x="230" 
d="M192 172l-1 -3l-14 -10h-2q-4 4 -10 11q-12 14 -19 19v2l15 10h3q3 -3 8 -7q8 -7 20 -22zM220 189v-2l-13 -11h-2q-13 17 -30 30v2l15 10h2q16 -13 28 -29zM124 184l11 -19v-3q-12 -8 -34 -15q1 -2 4 -7t4 -7q3 -6 7 -12q20 6 39 15l10 -20q-16 -10 -36 -16q9 -15 21 -30
q3 -3 9 -10t8 -11l1 -2l-25 -16q-28 14 -59 14h-11q-16 0 -28 -6q-17 -14 -5 -29q9 -5 19 -8q11 -2 22 -2h5h14q1 0 4 1q5 1 7 0v-26h-26q-24 0 -46 9q-28 12 -29 36v6q1 21 24 33q17 7 42 7h11q8 0 25 -2q9 -1 13 -1q-11 14 -19 29q-3 0 -7 -1h-5q-33 -7 -60 -7h-8l-11 25
h12q34 0 65 6q-6 13 -13 26q-20 -6 -41 -6h-4l-13 22h6q9 0 18 2q12 1 22 4q-8 18 -20 36l32 6h2q1 -15 9 -36q18 6 34 15z" />
    <glyph glyph-name="uni304F" unicode="&#x304f;" horiz-adv-x="120" 
d="M76 205h2l27 -19v-3q-10 -8 -20 -25q-19 -26 -40 -50q-1 -1 -2 -3q-8 -11 -8 -17q0 -9 8 -15q4 -6 13 -17l5 -5q12 -17 26 -34q2 -3 6 -7q11 -15 17 -25v-2l-25 -16h-2q-4 6 -12 20q-7 14 -12 20q-7 12 -23 34q-8 11 -12 16q-1 2 -4 5q-10 14 -10 24v4q1 12 10 24
q2 3 6 8q7 9 10 14q18 21 30 46q7 11 10 23z" />
    <glyph glyph-name="uni3050" unicode="&#x3050;" horiz-adv-x="187" 
d="M77 205h2q13 -9 28 -15v-2q-4 -3 -8 -11q-1 -2 -2 -3q-18 -31 -40 -59q-6 -7 -11 -15q0 -1 -2 -3q-3 -6 -3 -9q0 -6 9 -15l1 -1q45 -50 63 -76q1 -1 2 -4q4 -4 3 -7l-24 -16h-2q-18 33 -59 83q-13 15 -18 24q-6 12 3 29q3 4 7 11q5 8 7 11q36 48 44 78zM111 138v3l13 13
h2q2 -1 6 -4q12 -9 18 -15q1 -1 2 -1q2 -1 2 -4t-2 -3q-2 -2 -6 -5l-6 -6h-2l-5 5q-14 12 -22 17zM135 164l12 14q6 -1 15 -9q2 -1 3 -2q6 -6 12 -11v-2l-13 -13q0 -1 -2 0q-13 11 -27 21v2z" />
    <glyph glyph-name="uni3051" unicode="&#x3051;" horiz-adv-x="226" 
d="M34 93v-11q0 -31 8 -48h2q4 4 9 14q3 7 5 10h2l8 -6q-12 -33 -12 -56v-6q-4 0 -11 -1t-11 -1q-7 9 -11 19q-13 33 -13 74v14q0 32 8 63q6 20 0 33q12 0 32 -8q0 -4 -3 -12q-2 -4 -2 -6q-11 -42 -11 -72zM144 191l37 -2q0 -3 -2 -9q-2 -4 -2 -6q-1 -7 -1 -13v-8
q0 -9 1 -19q18 5 36 9l3 -24q-18 -6 -38 -9v-17q1 -42 -7 -62q-12 -34 -41 -54h-1q-1 0 -3 1t-3 1q-9 6 -18 10l-1 1q30 20 40 41q11 21 10 63v12q-20 -1 -41 -1h-13h-3l-9 26l1 2q4 0 11 -1q14 -2 22 -2h14q9 0 17 1q-1 37 -9 60z" />
    <glyph glyph-name="uni3052" unicode="&#x3052;" horiz-adv-x="262" 
d="M20 194l32 -8q-1 -5 -4 -14q-1 -3 -2 -5q-12 -43 -12 -76v-15q1 -22 10 -42h2q3 5 8 18q3 6 4 9l13 -11q-12 -23 -16 -60l-19 -2q-25 39 -26 92v13q0 20 6 58q4 18 4 37v6zM188 185l14 12q3 -2 8 -7q13 -10 18 -17l-13 -14q-12 14 -27 26zM210 205l13 13q3 -2 8 -6
q14 -11 21 -18l-13 -14q-12 15 -29 25zM144 194h5q4 0 14 -1q10 -2 15 -2q-3 -12 -3 -24v-4q0 -4 1 -14q1 -7 1 -12q8 1 25 6q5 1 8 2h2q2 -13 3 -25q-9 -3 -26 -5q-6 -1 -9 -2v3q-1 3 0 1v-13v-9q0 -28 -6 -53q-8 -26 -25 -45q-7 -11 -16 -18q-12 6 -26 8l-1 1q25 18 37 46
q12 27 11 59v13q0 16 0 5q-5 -1 -11 -1q-16 -1 -33 -1h-15l-6 25l1 1q14 -2 27 -2h13q15 0 21 1q-1 13 -3 30q-3 23 -4 30z" />
    <glyph glyph-name="uni3053" unicode="&#x3053;" horiz-adv-x="194" 
d="M94 169h8q16 0 47 7q-1 0 3 1v-29q-21 -2 -41 -2h-23q-21 1 -41 4l-2 1l-6 28l1 1q3 -1 8 -2q30 -9 46 -9zM89 29h21q36 0 74 9v-32q-31 -6 -77 -6h-15q-30 0 -47 8q-16 7 -35 26v3l17 15q1 2 1 0q16 -15 29 -19q10 -4 32 -4z" />
    <glyph glyph-name="uni3054" unicode="&#x3054;" 
d="M50 151l-6 27q6 -1 18 -4q23 -5 35 -5h4q20 0 53 8v-31q-18 -3 -34 -3h-11q-22 0 -59 8zM10 37l18 15q2 2 3 0q14 -15 27 -19q17 -7 39 -7h12q39 0 77 11v-35q-36 -2 -73 -2h-17q-28 0 -40 4q-20 6 -40 25q-6 4 -6 8zM175 138v3l13 13h2q12 -9 24 -19q3 -2 4 -5
q0 -1 -1 -1q0 -2 -1 -2q-2 -2 -6 -5l-6 -6h-2q-13 13 -27 22zM199 164l12 14q6 -1 15 -9q2 -1 3 -2q6 -6 12 -11v-2l-13 -13q-2 -1 -2 0q-13 11 -27 21v2z" />
    <glyph glyph-name="uni3055" unicode="&#x3055;" horiz-adv-x="184" 
d="M151 162l2 -1l6 -20v-4q-16 -6 -34 -10q25 -44 49 -66v-2l-23 -18h-3q-15 12 -35 17q-16 5 -33 5h-4q-14 0 -27 -5q-14 -9 -15 -21q0 -6 4 -10q7 -8 18 -12q13 -6 36 -6h12h17h1l-3 -26h-17q-33 0 -60 13q-31 12 -32 41v4q1 23 20 35q15 8 36 8h13q32 0 52 -11l1 3
q-17 21 -32 45q-38 -8 -77 -10l-10 23l1 2q7 -1 14 -1h4q29 0 57 7q-1 1 -2 3t-2 3q-10 21 -22 41v2q16 2 31 5q2 -20 17 -49q22 6 40 15z" />
    <glyph glyph-name="uni3056" unicode="&#x3056;" horiz-adv-x="228" 
d="M150 178v2l13 13h2q6 -4 16 -12q6 -5 9 -7q0 -1 2 -3q1 -1 1 -2q0 -2 -1 -3t-3 -2q-4 -4 -9 -8q-2 -1 -2 0q-13 10 -28 22zM174 202l12 15q6 -1 15 -9q2 -1 3 -2l5 -5q5 -4 7 -6t0 -2l-12 -13q-2 -1 -2 0q-4 4 -14 11q-9 7 -14 10v1zM153 162h2l8 -25q-19 -6 -41 -12
l6 -9q1 -2 2 -3q23 -37 40 -52l-22 -22q-29 24 -68 24h-4q-15 0 -31 -5q-14 -5 -14 -18q-1 -21 35 -30q16 -3 35 -3h17l-4 -24h-11q-33 0 -58 11q-34 14 -35 44v3q1 23 20 35q16 8 42 8h8q20 0 48 -7q-15 21 -29 43h-3q-15 -3 -31 -4q-18 -2 -36 -2h-6q-2 0 -2 1l-11 22h20
q25 0 57 5q0 2 -1 4q-1 3 -2 4q-2 4 -7 13q-8 17 -14 26v1l34 3q1 -6 1 -13q2 -11 12 -33q23 5 43 15z" />
    <glyph glyph-name="uni3057" unicode="&#x3057;" horiz-adv-x="168" 
d="M10 199h2l32 -6q-1 -6 -3 -13v-138q0 -19 6 -27q9 -10 21 -10h6q9 0 17 4q12 4 23 11q16 10 28 25h2l12 -23q2 -2 0 -2q-20 -21 -42 -30q-20 -11 -44 -11h-3q-18 0 -33 10q-17 10 -20 29q-1 14 -1 29v131q0 4 -2 12q-1 6 -1 9z" />
    <glyph glyph-name="uni3058" unicode="&#x3058;" horiz-adv-x="182" 
d="M10 199l34 -4l1 -4q-2 -3 -4 -11v-2v-2v-128q0 -17 7 -31q8 -12 26 -12h4q34 0 68 40h2l13 -21v-2q-16 -19 -38 -30q-24 -13 -49 -13h-7q-29 2 -44 25q-9 18 -9 47v123q0 13 -4 25zM106 153v2l13 13h2q1 -1 4 -3q14 -10 20 -17q4 -1 4 -4q0 -1 -1 -2l-1 -1q-6 -6 -12 -10
q-1 -1 -2 0q-4 3 -11 9q-10 9 -16 13zM130 178l12 13q6 0 15 -8l3 -3q6 -4 12 -11v-1l-13 -13q0 -1 -2 0q-13 11 -27 21v2z" />
    <glyph glyph-name="uni3059" unicode="&#x3059;" horiz-adv-x="234" 
d="M118 79v13q-1 10 -8 11q-6 0 -10 -4q-9 -8 -9 -20v-6q1 -20 13 -21q7 0 12 11q3 7 2 16zM112 213l35 -6q-5 -14 -5 -31v-9h37h45v-29q-37 6 -75 5h-7v-31l1 -1q9 -12 9 -34v-17q0 -16 -10 -42q-9 -18 -22 -33q-9 -9 -19 -18h-2q-14 9 -29 14v2q38 17 53 51q-21 -10 -39 0
q-19 13 -20 40v5q5 41 42 46h5h7v18h-11q-42 0 -85 -10l-2 1l-10 29l1 2q3 0 11 -1t12 -1h12q4 0 17 1q31 1 55 2q-2 23 -5 40q-1 5 -1 7z" />
    <glyph glyph-name="uni305A" unicode="&#x305a;" horiz-adv-x="248" 
d="M238 196l-13 -11q-3 2 -8 7q-10 10 -16 14l11 11q2 -2 7 -5q13 -10 19 -16zM221 179l-13 -11q-17 17 -27 23l13 11q10 -6 27 -23zM121 77v14q-1 12 -10 12q-6 0 -12 -8q-10 -11 -7 -28q4 -15 15 -15q13 0 14 25zM149 207l1 -2q-7 -13 -7 -36q0 1 0 -5q7 0 21 1h20h43v-28
q-35 6 -71 6h-14q0 13 0 -10v-23q2 -2 4 -5q9 -12 9 -32v-6q-1 -46 -29 -79q-8 -11 -22 -21q-1 -2 -2 0q-4 1 -11 5q-13 5 -21 7q17 7 30 20q19 15 21 32q-6 -2 -12 -2h-4q-34 4 -38 43v4q5 42 42 46h4q5 0 6 -1q2 11 2 22q-26 -1 -52 -5q-24 -2 -47 -8l-12 29l1 3q3 0 8 -1
q10 -2 15 -2h5q14 0 42 2q14 1 21 1q10 0 19 1q-2 28 -8 47q18 -1 36 -3z" />
    <glyph glyph-name="uni305B" unicode="&#x305b;" horiz-adv-x="256" 
d="M10 118l2 2q8 -1 15 -1h6q10 0 19 1q14 2 22 2v21q1 17 -5 32l34 -2q1 -2 -1 -6l-1 -1q-2 -10 -2 -21v-20q11 0 13 1q8 1 25 2q17 2 25 2v7q1 10 1 14v17q0 11 -4 23h3q13 -2 28 -2l1 -1q0 -7 -1 -27q-2 -28 -2 -29q13 0 18 1q18 0 36 2l4 -30q-13 4 -27 4h-14
q-6 0 -19 -1v-8q-2 -25 -7 -37q-6 -18 -21 -18h-3q-7 0 -13 2v24h5q8 0 10 13q3 9 4 19v3q-23 -1 -41 -2q-7 -1 -21 -2q0 -43 2 -62q1 -21 18 -22h42q23 0 47 5v-27q-6 0 -17 -1q-22 -2 -34 -2h-13q-29 -1 -42 5q-21 5 -25 31q-3 10 -3 33v38q-13 -1 -47 -8q-3 -2 -9 -2z
" />
    <glyph glyph-name="uni305C" unicode="&#x305c;" horiz-adv-x="272" 
d="M194 164v2l13 13h2q13 -8 25 -20l1 -1q2 -1 2 -3q0 -1 -1 -2v-1q-2 -2 -7 -6q-4 -3 -5 -4q-2 -1 -2 0q-3 2 -10 8q-3 3 -18 14zM218 189l12 13q8 -1 18 -11q8 -4 12 -11q2 0 0 -1l-13 -13q0 -1 -1 0q-15 11 -28 21v2zM149 189l31 -3v-2l-3 -9v-24q-1 -16 -1 -25q4 0 11 1
q14 1 21 2q8 0 25 2q-12 -2 3 0v-26h-34h-12h-15q0 -4 -1 -11q0 -8 -1 -12q0 -4 -1 -11v-9q-3 -13 -13 -21q-9 -5 -28 0l-1 25h8q5 0 10 8q1 3 1 8q1 5 1 8q0 7 1 13h-9h-3q-23 -1 -50 -4v-37q0 -3 1 -9v-7t1 -5q1 -8 2 -11q5 -16 23 -17h24q32 1 62 7l-4 -30h-89
q-7 0 -21 6q-7 3 -12 10q-10 14 -10 39v52l-24 -3t-25 -3q-3 -1 -7 -1v26h24q15 0 32 2q0 28 -5 55l30 -4q0 -3 -1 -11q-1 -7 -1 -11v-27q14 0 28 2q10 0 31 2q-15 -2 3 0v42q0 3 -1 11t-1 12z" />
    <glyph glyph-name="uni305D" unicode="&#x305d;" horiz-adv-x="220" 
d="M95 145l-1 -2l-23 -11l-2 1q-1 2 -2 5q-13 27 -22 40q2 1 7 4q11 6 17 7q15 -21 26 -44zM154 199l31 -15v-2q-6 -3 -14 -14q-1 -1 -1 -2q-1 -2 -3 -5q-13 -19 -21 -29q-2 -4 -8 -9q-3 -4 -5 -6l21 3q14 1 21 2q3 0 10 1q13 2 20 2h5v-27h-9q-17 0 -45 -12q-18 -9 -30 -24
q-14 -18 -9 -31q8 -18 30 -24q16 -4 34 -5q-1 -3 -3 -10q-3 -12 -5 -17h-4q-8 0 -23 4q-4 1 -6 1l-6 3q-6 3 -19 10q-23 14 -25 42v5q0 19 18 37q10 11 22 18q-45 -7 -83 -24q-1 -1 -4 -2q-10 -6 -16 -6q-3 0 -8 8q-1 1 -1 2q-1 1 -2 4q-5 12 -6 18q12 -4 36 2q3 1 4 1
q5 1 16 4l21 6h2q2 1 3 1q8 6 21 21q29 36 38 69h3z" />
    <glyph glyph-name="uni305E" unicode="&#x305e;" horiz-adv-x="268" 
d="M95 146l-24 -11q-11 24 -25 48l21 8q8 -10 21 -32q5 -9 7 -13zM233 168l-13 -11q-12 14 -27 26l13 11q15 -12 27 -26zM258 190l-12 -11l-26 26l13 11q13 -12 25 -26zM185 186v-2q-9 -7 -21 -26q-5 -8 -8 -11l-9 -12q-8 -9 -11 -13l-3 -3l-1 -1l18 3q12 1 18 2h2
q25 4 40 4l2 -26h-9q-12 0 -40 -9q-1 -1 -2 -1q-22 -9 -32 -22q-13 -15 -13 -28q0 -14 10 -22q15 -14 45 -14h9l-9 -28q-27 3 -53 16q-28 15 -29 42v5q-1 16 17 36q9 13 23 22q-4 -1 -11 -2q-64 -14 -93 -33l-15 32h8q13 0 37 6q13 2 33 8q5 1 8 2q2 2 5 7q8 10 11 14
q29 34 38 67q7 -1 20 -7q10 -5 15 -6z" />
    <glyph glyph-name="uni305F" unicode="&#x305f;" horiz-adv-x="230" 
d="M162 116h9q16 0 34 -1l1 -27l-1 -1q-28 6 -43 6h-10q-11 0 -22 -3l4 25h13q10 1 15 1zM220 18l-3 -28q-16 -2 -33 -2h-10q-21 0 -44 5q-1 0 -4 1q-7 0 -9 3l-1 23q3 -1 9 -2q28 -5 44 -5h5q23 0 46 5zM85 202h2l30 -8v-3q-7 -4 -10 -16q-3 -6 -6 -17q-1 -4 -2 -6l33 6
q5 1 7 2l2 -1v-26q-24 -4 -48 -6q0 -1 -1 -5q1 2 -1 -2q-23 -85 -53 -137l-27 8l-1 2q35 64 58 133q-7 -1 -20 -1q-13 -1 -20 -1l-2 1l-4 24l1 2q4 0 13 -1q8 -1 12 -1h8q9 0 19 1q1 2 2 6q8 27 8 40v6z" />
    <glyph glyph-name="uni3060" unicode="&#x3060;" horiz-adv-x="260" 
d="M171 114h9q7 0 20 -2q7 -1 10 -1l-1 -27q-24 6 -38 6h-8q-7 0 -21 -2q-5 -1 -8 -1l2 24q4 0 12 1q16 2 23 2zM170 9h10q27 0 41 6l-2 -27q-18 -3 -35 -3h-7q-25 0 -60 11l4 22q2 -1 7 -2q28 -7 42 -7zM184 156v2l13 12q0 2 2 0q12 -7 23 -18l5 -5l-2 -2l-1 -1
q-4 -6 -12 -10q0 -1 -2 0q-13 10 -26 22zM208 180l12 15q5 -1 13 -7q3 -3 5 -4q7 -7 12 -11v-3l-14 -12q0 -1 -2 0q-4 4 -13 11q-8 7 -13 10v1zM85 199h4l32 -8v-2q-7 -6 -8 -14l-3 -9q-4 -11 -6 -18q20 5 39 9l2 -1l-3 -26q-22 -4 -45 -6q-11 -39 -26 -77q-12 -35 -30 -67
l-1 -1l-30 11q23 30 43 84q5 11 12 32q4 11 6 16h-21h-15q-3 0 -4 1l-4 25q5 0 15 -1t15 -1h11h10q7 23 7 47v6z" />
    <glyph glyph-name="uni3061" unicode="&#x3061;" horiz-adv-x="222" 
d="M97 199l1 -1q-6 -9 -7 -19q-2 -6 -4 -16q-1 -6 -2 -9q36 3 68 15v-27q-35 -10 -71 -13q-1 -15 -4 -28q0 -3 -1 -9t-1 -8v-4q0 -2 1 -2q2 1 5 2q44 24 69 23h7q22 0 40 -16q14 -16 14 -37v-4q-1 -24 -21 -45q-19 -15 -51 -22q-14 -2 -28 -2h-6q-6 9 -11 18l-1 1q-5 4 -5 6
h14q22 0 35 3q15 2 25 9q30 20 19 48q-8 16 -33 17h-3q-44 -1 -75 -45q-5 0 -15 2q-3 1 -5 1q-1 2 -1 3v4q4 57 9 83h-6h-7q-10 0 -31 4q15 -3 -3 0l-2 26q18 -3 39 -3h13q4 17 4 36v4q0 4 -1 7q17 0 32 -2z" />
    <glyph glyph-name="uni3062" unicode="&#x3062;" horiz-adv-x="256" 
d="M246 180l-13 -12q-12 15 -28 28l13 12l5 -5q16 -13 23 -23zM223 163l-13 -13l-9 9q-4 5 -19 19l13 12l11 -11q12 -10 17 -16zM157 169h2v-28q-15 -6 -48 -10q-12 -1 -24 -3q-6 -52 -5 -55q13 13 28 20q20 10 42 10h6q28 0 44 -13q18 -16 19 -38v-5q0 -16 -13 -33
q-8 -12 -30 -24q-24 -12 -65 -14l-15 24h6q10 0 19 2q18 2 30 7q37 15 38 39v4q0 1 -1 3q-4 14 -11 18q-8 6 -19 6h-7q-51 -3 -77 -48l-21 6q5 45 9 89q-17 -1 -46 -1l-8 29q7 0 19 -2q12 -1 18 -1h20v5q2 13 2 27v5q0 7 -3 13q9 0 25 -2q8 -1 12 -1q-2 -6 -5 -10
q-7 -14 -8 -36q14 2 26 5q21 3 41 12z" />
    <glyph glyph-name="uni3063" unicode="&#x3063;" horiz-adv-x="212" 
d="M137 157h5q25 0 42 -15q17 -17 18 -42v-5q0 -16 -9 -30q-8 -13 -27 -26q-29 -19 -60 -21l-16 19q38 5 60 19q30 18 30 43v4q-4 29 -41 34h-4q-16 0 -31 -5q-12 -4 -24 -9q-4 -2 -11 -5q-20 -10 -29 -16q-1 0 -2 -2q-4 -3 -7 -2l-21 24q28 7 55 16q1 0 4 1q43 19 68 18z
" />
    <glyph glyph-name="uni3064" unicode="&#x3064;" horiz-adv-x="260" 
d="M160 165h5q35 0 59 -19q25 -23 26 -53v-5q0 -23 -15 -43q-12 -16 -29 -26q-20 -13 -41 -19q-22 -7 -35 -7l-24 24v1q30 2 57 12q34 12 46 26q13 13 14 32v5q-1 18 -18 34q-14 13 -35 14h-5q-18 0 -50 -10q-23 -7 -54 -21q-1 -1 -4 -2q-14 -6 -18 -13h-3l-26 28v2
q20 3 58 17q28 10 42 14q2 0 5 1q30 8 45 8z" />
    <glyph glyph-name="uni3065" unicode="&#x3065;" horiz-adv-x="270" 
d="M155 162h6q34 0 58 -18q25 -20 26 -51v-7q0 -22 -11 -39q-8 -13 -29 -28q-24 -19 -81 -27l-2 1q-9 11 -19 24q25 2 49 9q35 9 54 30q14 15 15 33v4q-1 23 -21 34q-14 10 -39 10h-4q-19 0 -39 -5q-5 -1 -15 -4q-10 -2 -15 -4q-33 -10 -54 -26l-24 29q17 2 50 14q5 2 8 3
q5 2 16 4q9 3 13 4q38 10 58 10zM194 183l11 14q20 -12 30 -21l-12 -14q-1 1 -3 2q-17 13 -26 19zM219 204l11 14q15 -9 30 -21l-12 -14q-4 3 -11 8q-12 9 -18 13z" />
    <glyph glyph-name="uni3066" unicode="&#x3066;" horiz-adv-x="228" 
d="M10 151h3l87 18q57 12 86 17q15 3 30 5l2 -29h-6q-46 0 -69 -25q-26 -28 -26 -67v-4q0 -25 14 -39q14 -15 44 -14h17v-30h-15q-40 1 -63 22q-21 21 -21 58v10q0 39 32 78q-13 -3 -40 -10q-13 -3 -20 -5l-9 -3q-20 -5 -30 -11z" />
    <glyph glyph-name="uni3067" unicode="&#x3067;" horiz-adv-x="268" 
d="M10 151h6q10 0 30 5l12 3q19 5 37 9q33 8 65 14q27 4 40 9q0 -4 3 -11q3 -10 2 -15q-5 -1 -14 -3q-24 -3 -34 -11q-22 -17 -29 -43q-6 -22 -6 -35v-6q0 -24 15 -39q15 -14 39 -15h5q8 0 16 2v-30h-8q-39 1 -63 17q-29 23 -30 63v5q0 39 31 82q-40 -10 -80 -22
q-2 -1 -7 -2q-10 -3 -14 -8l-16 28v3zM194 137l14 13q3 -3 8 -9q11 -11 16 -18l-14 -12q-14 18 -24 26zM221 157l14 12q13 -12 23 -26l-15 -12q-10 14 -22 26z" />
    <glyph glyph-name="uni3068" unicode="&#x3068;" horiz-adv-x="178" 
d="M146 159l22 -25v-2q-62 -18 -97 -41q-18 -12 -31 -30q-6 -10 -6 -17v-4q1 -18 19 -27q12 -6 34 -6h7q30 0 58 8l2 -30q-26 -2 -50 -2h-15q-35 -1 -53 11q-25 14 -26 45v5q1 34 41 62q2 3 5 4q-8 35 -32 84l27 5q15 -30 30 -75l36 18q15 6 29 17z" />
    <glyph glyph-name="uni3069" unicode="&#x3069;" horiz-adv-x="228" 
d="M153 175l16 9q2 -3 6 -8q13 -15 18 -23l-16 -10q-10 16 -24 32zM180 193l14 8q15 -13 24 -31l-14 -9q-4 6 -12 16q-8 11 -12 16zM149 154l19 -21v-2q-21 -6 -40 -13q-33 -13 -62 -31q-17 -11 -25 -24q-6 -9 -7 -21v-3q1 -17 21 -26q14 -6 32 -6h4q16 0 48 5q8 1 12 2
l2 -29q-19 -2 -42 -2h-21q-20 0 -41 7q-24 9 -34 24q-5 10 -5 24v4q0 24 22 48q11 12 26 22q-10 43 -33 82l27 4q18 -36 29 -73q2 0 3 1q15 8 31 12q3 2 10 5q11 4 16 7q1 0 2 1q3 3 6 3z" />
    <glyph glyph-name="uni306A" unicode="&#x306a;" horiz-adv-x="232" 
d="M208 103h-2q-20 23 -44 40l14 19h2q18 -13 35 -28q8 -6 9 -11zM133 168v-26q-21 -7 -44 -11q-14 -51 -52 -111h-3l-23 9l-1 2q32 41 52 98q-16 -2 -33 -2l-3 27h8q14 0 22 1q3 0 8 1h6q7 23 7 43v6q5 -2 15 -4q9 -2 14 -4q0 -5 -3 -13q-2 -6 -2 -9t-1 -8t-2 -8q18 3 35 9
zM135 125h2l23 -5q0 -6 -1 -12q0 -13 2 -41q1 -17 1 -26q28 -8 53 -23v-3l-10 -22q-4 0 -10 5q-2 2 -3 2q-13 7 -30 13q0 -10 -3 -17q-1 -3 -5 -7q-1 -2 -2 -3q-10 -11 -33 -11h-6q-22 0 -34 13q-11 12 -7 29q3 11 14 19q17 9 36 9h7q5 0 9 -1q-1 41 -3 81zM120 23h-4
q-15 -1 -20 -10q-4 -14 13 -17h9q19 1 20 24q-9 3 -18 3z" />
    <glyph glyph-name="uni306B" unicode="&#x306b;" horiz-adv-x="224" 
d="M22 191l35 -11q-1 -5 -5 -13q-2 -5 -3 -8q-16 -38 -16 -79v-8q0 -28 10 -46h1q2 4 5 11q4 7 5 10l11 -2q-1 -5 -3 -14q-5 -22 -5 -32v-6l-24 -5q-11 12 -18 39q-5 20 -5 51v11q0 32 8 64q4 17 4 33v5zM149 169h11q20 0 39 -2v-26q-7 0 -19 1t-18 1h-11q-9 0 -28 -3
q-17 -3 -26 -3l-2 27q8 0 23 2q21 3 31 3zM148 31h9q27 0 56 8l1 -27q-20 -7 -46 -7h-11q-47 0 -71 22q-7 7 -8 12l18 11q18 -19 52 -19z" />
    <glyph glyph-name="uni306C" unicode="&#x306c;" horiz-adv-x="258" 
d="M143 159h6q40 -1 62 -22q22 -23 23 -56v-4q0 -27 -12 -52l6 -3q14 -7 20 -13l-13 -20q-12 9 -26 16q-19 -21 -55 -22h-6q-34 3 -36 29q3 29 44 33h4q18 0 39 -9q9 16 9 34v6q0 26 -18 44q-15 14 -41 15h-4q-4 0 -6 -1q-4 -24 -14 -50q-5 -15 -13 -28q2 -3 8 -7q2 -1 3 -2
l-18 -18h-2q-1 1 -5 4q2 -1 -2 1q-6 -7 -13 -15q-22 -23 -43 -23h-3q-25 1 -27 34v5q0 19 13 43q8 14 17 27l-3 6q-9 17 -12 26q-2 3 -3 9q-1 1 -1 2l25 11q3 -18 11 -36q29 26 62 34q1 4 1 12v8q0 4 -2 13q-1 6 -1 9q17 -2 32 -5q1 -3 -2 -6q-1 -1 -1 -2q-2 -9 -2 -19v-3
q-1 -3 -1 -5zM115 130q-13 -4 -24 -12q-6 -4 -16 -13q-3 -3 -5 -4q14 -19 24 -28q17 28 21 57zM35 36v-5q1 -11 10 -11q6 0 18 11q2 1 3 2q8 8 15 17q-15 15 -26 32q-3 -3 -6 -8q-14 -22 -14 -38zM155 26h-7q-5 0 -10 -3q-3 -4 -4 -9q1 -11 17 -12h5q14 0 31 15q-1 0 -2 1
q-1 0 -2 1q-13 7 -28 7z" />
    <glyph glyph-name="uni306D" unicode="&#x306d;" horiz-adv-x="264" 
d="M63 201h3l32 -5q0 -3 -3 -11q-1 -3 -2 -5q-6 -15 -7 -31l2 2q4 2 8 6h2l9 -6q7 -6 10 -8q-14 -14 -30 -39q18 18 40 33q30 22 53 22h4q21 0 37 -28q9 -23 9 -41v-6q0 -19 -7 -42q17 -7 31 -22l-14 -20h-2q-9 7 -19 16l-4 2q-1 1 -2 1q-19 -28 -51 -29h-4q-25 2 -38 19
q-8 23 14 40q12 9 32 9h3q15 0 28 -5q3 15 3 31v16q0 19 -11 29q-13 10 -30 3q-18 -7 -48 -33l-4 -4q-12 -11 -24 -23v-7q0 -23 4 -63q2 -8 3 -17l-29 -2v31q1 22 1 33q-1 -2 -4 -5q-2 -4 -4 -6q-1 -3 -4 -8q-11 -16 -12 -26h-4l-24 16v2q6 5 15 16q3 3 4 5q18 27 33 54v11
q1 8 1 12q-3 -1 -10 -4q-23 -9 -32 -16l-11 27v2q37 6 54 12q0 3 1 7v7q1 7 1 16v5q0 6 -2 18q-1 6 -1 9zM188 30q-14 4 -29 4q-22 -3 -17 -16q6 -9 16 -9q7 0 14 5q9 5 15 13q0 1 1 2v1z" />
    <glyph glyph-name="uni306E" unicode="&#x306e;" horiz-adv-x="258" 
d="M248 94v-7q0 -34 -27 -63q-20 -24 -50 -36q0 -2 -2 0q-10 9 -23 15v2q72 34 73 87v5q0 24 -22 46q-18 15 -42 18q-9 -39 -22 -73q-17 -42 -31 -65q-13 -24 -32 -24q-30 1 -50 34q-10 18 -10 34v5q0 13 8 33q9 20 18 30q21 29 54 41q28 10 46 10h11q45 0 73 -27
q27 -28 28 -65zM37 77v-5q0 -16 10 -31q8 -12 19 -12q9 1 17 12q4 6 10 18q2 5 3 7q27 53 34 95q-21 -3 -38 -10q-24 -14 -41 -37q-14 -23 -14 -37z" />
    <glyph glyph-name="uni306F" unicode="&#x306f;" horiz-adv-x="236" 
d="M31 199h3l27 -10q-1 -6 -6 -16l-3 -6q-8 -21 -13 -43q-6 -28 -6 -42v-9q0 -21 7 -47h2q2 4 6 11q3 7 5 10h2l8 -8v-2q-6 -26 -10 -49l-22 -5q-21 35 -21 88v15q0 19 8 51q1 5 4 15q9 28 9 43v4zM138 194l35 -5q-2 -23 -2 -50q0 -17 0 1q21 2 42 6v-24q-20 -4 -41 -6
q1 -75 1 -72q5 -2 23 -9q2 -2 3 -2q14 -7 27 -18l-16 -19h-3q-8 6 -17 12q-4 2 -11 6q-5 3 -7 4q-4 -14 -11 -20q-14 -15 -37 -15h-5q-16 0 -30 8q-14 9 -15 26v4q1 14 15 24q12 8 30 8h5q13 0 25 -2q0 6 -1 19q-2 25 -2 38v6h-9h-12q-21 1 -43 4l-3 25q5 0 14 -2
q26 -3 40 -3h8h4q-1 26 -2 36v2q0 12 -5 18zM122 31h-5q-15 0 -19 -5q-7 -9 6 -18q19 -8 37 4q6 5 7 14q-12 5 -26 5z" />
    <glyph glyph-name="uni3070" unicode="&#x3070;" horiz-adv-x="260" 
d="M29 197h3l29 -11q0 -6 -7 -17q-1 -3 -2 -4q-20 -49 -20 -84v-8q0 -29 10 -53q1 3 4 8q2 5 7 17l12 -7q-8 -32 -8 -46v-7l-22 -6h-3q-21 43 -22 93v9q0 18 9 54q1 6 2 9q8 22 8 46v7zM229 169l-13 -11q-6 6 -20 16q-5 4 -8 6l12 14q3 -2 8 -6q15 -11 21 -19zM250 188
l-14 -12q-5 5 -16 14q-7 6 -11 9l12 13q3 -2 9 -7q14 -10 20 -17zM142 191l32 -2q-4 -16 -5 -32q0 -4 -1 -17q1 0 3 1h3q20 2 39 7v-25q-21 -4 -44 -7q0 -3 1 -9v-7q1 -8 2 -24q2 -18 3 -26v-5q18 -6 49 -24l6 -3l-17 -22q-5 3 -14 8q-15 10 -24 14q-3 -14 -11 -21
q-14 -13 -40 -14h-4q-31 1 -39 20q-9 22 10 39q11 10 34 10h4q12 0 23 -1q-2 11 -6 63h-13h-12q-21 0 -40 4v25q24 -6 39 -6h12h14v28q0 2 -1 7q-1 13 -3 19zM125 31h-4q-13 0 -19 -7q-7 -10 4 -19q20 -7 39 7q6 5 7 14q-12 5 -27 5z" />
    <glyph glyph-name="uni3071" unicode="&#x3071;" horiz-adv-x="262" 
d="M28 197h3q12 -5 29 -11v-3q-5 -6 -8 -14q-1 -3 -3 -10q-9 -24 -11 -35q-6 -23 -6 -46v-11q0 -9 2 -17q3 -15 8 -27q1 3 4 9q4 8 6 13l14 -5q-1 -2 -2 -6q-9 -30 -9 -45v-4l-19 -6h-2q-9 13 -14 26q-10 29 -10 61v17q0 16 7 48q1 6 2 9q0 2 1 5q8 30 8 46v6zM222 157
q-30 1 -31 29q2 27 31 29q28 -2 30 -29q-1 -28 -30 -29zM222 173q13 1 14 12q-1 13 -14 14q-14 -1 -15 -13q0 -13 15 -13zM125 136h12h9q-2 37 -6 55l34 -2v-2q-4 -4 -3 -13q0 -5 -1 -8v-28l2 1t3 1q18 3 35 8v-24q-12 -4 -40 -8q1 -7 1 -22q1 -15 1 -22q0 -4 1 -12v-11v-4
q25 -9 53 -25l-14 -24q-18 11 -40 21q-2 -12 -9 -19q-12 -15 -37 -15h-6q-41 4 -44 35q3 30 45 34h6q11 0 21 -1v4q-2 35 -2 49v10h-13h-10q-14 0 -41 4q19 -3 -3 0v25q22 -6 46 -7zM123 31h-5q-19 -1 -20 -14q1 -11 20 -12h4q10 0 18 5q7 7 7 17q-12 4 -24 4z" />
    <glyph glyph-name="uni3072" unicode="&#x3072;" horiz-adv-x="241" 
d="M10 169h7q36 1 72 22h2l22 -16v-2q-3 -3 -10 -7q-4 -3 -16 -13q-12 -13 -26 -41q-15 -32 -15 -52v-5q0 -17 11 -29q14 -16 32 -17h4q26 1 42 19t20 50q2 17 2 35v13q0 10 -2 30q-2 15 -2 22l24 5q0 -6 2 -10q2 -9 6 -17q3 -3 6 -12l3 -6q14 -18 29 -34q1 -1 3 -2
q5 -4 4 -7l-21 -16h-3q-15 19 -27 40v-28q-1 -48 -22 -77q-23 -29 -63 -31h-3q-28 1 -50 17q-19 19 -20 48v8q-1 44 40 101q-5 -3 -16 -6q-11 -4 -16 -6l-1 -1q-3 -4 -7 -3l-11 26v2z" />
    <glyph glyph-name="uni3073" unicode="&#x3073;" horiz-adv-x="272" 
d="M88 191h1l22 -15v-2q-23 -14 -38 -38q-15 -22 -26 -48q-5 -15 -5 -29v-4q4 -44 46 -48h4q19 0 31 10q15 12 21 25q15 32 15 68v9q0 15 -7 46q-2 9 -3 13q11 2 24 2q17 -49 54 -85l-21 -16q-15 15 -25 35q-1 -6 -2 -17q-2 -47 -14 -69q-23 -43 -73 -45h-5q-29 1 -51 19
q-18 19 -19 49v6q0 32 33 86q5 7 7 11q-5 -2 -16 -5q-14 -3 -20 -8l-11 26q5 1 17 3q36 6 52 16q1 0 4 2q3 3 5 3zM197 180l15 11q15 -15 26 -32l-15 -13q-11 18 -26 34zM220 199l14 13l4 -4q18 -15 24 -25l-13 -14q-13 17 -29 30z" />
    <glyph glyph-name="uni3074" unicode="&#x3074;" horiz-adv-x="268" 
d="M90 191l20 -15v-2q-17 -10 -37 -41q-2 -4 -6 -10q-12 -22 -16 -35q-6 -18 -6 -28v-5q5 -43 46 -48h5q26 1 43 21q13 14 18 46q3 17 3 32v8q0 25 -6 47q-3 8 -5 17q14 2 27 5q7 -43 53 -88l-21 -16q-7 7 -18 24q-6 9 -9 13v-16q0 -23 -5 -44q-5 -24 -16 -39
q-26 -33 -66 -34h-4q-27 0 -48 17q-24 22 -24 48v4q0 10 5 29q0 -1 1 3q1 5 6 16q2 5 3 8q12 24 27 48q-4 -2 -12 -4q-14 -3 -20 -7l-2 -2q-3 -3 -5 -2l-11 28h6q15 0 41 8q16 5 31 14h2zM231 146h-4q-25 2 -27 29q2 28 27 30h4q25 -2 27 -31q-1 -27 -27 -28zM242 175
q-1 13 -13 14q-12 -1 -13 -14q1 -12 13 -13q12 1 13 13z" />
    <glyph glyph-name="uni3075" unicode="&#x3075;" horiz-adv-x="270" 
d="M98 173l18 18q23 -10 47 -30l-18 -20q-21 18 -47 32zM102 125h25v-3q3 -15 7 -27l3 -6q7 -15 12 -22q1 -1 2 -4q18 -30 12 -46q-7 -23 -31 -24q-11 0 -23 3l-1 1l-3 22l1 1q18 -6 25 4q6 6 0 22q-2 4 -2 5q-8 12 -13 26q-14 26 -14 44v4zM10 58l24 8q3 -10 8 -21
q2 -8 9 -8q2 0 5 2t5 2l6 6l11 11q5 -13 9 -27q-3 -3 -10 -9q-13 -14 -22 -16q-21 -6 -34 21q-8 15 -11 31zM189 73l19 13q28 -22 52 -57l-22 -16h-2q-14 21 -47 60z" />
    <glyph glyph-name="uni3076" unicode="&#x3076;" horiz-adv-x="273" 
d="M100 173l17 18q3 -1 8 -4q29 -15 39 -28l-15 -18q-22 18 -49 32zM78 55l11 -21q2 -2 0 -3q-9 -11 -21 -19q-9 -7 -20 -7h-3q-15 0 -23 20q-6 9 -11 31q-1 1 -1 2l24 8q2 -9 7 -18q3 -11 12 -11q8 0 19 12zM262 23l-22 -14h-2q-20 34 -48 63l16 11h3l6 -6q7 -4 16 -14
q12 -13 24 -27q1 -1 2 -3q6 -6 5 -10zM192 158l14 11q15 -12 27 -31l-17 -11h-1q-3 4 -9 13q-9 12 -14 18zM262 157l-15 -11q-5 7 -16 20q-6 7 -9 11l15 9q14 -14 25 -29zM102 125h25v-3q3 -15 7 -27l3 -6q7 -15 12 -22q1 -3 4 -8q15 -27 10 -42q-7 -23 -31 -24q-11 0 -23 3
v1l-4 22l1 1q16 -6 25 4q6 6 0 22q-2 4 -2 5q-7 12 -13 26q-14 26 -14 44v4z" />
    <glyph glyph-name="uni3077" unicode="&#x3077;" horiz-adv-x="270" 
d="M162 159l-17 -18q-19 18 -45 29l13 21q20 -10 49 -32zM127 124v-4v-2q2 -17 12 -34q3 -8 11 -23q7 -12 10 -19q4 -8 4 -16v-4q-3 -29 -31 -32h-3q-6 0 -11 2q-5 -1 -11 2l-2 24l13 -3q13 -1 15 12v4q0 10 -12 30q-1 1 -1 2q-21 37 -19 62q13 -1 25 -1zM76 55l13 -21
q-9 -12 -21 -24q-4 -5 -12 -7q-9 -3 -20 2q-7 5 -13 13q-12 16 -13 37l23 11q1 -9 4 -18q6 -14 15 -14q3 0 9 4l1 1q8 7 14 16zM186 73l21 11q34 -28 53 -61l-22 -14q-16 26 -52 64zM227 119q-29 2 -31 31q2 27 31 30q29 -2 31 -31q-1 -29 -31 -30zM227 135q14 0 14 14
q0 15 -14 15q-13 -1 -14 -14q1 -14 14 -15z" />
    <glyph glyph-name="uni3078" unicode="&#x3078;" horiz-adv-x="256" 
d="M244 62l2 -2l-17 -26h-2q-39 21 -96 69q-3 3 -10 8q-6 6 -10 8l-1 1q-11 7 -18 4q-4 -3 -12 -11q-12 -12 -21 -22q-12 -12 -19 -26h-2l-28 25v3q10 1 24 13l3 3q4 3 11 9t11 9q21 25 39 24q13 1 35 -18q6 -4 18 -13q20 -15 31 -22q21 -15 62 -36z" />
    <glyph glyph-name="uni3079" unicode="&#x3079;" horiz-adv-x="256" 
d="M244 50l2 -2l-17 -26h-2q-39 21 -96 69q-3 2 -8 6q-8 7 -12 9q-11 9 -19 6q-4 -3 -12 -11q-12 -11 -21 -22q-12 -12 -19 -27h-2l-28 26v3q10 1 24 13l3 3q6 4 15 13q5 4 7 6q21 23 39 22q14 0 35 -17q6 -4 18 -13q20 -15 31 -22q30 -19 62 -36zM173 148v3l13 13h1
q14 -9 24 -19l2 -2q1 0 3 -3q0 -1 -1 -1q0 -2 -1 -2q-1 -1 -4 -3q-5 -5 -9 -7q0 -1 -2 0q-4 3 -10 9q-11 8 -16 12zM197 174l11 14q6 -1 14 -7q3 -3 5 -4q5 -6 12 -11v-2l-13 -13q-1 -1 -3 0q-12 11 -26 21v2z" />
    <glyph glyph-name="uni307A" unicode="&#x307a;" horiz-adv-x="256" 
d="M201 127q-29 2 -31 31q2 29 31 31q29 -2 31 -31q0 -30 -31 -31zM201 143q16 0 16 14q0 16 -16 16q-13 -1 -14 -15q1 -14 14 -15zM244 49l2 -2l-17 -27h-2q-39 22 -96 70q-3 2 -8 6q-8 7 -12 9q-11 9 -19 6q-4 -3 -12 -11q-12 -11 -21 -22q-12 -11 -19 -26h-2l-28 25v3
q10 1 22 11q3 3 5 4q4 4 11 10q7 7 11 10q21 23 39 22q11 0 31 -14q3 -2 4 -3l21 -15q18 -15 28 -21q30 -18 62 -35z" />
    <glyph glyph-name="uni307B" unicode="&#x307b;" horiz-adv-x="236" 
d="M32 74v-11q0 -5 2 -18q-2 9 0 -3q2 -9 6 -19h2l8 29q7 0 14 -3q-1 -6 -3 -17q-5 -25 -5 -37v-10l-22 -6h-2q-22 30 -22 83v18q0 33 8 66q1 3 2 10q6 23 6 35v6q17 -5 32 -8q-15 -35 -21 -73q0 -3 -1 -8q-4 -22 -4 -34zM194 191l3 -23q-13 -4 -25 -5q-2 -8 -2 -16v-20
q9 1 27 4q8 1 11 2l3 -22l-1 -2q-19 -4 -39 -5q0 -5 1 -15q2 -17 4 -44q27 -9 50 -27l-11 -22h-2q-22 15 -37 22q0 -18 -17 -28q-13 -5 -27 -5h-4q-43 4 -46 35q2 29 45 32h4q14 0 20 -1q0 1 -1 4q-1 9 -1 15q0 3 -1 11q-1 12 -2 21q-21 -1 -44 -1h-12q-1 0 -3 1l-5 23l1 2
q3 0 10 -1q16 -2 25 -2h10h17v35h-37h-13l-7 24v3q17 -3 34 -3h12q30 0 60 8zM135 31h-4q-4 0 -12 -2q5 2 -2 0q-11 -4 -11 -10q1 -12 18 -14h6q11 0 18 10q4 5 4 16q-4 -1 -11 0h-6z" />
    <glyph glyph-name="uni307C" unicode="&#x307c;" horiz-adv-x="272" 
d="M28 201h3l15 -3q9 -3 14 -4v-3q-4 -3 -8 -13q-1 -4 -2 -6q-2 -7 -5 -23q-4 -15 -6 -23q-5 -27 -5 -53v-15q0 -16 4 -27q8 11 15 23l13 -6q-11 -27 -11 -52v-8q-3 0 -10 -1q-10 -2 -14 -2q-21 37 -21 83v11q0 15 3 32q2 21 8 41q0 2 1 6q6 25 6 39v4zM238 146l-15 -11
q-2 3 -7 10q-10 13 -14 20l14 10q2 -3 7 -8q12 -13 15 -21zM226 183l12 11l7 -7q12 -13 17 -22l-13 -11q-5 7 -16 20q-5 6 -7 9zM198 191v-24q-6 0 -21 -2q11 2 -3 0q-1 -11 -1 -16v-20q20 2 36 6l4 -24q-21 -3 -40 -6v-5q0 -25 3 -52q27 -10 52 -30l-13 -22q-17 14 -38 24
q-3 -17 -13 -22q-13 -10 -33 -10h-4q-40 3 -42 31v4q0 14 14 25q11 7 31 7h5q8 0 15 -1v50q-8 -1 -17 -1h-13q-6 0 -16 1h-15l-7 25l3 1q21 -3 44 -4h14h6v16v21h-3q-19 -2 -39 -2h-9l-9 25v3q16 -3 31 -4h12q15 0 44 4q15 1 22 2zM131 34h-3q-21 -2 -22 -14q1 -12 21 -13
q8 0 14 3q8 8 9 21q-10 3 -19 3z" />
    <glyph glyph-name="uni307D" unicode="&#x307d;" horiz-adv-x="273" 
d="M58 191v-2q-5 -8 -8 -19q-9 -27 -13 -47q-6 -30 -6 -46v-9q0 -22 6 -42q4 6 10 17l6 9l11 -2q-5 -16 -8 -33q0 -3 -1 -9q-2 -10 -2 -16v-7l-22 -3q-2 0 -5 6l-1 2q-1 4 -4 10q-4 9 -5 14q-6 23 -6 47v20q0 21 8 61q4 17 5 26q3 12 3 25v4q5 0 14 -3q12 -3 18 -3zM236 128
q-27 2 -29 28q2 26 29 28q26 -2 27 -28q-1 -27 -27 -28zM221 156q1 -13 15 -14q13 0 13 14q-1 13 -13 14q-14 -1 -15 -14zM116 182h12q29 0 66 7l4 -22l-1 -2q-12 -1 -24 -3l-1 -1q-2 -14 -2 -28v-8q21 2 32 5l3 -21q-14 -4 -35 -6q1 -11 2 -32q2 -18 2 -26v-1q21 -9 53 -29
l-11 -20l-2 -1q-8 6 -29 18q-7 4 -10 6q-2 -16 -12 -23q-13 -10 -31 -10h-5h-3q-39 6 -42 34q2 29 47 33h6h15q-1 15 -3 43v6h-14h-22q-12 0 -24 1l-2 1q-1 12 -3 24q23 -3 45 -3h17h2v31v4l-1 1q-20 -1 -41 -1h-9l-8 24q5 0 15 -1h14zM130 31h-6q-17 -1 -18 -13
q1 -11 18 -13h4q12 1 18 9q3 3 5 13v1q-10 3 -21 3z" />
    <glyph glyph-name="uni307E" unicode="&#x307e;" horiz-adv-x="187" 
d="M90 201l31 -3l1 -1q-2 -3 -4 -8q-1 -3 -2 -4v-4q-1 -8 -2 -18q11 1 31 4q9 1 13 2l-2 -23q-19 -4 -42 -5q1 -5 1 -16q1 -10 1 -16h2q22 1 44 7l-4 -23q-20 -6 -40 -7q1 -23 3 -48q32 -11 56 -31l-12 -18q-13 11 -43 23q-1 -20 -20 -29q-11 -6 -31 -6h-9q-24 0 -37 13
q-15 13 -8 33q7 11 19 16q17 6 34 6h10q5 0 15 -2q-6 2 2 0q0 9 -2 27q-1 9 -1 14h-21q-18 0 -36 2l-2 1l-5 22v2q4 -1 10 -2q18 -3 28 -3h20h5q0 15 -1 35h-6q-26 0 -50 2l-2 1l-6 23q7 0 20 -2q17 -2 25 -2h19v11q0 11 -2 27zM68 26h-6q-23 -2 -24 -17q1 -6 10 -9
q8 -1 15 -1h6q11 -1 22 4q7 6 7 16v4q-3 0 -10 1q-14 2 -20 2z" />
    <glyph glyph-name="uni307F" unicode="&#x307f;" horiz-adv-x="258" 
d="M10 31v4q0 12 10 32q9 14 18 21q26 21 57 21h2q5 6 7 12q12 21 25 42l-2 2q-34 -5 -48 -17l-5 10t-12 21l1 1h12q9 0 28 4q5 1 7 1q16 3 31 9h2l26 -25q1 -4 -5 -7l-1 -1q-9 -6 -17 -14q-3 -4 -8 -12q-3 -4 -4 -6t-4 -6q-2 -5 -9 -17q11 -2 22 -5q10 -3 27 -11
q9 -4 13 -6q6 28 6 43v8h2l27 -8v-2q-7 -15 -12 -41q0 -1 -1 -2q0 -3 -3 -9q31 -18 46 -32l-12 -23h-2q-17 15 -35 29q-2 2 -5 3q-6 -13 -13 -25q-19 -29 -49 -46h-2q-9 9 -21 16v1q31 15 47 34q10 9 19 31q0 1 -1 1q-34 19 -64 24q-5 -10 -15 -28q-7 -12 -10 -18
q-24 -42 -51 -37q-23 7 -24 28zM41 60q-1 -2 -3 -5q-5 -6 -6 -10q-4 -18 9 -19q5 0 12 6q0 1 1 2q6 6 10 13q12 19 21 40q-23 -3 -44 -27z" />
    <glyph glyph-name="uni3080" unicode="&#x3080;" horiz-adv-x="242" 
d="M170 148v3l10 17q33 -15 52 -31l-14 -21h-2q-28 23 -46 32zM58 74v6v1q-1 1 -2 4q-2 8 -6 8q-5 0 -8 -3q-8 -8 -8 -23v-4q1 -15 10 -16q8 1 12 10q2 5 2 17zM53 201l32 -4q-4 -15 -6 -40q21 3 41 8l-3 -28q-6 0 -19 -2q-14 -1 -21 -2v-11v-11q0 -4 2 -11q1 -3 1 -5
q3 -12 2 -25v-9q0 -15 -6 -27q0 -1 -1 -3t-1 -3v-4q1 -11 9 -17q5 -6 19 -5h21q13 0 26 3q10 1 16 9q10 14 11 38v6l26 -13v-4q-1 -26 -12 -41q-12 -16 -38 -18q-19 -3 -40 -3h-20q-18 0 -29 10q-13 11 -13 28v3q-36 2 -40 43v4q0 19 10 32q11 13 35 15q0 -4 1 18
q-14 -1 -29 -1h-8q-1 0 -3 1l-6 25q9 -1 18 -1h23h5v12q-1 8 -1 11v6q0 3 -1 8q-1 6 -1 8z" />
    <glyph glyph-name="uni3081" unicode="&#x3081;" horiz-adv-x="246" 
d="M132 197h5h2l25 -6q-1 -6 -2 -18q-2 -13 -3 -19q33 -2 52 -17q24 -24 25 -58v-6q0 -29 -13 -48q-14 -20 -34 -30q-13 -9 -29 -13q-1 0 -6 5q-1 2 -2 3q-2 3 -11 9q-1 1 -2 1q64 15 68 71v3q-1 27 -18 42q-13 12 -36 14q-10 -41 -33 -75q9 -9 19 -16l-21 -19h-1l-9 9l-4 4
l-5 -5q-6 -7 -10 -10q-23 -22 -46 -22h-3q-28 2 -30 39v5q0 20 13 44q1 1 3 4q12 18 20 25l-15 30q-5 11 -8 16l28 14v-5v-2q4 -19 14 -39q35 23 68 26q3 12 3 23v4q0 9 -4 17zM128 129q-29 -5 -51 -21q1 -2 4 -6q4 -6 5 -8q1 -1 2 -3q9 -13 16 -19q6 10 12 22l3 9
q7 16 9 26zM34 41v-4q0 -12 7 -15q5 -3 15 2q12 6 27 21l3 3q1 2 2 3q-8 9 -14 19q-5 6 -13 18q-1 3 -2 4q-7 -9 -15 -19q-10 -20 -10 -32z" />
    <glyph glyph-name="uni3082" unicode="&#x3082;" horiz-adv-x="182" 
d="M64 207h4l29 -8v-2q-3 -2 -5 -8l-3 -6q-4 -13 -7 -27q0 -1 -1 -3q-1 -3 -2 -5h7h12q6 0 17 2q4 1 6 1l-5 -25q-1 -1 -3 -1h-23h-16q-1 -7 -2 -19q-2 -14 -3 -22q26 -4 48 -1v-4l-4 -20q-1 -1 -3 -1h-21q-11 0 -23 1v-7q-1 -4 -1 -7v-10q0 -15 10 -26q11 -9 23 -9h6
q20 1 29 10q10 12 10 27v4q0 17 -19 47q-2 4 -3 5l29 2q21 -24 22 -56v-5q-1 -27 -21 -44q-16 -15 -44 -15h-6q-24 0 -43 17q-16 13 -16 45v10q0 8 1 16q-5 2 -16 5q-11 4 -17 5l2 25q16 -7 34 -10v5q2 6 4 18q2 11 3 17q-12 3 -22 6q-8 1 -8 3l2 25q16 -6 31 -9q1 3 3 11
q1 7 2 10q0 2 1 7q2 12 2 19v7z" />
    <glyph glyph-name="uni3083" unicode="&#x3083;" horiz-adv-x="216" 
d="M125 159l-13 -13q-14 14 -32 23l13 14q3 -2 10 -7q16 -10 22 -17zM56 157v-4v-2q2 -3 5 -9q7 -12 10 -18q17 8 34 14q36 16 55 16h6q36 -4 40 -38v-5q0 -20 -30 -37q-18 -7 -46 -9l-3 1l-10 16v2h11q21 0 36 7q16 7 17 25v4q0 6 -3 9q-3 5 -10 7h-3q-3 1 -5 1
q-5 0 -17 -3q-5 -1 -8 -2q-4 -1 -13 -5q-5 -2 -8 -3q-5 -2 -16 -8q-11 -5 -17 -8q4 -6 10 -20q7 -13 10 -20q12 -26 22 -53l-20 -8q-3 10 -11 31q-1 4 -2 6q-13 27 -28 54q-6 -4 -13 -7q-1 -1 -4 -3q-10 -5 -14 -11h-2l-19 18v3q18 4 43 17q-10 17 -22 33l22 9h3z" />
    <glyph glyph-name="uni3084" unicode="&#x3084;" horiz-adv-x="260" 
d="M98 180l16 17q23 -12 40 -30l-19 -16q-17 18 -37 29zM70 167v-6v-2q9 -18 18 -35q2 0 4 2q3 1 9 4q28 14 43 18q28 11 50 11h5q18 0 33 -9q17 -13 18 -35v-6q-1 -30 -31 -44q-21 -10 -62 -13l-14 22v3h6q30 0 48 6q32 14 21 39q-9 12 -27 13h-4q-15 0 -43 -11
q-5 -2 -8 -3q-18 -8 -36 -17l-1 -1q3 -5 8 -15q6 -10 8 -15q26 -49 36 -74v-3l-23 -11h-2q-14 36 -50 107q-3 -2 -10 -6q-17 -9 -25 -15l-2 -2q-5 -4 -8 -3l-21 27q13 1 38 13q5 2 7 3t5 2q3 2 5 2q-2 3 -6 10q-2 6 -4 9q-2 2 -4 8q-7 11 -12 17l1 2l28 8h2z" />
    <glyph glyph-name="uni3085" unicode="&#x3085;" horiz-adv-x="194" 
d="M93 186l24 -6v-3q1 -8 4 -20h4q26 0 43 -19q16 -16 16 -38v-5q-1 -28 -20 -47q-19 -17 -42 -17h-5h-11q-4 -8 -16 -23q-1 -2 -2 -3l-18 8q1 2 4 5q12 13 17 21q-1 0 -3 2q-16 12 -24 31l16 10q4 -16 19 -26q3 9 4 18q3 14 3 27v9q0 18 -3 30q-21 -4 -43 -26
q-22 -26 -22 -51v-4q0 -14 4 -25l-18 -8q-14 38 -14 79v14q0 5 1 16q2 12 2 18v5q0 3 -2 10q-1 3 -1 5l28 -6q-1 -3 -4 -8q-1 -3 -2 -4q-3 -16 -3 -46v-14q23 47 72 60l-6 24q-1 5 -2 7zM117 50h5q19 1 31 16q10 12 10 29v5q0 19 -16 32q-9 7 -24 9q2 -13 2 -28v-9
q0 -28 -10 -54h2z" />
    <glyph glyph-name="uni3086" unicode="&#x3086;" horiz-adv-x="232" 
d="M108 197l31 -4l1 -2q0 -2 2 -8q2 -11 4 -21h4q30 0 52 -19q19 -20 20 -51v-8q-1 -29 -18 -51q-23 -25 -54 -26h-5q-6 0 -13 2q-11 -19 -26 -34l-25 13q17 16 27 32q-18 13 -30 28l12 17q11 -12 21 -21q3 -3 5 -4q7 28 7 55v21v21q-2 0 -8 -1q4 1 -2 -1q-9 -3 -24 -12
q-24 -15 -38 -43q-7 -18 -7 -33v-8q1 -17 7 -32l-24 -8l-2 1q-9 22 -12 49q-3 18 -3 35v14q0 7 1 21t1 21v13q0 14 -2 27l32 -5q-4 -12 -6 -24q-6 -35 -6 -54v-13q30 61 91 75q-4 21 -13 38zM143 31h4q20 1 34 15q15 19 15 41v6q0 15 -13 32q-14 13 -34 16q2 -15 2 -29v-17
q0 -33 -10 -64h2z" />
    <glyph glyph-name="uni3087" unicode="&#x3087;" horiz-adv-x="164" 
d="M71 186h3l25 -6q0 -1 1 -3v-2q-1 -2 -2 -5q-3 -8 -3 -11v-11v-7q35 2 53 7l6 -21q-16 -4 -47 -6h-10q0 -16 3 -57q6 -1 11 -4q20 -10 42 -27l1 -2l-14 -18l-2 -1q-16 16 -39 29q-1 -13 -14 -24q-10 -10 -32 -10h-6q-15 0 -26 9q-11 10 -11 25q2 27 40 30h14q9 0 17 -2
q0 6 -1 19q-1 14 -1 21q-1 6 -1 20q-2 38 -7 57zM47 26h5q27 1 30 23q-3 1 -19 5q-20 3 -29 -3q-9 -8 -5 -16q4 -9 18 -9z" />
    <glyph glyph-name="uni3088" unicode="&#x3088;" horiz-adv-x="202" 
d="M121 194l2 -3q-6 -11 -6 -32v-11v-5q44 3 70 14l2 -33q-33 -5 -66 -5h-5q0 -4 1 -11v-9q-1 13 4 -51q31 -11 69 -39l-17 -21h-2q-3 3 -11 9q-4 3 -6 3q-16 11 -33 20q-4 -17 -10 -22q-13 -14 -28 -19q-8 -1 -19 -1h-3q-19 0 -33 11q-20 13 -20 29v4q1 15 19 28q12 8 33 8
h9q14 0 27 -3q-1 24 -3 48q-2 26 -2 42v20q0 5 -1 15q-1 11 -1 17q15 -1 30 -3zM64 37h-3q-25 -2 -27 -18q2 -16 25 -19h5q17 0 24 7q9 7 10 20v4q-21 6 -34 6z" />
    <glyph glyph-name="uni3089" unicode="&#x3089;" horiz-adv-x="192" 
d="M39 189l17 19q3 -1 8 -4q18 -7 44 -22v-2l-17 -18q-28 18 -52 27zM18 154l28 -6q-7 -29 -9 -75q37 30 72 30h7q27 0 45 -11q20 -16 21 -38v-5q0 -24 -21 -44q-21 -15 -46 -22q-11 -6 -24 -6l-13 22v1q19 3 40 9q34 14 34 36v4q-2 27 -37 30h-4q-16 0 -40 -10
q-24 -13 -32 -32l-29 10q1 8 3 25q5 47 5 71v11z" />
    <glyph glyph-name="uni308A" unicode="&#x308a;" horiz-adv-x="159" 
d="M36 124v-5q0 -15 4 -24h2l10 16h3l11 -10q-2 -4 -5 -11q-11 -24 -11 -39v-4q-12 -2 -24 -2q-6 9 -10 26q-6 21 -6 45v8q0 12 4 37q4 22 4 33q15 -1 29 -3q-3 -10 -5 -21q-6 -29 -6 -46zM106 194l33 3l2 -1q-2 -12 2 -34q0 -4 2 -11q3 -25 3 -38v-16q1 -32 -11 -61
q-17 -41 -42 -61q-1 -2 -3 0l-23 11l-1 2q24 21 36 43q16 31 16 69v19q0 44 -14 75z" />
    <glyph glyph-name="uni308B" unicode="&#x308b;" horiz-adv-x="188" 
d="M18 178h14q44 0 74 10q2 0 4 1q4 2 6 2h1l26 -21v-1q-13 -9 -23 -22q-5 -6 -16 -19q-11 -12 -17 -19q4 0 12 1q7 1 11 1h5q26 -1 44 -16q19 -17 19 -43v-3q-1 -30 -30 -49q-23 -15 -50 -15h-4q-46 4 -49 34v4q3 26 34 29h5q25 0 49 -32q15 13 16 31v5q-3 28 -37 31h-5
q-40 -1 -67 -35q0 -1 -1 -2q-3 -4 -5 -5l-24 18v3q50 39 85 93q-36 -2 -55 -12q-1 0 -2 -2q-4 -3 -7 -2l-13 33v2zM85 7h5q7 0 13 2q0 6 -7 11q-13 12 -24 8q-9 -5 -5 -13q4 -7 18 -8z" />
    <glyph glyph-name="uni308C" unicode="&#x308c;" horiz-adv-x="266" 
d="M76 180v5q0 6 -2 14q16 -2 34 -2v-3q-3 -3 -6 -11q-1 -2 -1 -3q-4 -16 -6 -30q1 0 1 1l18 -14q1 -2 -2 -5q-1 0 -2 -1q-2 -2 -5 -8q-4 -5 -6 -8q5 4 15 13q32 32 56 31h4q9 0 17 -4t11 -18v-4q0 -19 -5 -57q-3 -19 -4 -28q-2 -15 1 -21q4 -9 16 -5q9 2 23 15l4 4l1 1
q5 8 10 8l8 -27q-17 -17 -26 -23q-16 -10 -28 -10h-4q-12 1 -23 11q-7 11 -7 30v4q0 16 5 49q1 9 2 13q0 2 1 7q2 9 2 14v4q-2 12 -20 10q-14 -6 -25 -16l-2 -2q-18 -14 -33 -30q-2 -2 -5 -7l-6 -6v-8q0 -16 3 -49q2 -23 2 -35h-29v38q0 13 1 25q-13 -15 -30 -42h-2l-22 13
v2q52 56 61 99q-5 -2 -14 -6q-21 -7 -31 -15l-14 30l1 2q30 0 59 12q1 5 2 15q1 9 1 14q0 2 1 7v7z" />
    <glyph glyph-name="uni308D" unicode="&#x308d;" horiz-adv-x="228" 
d="M48 178h6q11 0 32 4q-14 -3 3 0q31 3 45 11q1 0 4 2t5 2h3l22 -17v-3q-9 -5 -21 -22q-3 -5 -5 -7q-18 -22 -38 -45q4 1 11 3q18 5 29 5h4q23 0 45 -12q24 -17 25 -45v-4q-2 -39 -33 -57q-30 -18 -60 -18l-11 24h4q26 0 43 8q27 14 28 40v4q0 14 -12 26q-10 10 -29 10h-5
q-36 -1 -62 -20q-22 -17 -47 -47l-24 21q17 14 47 45l11 11q36 36 52 68q-7 -2 -20 -5q-19 -5 -28 -8q-1 0 -4 -2l-4 -2l-17 28z" />
    <glyph glyph-name="uni308E" unicode="&#x308e;" horiz-adv-x="200" 
d="M82 185l1 -2q-6 -14 -6 -24v-8l8 3h2l11 -8q0 -4 -5 -10l-3 -3q-7 -9 -13 -18q14 10 29 16q18 6 28 6h4q20 0 33 -13q19 -17 19 -35v-5q0 -26 -31 -53q-15 -9 -31 -17q0 -1 -1 0l-18 15q17 6 32 16q25 16 25 37v5q-4 29 -30 32h-5q-8 0 -26 -9q-1 -1 -2 -1
q-16 -8 -30 -20q1 -42 7 -84h-27v61q-3 -5 -9 -14q-9 -14 -14 -21l-20 14q21 21 45 60v3v14q-15 -6 -28 -13l-8 24q18 5 39 12v6q1 5 1 8v14q0 8 -4 16q5 0 14 -2q9 -1 13 -2z" />
    <glyph glyph-name="uni308F" unicode="&#x308f;" horiz-adv-x="244" 
d="M106 162l16 -11v-3q-6 -5 -10 -11q-9 -15 -18 -27q36 27 68 27h5q27 0 43 -12q23 -19 24 -43v-4q-1 -32 -25 -58q-21 -20 -55 -30h-2l-22 19q28 7 44 18q31 21 31 45v4q0 11 -9 24q-8 10 -17 14q-18 6 -42 -3q-13 -6 -25 -13q-12 -8 -22 -17q2 -52 6 -102h-30v76
q-18 -21 -33 -46h-2l-21 20q29 27 50 61q4 6 7 14q0 9 1 18q-4 -2 -14 -5t-15 -5q-1 0 -3 -2q-3 -2 -5 -1l-10 26v2q24 4 49 11v7q1 9 1 20v9q0 11 -2 21q6 -1 18 -2q11 -2 16 -2q0 -3 -2 -9q-2 -4 -2 -5q-2 -7 -4 -20q-1 -8 -2 -11q1 1 5 2q5 2 8 4z" />
    <glyph glyph-name="uni3090" unicode="&#x3090;" horiz-adv-x="230" 
d="M139 5h4q6 0 12 1q-4 9 -12 14q-10 10 -21 3q-5 -6 -2 -11q4 -7 19 -7zM134 130h5q31 0 56 -17q25 -18 25 -55v-6q0 -32 -22 -51q-21 -17 -55 -18h-5q-15 0 -28 9q-14 9 -15 23v4q3 25 32 28h5q24 0 44 -31l2 2l2 1q13 13 14 33v4q-1 23 -15 37q-13 12 -39 12h-6
q-12 0 -17 -1q0 -1 -1 -2q0 -2 -1 -3q-1 -2 -2 -7q-20 -58 -38 -84l-2 -2q-10 -15 -20 -18q-23 -11 -37 12q-6 10 -6 23v8q0 29 25 58q26 25 62 35h1q1 5 5 16q6 18 8 27q-4 -1 -13 -2q-27 -5 -40 -14l-14 29v3h9q31 0 71 14h3l24 -13v-4q-5 -4 -9 -12q-10 -18 -17 -39
q4 1 9 1zM78 92q-27 -14 -40 -41q-12 -24 0 -33q9 -7 18 2q8 12 13 26q6 13 16 42l3 9q-1 -1 -5 -2q-3 -2 -5 -3z" />
    <glyph glyph-name="uni3091" unicode="&#x3091;" horiz-adv-x="244" 
d="M124 79q-1 7 -9 8q-9 -1 -6 -11q1 -5 8 -5t7 8zM148 199l22 -19v-2q-25 -19 -48 -41q15 9 25 9h4q18 0 32 -9q18 -14 19 -31v-3q-1 -24 -26 -40q-25 -11 -51 -11h-5q-2 0 -5 1q-28 -9 -49 -27q4 2 7 2q18 0 35 -19q22 37 56 38h5q48 -3 65 -57l-28 -6l-2 1q-5 19 -14 29
q-17 18 -35 14q-12 -5 -18 -14q-10 -14 -10 -31l-30 -4q0 2 -1 6q-2 16 -9 22q-14 11 -29 0q-12 -8 -19 -28l-28 11l-1 3q19 43 85 73q-5 6 -5 14v4q3 10 9 16q8 6 18 5q26 -3 26 -28q26 -2 29 26q0 8 -11 16q-23 15 -60 -8q-15 -9 -35 -34h-3l-21 13v3q45 35 83 77
q-6 -1 -17 -3q-20 -4 -29 -8q-1 0 -3 -1t-4 -1l-12 32l11 -2h2h7q14 0 36 4q13 1 30 8h2z" />
    <glyph glyph-name="uni3092" unicode="&#x3092;" horiz-adv-x="224" 
d="M82 207l32 -8v-2l-7 -8q-1 -3 -4 -10q-2 -8 -4 -11q22 3 40 10v-27q-23 -6 -49 -8q-6 -15 -15 -29q18 8 28 8h4q3 0 10 -2l2 -1q6 -3 12 -11q7 -9 8 -20q9 4 17 7l9 3q12 4 18 7q2 1 4 3q4 4 6 3l21 -24v-3q-35 -7 -71 -19q2 -8 2 -17v-7q0 -5 -2 -17q-1 -6 -1 -9h-25
q0 4 1 11v10v10v9q-10 -4 -22 -13q-19 -13 -13 -28q4 -14 34 -14h4q27 1 50 7l3 -29q-20 -3 -40 -3h-15q-24 0 -41 9q-20 12 -21 29v4q2 26 29 46q7 5 20 11q7 4 11 6q-3 16 -11 20q-7 2 -19 -2q-22 -11 -48 -53q-3 -4 -4 -6l-25 11q35 47 54 91h-11h-18l-7 24v2
q12 -2 21 -2h13h12q1 3 1 4q7 16 7 32v6z" />
    <glyph glyph-name="uni3093" unicode="&#x3093;" horiz-adv-x="252" 
d="M228 55l12 -25q2 -2 0 -3l-7 -7q-37 -42 -67 -41h-4q-16 0 -28 17q-6 8 -8 33l-3 21q-1 13 -2 20q-1 8 -6 9q-8 0 -19 -7q-12 -7 -19 -16q-18 -18 -33 -56l-4 -8q-2 -6 -4 -9l-26 7q11 33 46 95q14 25 21 38l12 21q5 9 8 14q1 2 2 5q12 22 14 36h4l34 -16v-3
q-19 -18 -33 -39q-12 -18 -21 -36q-7 -9 -12 -19q1 1 3 2q9 5 13 7q31 13 42 -6q4 -6 6 -19v-2q0 -5 1 -13q1 -18 2 -27q2 -15 10 -20q8 -7 21 0q16 9 39 40q4 5 6 7z" />
    <glyph glyph-name="uni30A1" unicode="&#x30a1;" horiz-adv-x="198" 
d="M36 167h115l8 6h3l26 -16v-3q-10 -5 -22 -22q-3 -4 -5 -6q-11 -14 -35 -33q0 -1 -2 0l-21 11v1q29 17 46 43h-113h-26v20q14 -1 26 -1zM82 127l26 -5q-1 -3 -3 -7q-2 -3 -2 -5q-3 -12 -6 -23q-11 -43 -55 -78q-2 -1 -7 5l-1 1q-2 2 -5 4q-4 3 -6 4v2q42 25 53 70
q2 8 3 24q1 5 1 8h2z" />
    <glyph glyph-name="uni30A2" unicode="&#x30a2;" horiz-adv-x="244" 
d="M10 145v30q19 -2 40 -2h142l8 5h5l29 -19q0 -8 -2 -7q0 -1 -3 -2t-4 -2q-2 -3 -7 -8q-38 -44 -62 -63q0 -1 -2 0q-5 3 -16 10q-5 3 -8 5v2q35 20 54 52h-145h-14q-10 -1 -15 -1zM103 122l35 -6q1 -2 -3 -5l-3 -3q-1 -4 -2 -12l-3 -12q-7 -33 -21 -57q-18 -28 -46 -50
q-1 -2 -3 0q-14 9 -29 17v2q70 34 75 120v6z" />
    <glyph glyph-name="uni30A3" unicode="&#x30a3;" horiz-adv-x="166" 
d="M135 189l21 -20v-2l-9 -2q-3 -3 -8 -10q-16 -20 -25 -28v-88q0 -19 1 -37h-24v16q1 12 1 18v70q-13 -10 -28 -19q-25 -16 -40 -21h-2l-12 18v3q33 10 67 38q36 28 55 64h3z" />
    <glyph glyph-name="uni30A4" unicode="&#x30a4;" horiz-adv-x="208" 
d="M166 201h4l28 -26v-2q-15 -6 -37 -30l-9 -9q-1 -1 -5 -4l-5 -5v-44q0 -22 2 -65q2 -27 2 -41h-34q1 16 1 35v50v42q-32 -24 -80 -51q-2 -1 -2 0l-21 20v2q43 20 79 49q56 39 77 79z" />
    <glyph glyph-name="uni30A5" unicode="&#x30a5;" horiz-adv-x="180" 
d="M73 186h3l24 -6q0 -3 -2 -7v-25h40l1 1q6 3 8 2l23 -17v-2l-6 -3q-15 -87 -84 -128q-1 -1 -3 0q-3 3 -10 8q-6 4 -8 6v1q72 35 81 111h-109v-30q0 -4 1 -12v-12h-22v24v53q1 0 4 -1q9 -1 15 -1h45v19v9q-1 6 -1 10z" />
    <glyph glyph-name="uni30A6" unicode="&#x30a6;" horiz-adv-x="222" 
d="M124 173v-6q0 -4 1 -10h50q1 0 5 1q4 2 6 1t5 -4q14 -8 21 -14q0 -4 -4 -9q-1 -1 -1 -2q-3 -5 -4 -14q-1 -5 -2 -7q-12 -38 -34 -71q-28 -41 -72 -63q0 -2 -2 0q-4 2 -13 8q-8 6 -13 9v1q43 20 67 49q28 35 40 88h-135l1 -64h-30v18q1 12 1 19v28v12q-1 9 -1 14h85v16
q0 14 -2 28q11 0 32 -2q-14 2 3 0q0 -3 -2 -9q-1 -3 -1 -4v-6q-1 -5 -1 -7z" />
    <glyph glyph-name="uni30A7" unicode="&#x30a7;" horiz-adv-x="192" 
d="M68 154h55q12 0 37 2q-18 -2 3 0v-25q-6 0 -18 1q-11 1 -16 1h-23v-78h35q20 0 41 2v-26q-5 0 -15 1q-19 2 -29 2h-87q-9 0 -27 -2q-9 -1 -14 -1v26h5q24 -2 37 -2h34v78h-21q-7 0 -20 -1q-12 -1 -18 -1v25q20 -2 41 -2z" />
    <glyph glyph-name="uni30A8" unicode="&#x30a8;" horiz-adv-x="232" 
d="M79 162h75q11 0 34 2q11 1 17 1v-32q-7 0 -20 1q-14 1 -21 1h-32v-94h32q13 0 39 2q13 1 19 1v-31q-9 0 -29 1t-30 1h-97q-10 0 -29 -1q-18 -1 -27 -1v31q5 0 16 -1q25 -2 38 -2h38v94h-20q-8 0 -25 -1q-18 -1 -27 -1v32q6 0 17 -1q21 -2 32 -2z" />
    <glyph glyph-name="uni30A9" unicode="&#x30a9;" horiz-adv-x="194" 
d="M130 141h15q20 0 39 2v-27q-4 0 -13 1q-17 2 -26 2h-14v-8q2 -45 2 -67v-10q0 -14 -11 -24q-12 -6 -28 -6h-6q-1 0 -3 1l-6 21l1 2h11q18 2 19 16v36q0 11 -1 31l-4 -8q-2 -5 -9 -14q-4 -4 -5 -6q-13 -16 -30 -27q-15 -11 -32 -19q-1 -1 -2 0l-17 15v3q51 18 81 64h-31
q-9 0 -28 -2q-9 -1 -14 -1v27q20 -2 40 -2h49q-1 7 -1 23q-1 14 -1 22q5 0 14 -1q10 -1 14 -2q1 -3 -1 -7t-2 -6v-29z" />
    <glyph glyph-name="uni30AA" unicode="&#x30aa;" horiz-adv-x="236" 
d="M158 141h8q30 0 60 2v-30q-9 0 -29 1h-29h-10q-1 5 1 -39q1 -43 1 -66v-5q0 -16 -20 -25q-8 -2 -25 -3q-6 -1 -9 -1l-2 1q-3 15 -11 28v1h5q16 -1 23 2q10 4 10 13v42q0 -9 -1 35q-13 -20 -38 -42q-31 -30 -60 -41q-2 1 -4 4l-2 2q-5 6 -15 14q1 -1 -1 1v2q62 24 101 77
h-37q-9 0 -27 -1q-19 -1 -29 -1v31h3q26 -2 51 -2h57q-1 8 -3 37q-1 12 -1 19q18 -1 35 -3q0 -3 -2 -10q-1 -3 -1 -5q0 10 1 -38z" />
    <glyph glyph-name="uni30AB" unicode="&#x30ab;" horiz-adv-x="222" 
d="M96 191h9q4 0 13 -1q10 -1 15 -1q0 -3 -2 -7q-1 -2 -1 -3q-1 -6 -2 -17q-1 -6 -1 -9v-9q40 2 82 3q2 -1 3 -3q0 -9 -1 -27q-1 -58 -9 -88q-5 -29 -28 -36q-13 -4 -41 -6q-5 14 -8 28l1 1l25 -1q10 -1 18 11q3 4 6 17q1 2 1 3q2 11 3 32q1 7 1 11v21v9q-28 -1 -57 -1
q-4 -22 -13 -44q-12 -32 -41 -62q-12 -13 -32 -24q-1 -2 -3 0q-15 12 -24 16v2q21 10 41 30q19 18 26 36q12 22 17 46q-39 -1 -78 -3v31q15 -2 30 -2h35h17v15v8q0 12 -2 24z" />
    <glyph glyph-name="uni30AC" unicode="&#x30ac;" horiz-adv-x="248" 
d="M215 167l-13 -11q-6 9 -23 21l-3 3l13 11q11 -8 26 -24zM238 188l-13 -11q-6 9 -23 21l-3 3l13 11q11 -6 26 -24zM97 194h4q5 0 15 -1q11 -2 17 -2l-2 -4q-1 -5 -3 -12q-4 -16 -7 -34h10q33 0 67 2q3 0 4 -3v-14q0 -16 -2 -49q2 24 0 -3q-2 -40 -11 -62q-6 -14 -22 -22
q-13 -5 -40 -7h-7l-3 1q0 1 -1 4q-1 11 -3 15q0 1 -1 2q-2 5 0 8q2 0 7 -2q7 -2 11 -2h5q15 1 26 13q9 9 11 27q4 25 4 60v10h-49h-9q0 -3 -1 -4v-1q-16 -81 -77 -126h-2q-4 2 -13 6q-9 5 -14 6l-1 2q37 24 53 49q21 32 28 67q-17 0 -52 -2q-17 -1 -26 -1v28q49 -2 77 -2h6
v3q2 15 2 31v7v6q-1 4 -1 6z" />
    <glyph glyph-name="uni30AD" unicode="&#x30ad;" horiz-adv-x="236" 
d="M191 162h3l2 -31q-36 -2 -71 -5q1 -5 3 -16q1 -11 2 -17q0 -1 1 -3v-2q45 4 90 13h2l3 -31q-16 -1 -47 -4q-21 -2 -31 -3q-2 -1 -7 -1q-5 -1 -7 -1q3 -20 6 -41q1 -10 6 -30q1 -7 2 -11q-6 -1 -18 -2q-11 -2 -16 -2q-1 8 0 5q-4 51 -8 78q-48 -5 -94 -11l-2 31q21 1 62 4
q21 1 31 2v6q-1 3 -1 5q0 5 -1 14q-1 10 -2 14q-11 -1 -34 -3q-23 -3 -34 -4l-4 28l1 2q33 1 67 4q-4 25 -11 49l38 2q-4 -10 -2 -34q1 -5 1 -8q0 -1 1 -3v-4q35 3 69 10z" />
    <glyph glyph-name="uni30AE" unicode="&#x30ae;" horiz-adv-x="232" 
d="M201 172l-13 -11q-3 3 -9 8q-11 11 -18 16l13 11q10 -7 27 -24zM222 196l-13 -11q-15 15 -24 21l11 11q3 -2 8 -6q13 -9 18 -15zM178 157l2 -30q-10 -2 -29 -4q-18 -3 -27 -4q1 -6 3 -16q3 -15 4 -23q42 6 84 15l5 -28q-42 -6 -85 -12q2 -8 5 -23q8 -33 13 -50v-2l-30 -7
q-2 21 -10 59q-3 13 -4 19q-15 -2 -47 -7q-31 -5 -47 -8l-5 30l1 1q48 3 93 9v3q-1 3 -1 5q-1 5 -2 16l-3 15q-11 -1 -34 -5q-22 -3 -34 -5h-1l-3 27q33 3 66 9q-1 4 -2 10q-4 26 -8 38v2l36 3q1 -3 -1 -9q-2 -5 -2 -8q2 -18 5 -32q30 5 58 12z" />
    <glyph glyph-name="uni30AF" unicode="&#x30af;" horiz-adv-x="220" 
d="M101 201h2l32 -10v-2q-6 -3 -12 -15q-1 -3 -2 -5q-1 -1 -2 -3q-2 -3 -3 -4h13h36q8 0 16 3h2q14 -10 27 -22v-2l-9 -10l-2 -1q-7 -12 -13 -24q-44 -77 -113 -118q-7 -5 -21 -11q-3 -1 -5 -2q-1 -2 -2 0q-13 10 -30 18q106 41 151 142h-70q-9 -13 -20 -24q-12 -12 -36 -30
q-3 2 -10 5q-6 3 -10 4q-1 0 -3 1q-6 1 -7 4q67 40 91 106z" />
    <glyph glyph-name="uni30B0" unicode="&#x30b0;" horiz-adv-x="240" 
d="M209 169l-13 -10q-17 17 -27 24l13 11q8 -6 22 -20zM230 194l-13 -11q-15 15 -24 21l11 11q2 -2 7 -5q13 -10 19 -16zM122 186v-3q-6 -4 -13 -18q-3 -4 -4 -6q0 -1 -1 -2q0 -1 -1 -2q35 -3 54 2q3 0 6 2h2l26 -18v-4q-8 -3 -14 -19q-1 -1 -1 -2q-22 -56 -49 -87
q-23 -29 -64 -54q-1 0 -2 -1q-7 -6 -11 -5q-7 10 -24 19v1q95 46 127 141h-67q-21 -30 -49 -53q-1 -1 -3 0q-5 3 -17 8q-4 2 -7 3v2q43 29 69 78q8 15 11 31q9 -1 25 -9q5 -3 7 -4z" />
    <glyph glyph-name="uni30B1" unicode="&#x30b1;" horiz-adv-x="258" 
d="M93 199h3l31 -10q1 -3 -3 -8q-1 -2 -2 -3q-3 -6 -9 -17q-6 -14 -10 -21q0 -1 -1 -2q0 -2 -1 -3h82q32 0 65 2v-29q-9 0 -27 1h-26h-15q-6 -41 -26 -74q-22 -35 -59 -58q0 -2 -2 0l-18 9q-5 3 -8 4v3q37 25 54 46q24 32 27 70h-64q-21 -29 -49 -53l-3 1q-12 12 -22 17
q68 54 83 125z" />
    <glyph glyph-name="uni30B2" unicode="&#x30b2;" horiz-adv-x="250" 
d="M219 172l-13 -11l-5 5q-13 13 -21 19l13 11q8 -6 21 -19zM240 196l-13 -11l-4 4q-11 12 -19 17l11 11q2 -2 6 -5q13 -9 19 -16zM117 183v-3q-6 -3 -11 -17q-2 -6 -4 -9q-3 -10 -8 -19h78q10 0 30 1q21 1 32 1v-28q-10 0 -30 1t-31 1h-7q-3 -46 -17 -72q-17 -31 -53 -56
q-2 -2 -2 0q-12 8 -26 14v2q13 4 31 23q15 13 21 27q15 27 17 62h-58q-3 -4 -6 -9q-20 -25 -41 -44q-2 -1 -2 0q-11 8 -20 15v1q42 37 64 90q5 14 7 30q9 -1 26 -7q6 -3 10 -4z" />
    <glyph glyph-name="uni30B3" unicode="&#x30b3;" horiz-adv-x="182" 
d="M35 165h71q33 0 65 1v-98q0 -12 1 -35v-33h-30v10h-76q-31 0 -56 -1v31q18 -1 39 -1h33q30 0 60 1v95h-77h-27q-19 -1 -28 -1v33q13 -2 25 -2z" />
    <glyph glyph-name="uni30B4" unicode="&#x30b4;" horiz-adv-x="230" 
d="M197 169l-14 -12q-12 14 -24 26l14 11q17 -15 24 -25zM183 201l12 14q15 -9 25 -22l-12 -15q-14 17 -25 23zM176 -1h-30v5q-23 0 -68 -1q-45 0 -68 -1v29h58h23q28 0 55 2v94h-78q-31 0 -58 -1v29q18 -1 53 -1h52q29 0 59 2q0 -80 2 -157z" />
    <glyph glyph-name="uni30B5" unicode="&#x30b5;" horiz-adv-x="256" 
d="M187 179v-38q0 -6 0 -4q10 1 30 2q19 1 29 1v-31q-7 0 -22 1q-14 1 -22 1h-16q-2 -41 -12 -69q-15 -38 -56 -68q-1 -2 -3 0q-4 3 -14 10q-5 2 -8 4v2q60 46 65 103q0 3 1 9q0 6 1 9h-59v-66h-31q2 24 2 50v16h-14q-8 0 -24 -1t-24 -1v32q7 0 20 -2q19 -2 29 -2h13v31
q0 5 -2 17q-1 6 -1 9q18 -1 34 -3q0 -2 -1 -6t-1 -7v-41h60v4q0 12 -3 37q-2 13 -3 19q18 -1 34 -3q1 -3 -1 -9q-1 -4 -1 -6z" />
    <glyph glyph-name="uni30B6" unicode="&#x30b6;" horiz-adv-x="270" 
d="M239 165l-13 -11q-3 3 -9 8q-11 10 -18 16l13 11q7 -5 18 -16q6 -5 9 -8zM260 189l-13 -11q-3 2 -8 7q-10 10 -16 14l11 11q3 -2 8 -6q13 -9 18 -15zM74 197l31 -3q0 -3 -1 -9t-1 -9v-41h59q0 3 0 2v14q0 14 -4 43q4 -21 0 3h7q6 0 19 -2q5 -1 7 -1q1 -4 -2 -12l-1 -2
v-45q29 0 59 2v-26q-30 2 -60 3v-6q-1 -8 -1 -13q-3 -33 -11 -49q-19 -42 -67 -72h-2l-19 21q22 7 45 34q19 22 26 57q-1 -7 4 28h-59v-69h-29q2 27 2 55v14h-7q-13 0 -39 -2q-13 -1 -20 -1v26q30 -2 60 -2h6v41q0 11 -2 21z" />
    <glyph glyph-name="uni30B7" unicode="&#x30b7;" horiz-adv-x="236" 
d="M10 111l16 22q28 -14 52 -32q-3 -3 -8 -11q-6 -7 -9 -11h-2q-26 19 -49 30v2zM110 162l1 -3q-2 -3 -5 -8q-7 -11 -11 -15q-4 3 -13 10q-23 19 -37 26v1q1 1 2 3q6 6 14 17q27 -12 49 -31zM226 110l-1 -4q-27 -26 -58 -49q-46 -35 -82 -54q-1 0 -3 -1q-19 -7 -26 -13
l-3 -3q-3 -4 -6 -3l-12 15l-12 15v2q57 14 112 53q47 32 78 67h2q5 -13 11 -25z" />
    <glyph glyph-name="uni30B8" unicode="&#x30b8;" horiz-adv-x="244" 
d="M48 169l15 20q21 -9 52 -35l-20 -19q-21 20 -47 34zM10 108l17 19h2q4 -3 12 -8q23 -14 33 -24l-21 -22q-20 21 -43 35zM223 119l11 -24v-2q-28 -28 -75 -57q-37 -23 -91 -41q-3 -3 -13 -5q-7 -2 -10 -4q-1 -1 -3 -4t-4 -3l-17 34l2 2q14 2 27 5q12 4 36 14q12 5 18 7
q5 3 16 9q18 8 26 13q44 25 77 56zM153 145v2l14 12q0 2 2 0q12 -7 23 -18q4 -3 4 -5q0 -1 -1 -2l-1 -1q-4 -6 -12 -10q0 -1 -1 0q-7 5 -20 15q-5 5 -8 7zM178 169l12 15q4 -1 13 -7q3 -3 5 -4q7 -7 12 -11v-3l-14 -12q0 -1 -2 0q-4 4 -13 11q-8 7 -13 10v1z" />
    <glyph glyph-name="uni30B9" unicode="&#x30b9;" horiz-adv-x="236" 
d="M176 177l23 -15q1 -1 1 -5q-4 -4 -9 -7q-3 -2 -5 -7q-1 -2 -2 -3q-12 -22 -27 -43q-3 -4 -6 -9q16 -13 31 -27q24 -22 44 -46v-2q-2 -1 -5 -4q-12 -9 -17 -16h-2q-9 8 -25 28q-28 31 -43 46q-8 -7 -14 -15q-38 -36 -85 -57q0 -2 -2 0q-11 8 -23 17v1q101 45 135 120
q3 6 4 13h-59q-7 0 -22 -1t-23 -1v31q28 -2 58 -2h47q8 0 16 3h1q6 3 9 1z" />
    <glyph glyph-name="uni30BA" unicode="&#x30ba;" horiz-adv-x="266" 
d="M235 169l-13 -10q-3 3 -9 8q-11 11 -18 16l13 11q8 -6 22 -20zM256 194l-13 -11q-3 2 -8 7q-10 10 -16 14l11 11q2 -2 7 -5q13 -10 19 -16zM175 169l24 -21v-1q-4 -3 -8 -11l-1 -1q-19 -37 -39 -59q43 -28 77 -67l-24 -21q-5 5 -15 14q-36 37 -57 54q-46 -42 -91 -62
q-5 -4 -10 -4q-6 10 -21 20v3q18 7 36 16q80 43 112 108h-48h-33q-22 -1 -33 -1v28q35 -1 69 -1h17q10 0 26 2q6 0 12 3q3 1 5 1h2z" />
    <glyph glyph-name="uni30BB" unicode="&#x30bb;" horiz-adv-x="244" 
d="M82 194h16h9q5 -1 8 -1q0 -4 -3 -10q-3 -5 -3 -8v-46q8 2 25 4q36 7 55 11q2 0 8 4q1 2 2 2l3 3l1 1h1l30 -19v-2q-7 -6 -18 -23q-3 -5 -5 -7q-20 -25 -41 -48q-4 1 -11 4q-6 3 -9 4q-1 1 -4 2q-5 1 -6 4q33 24 48 51l-1 1q-15 -3 -42 -9q-24 -5 -36 -7v-13q0 -28 3 -55
q2 -17 20 -19h38q9 0 26 1t25 1v-27h-91q-18 0 -32 10q-11 9 -13 31q-2 14 -2 29v36q-5 -1 -16 -3q-14 -3 -21 -4h-2q-18 -4 -25 -10l-3 9q-5 14 -6 22v2q29 2 55 7q9 2 18 3v34v17q-1 12 -1 18z" />
    <glyph glyph-name="uni30BC" unicode="&#x30bc;" horiz-adv-x="262" 
d="M230 166l-10 -15q-4 3 -11 9q-13 11 -21 15l12 14q2 -1 5 -4q17 -11 25 -19zM211 197l11 13q20 -14 30 -24l-12 -13q-5 3 -13 11q-10 9 -16 13zM75 189l33 -3q0 -1 -1 -2q-2 -6 -3 -15v-47q6 1 18 2q29 4 45 7q16 2 25 6q1 1 4 2q2 2 3 2h1l28 -19v-3q-8 -5 -18 -20
q-5 -7 -7 -10q-18 -25 -39 -48h-4q-10 7 -24 13v1q32 24 46 54q-22 -4 -70 -12q-5 -1 -8 -1v-65q1 -14 23 -16h34q12 0 24 2q10 1 32 4q-14 -2 5 1v-30h-3q-15 -2 -31 -2h-61q-25 0 -36 10q-13 9 -14 34v58q-6 -1 -20 -3q-19 -3 -29 -5q-3 0 -7 -1q-3 -1 -4 -1l-7 30l1 2h14
q18 0 36 2q3 1 8 2q6 1 8 1v54q0 4 -2 13q2 -6 0 3z" />
    <glyph glyph-name="uni30BD" unicode="&#x30bd;" horiz-adv-x="222" 
d="M10 159l23 15q28 -28 49 -63l-25 -16h-2q-16 28 -45 64zM176 180h2l34 -18v-3q-14 -9 -23 -38q-16 -39 -42 -70q-21 -25 -45 -45q-17 -12 -37 -21q0 -2 -2 0l-13 13q-1 1 -4 2q-4 0 -4 2q19 8 35 22q36 27 53 50q19 26 30 53q13 26 16 53z" />
    <glyph glyph-name="uni30BE" unicode="&#x30be;" horiz-adv-x="246" 
d="M10 150v2l22 14h2q24 -26 42 -55q-4 -3 -12 -7q-10 -6 -14 -9q-2 4 -7 11q-20 30 -33 44zM164 167h3l32 -16q0 -3 -4 -7l-3 -3q-2 -5 -7 -16q-1 -2 -1 -3q-32 -74 -85 -118q-18 -13 -39 -25h-2q-11 10 -23 18l1 2q25 11 47 28q19 17 35 36q39 51 46 104zM175 178l12 13
q22 -11 31 -18l-11 -16q-7 6 -23 15zM196 205l8 13q18 -9 32 -21l-10 -14q-7 6 -23 17q-5 3 -7 5z" />
    <glyph glyph-name="uni30BF" unicode="&#x30bf;" horiz-adv-x="210" 
d="M92 205h3q2 -1 7 -3q8 -3 22 -8v-3q-8 -5 -15 -22h53l8 4h3q2 -1 5 -3q14 -9 20 -16q2 -2 0 -2q-9 -11 -15 -23q-7 -13 -12 -27q-19 -43 -52 -76q-31 -30 -72 -51q0 -2 -2 0t-7 5q-5 4 -8 6q-1 0 -2 1q-6 2 -7 6q56 26 94 70q-27 22 -45 30l19 18q30 -13 43 -24
q17 24 24 54v2h-62q-28 -42 -58 -64q-1 -1 -2 0l-24 16q66 48 82 110z" />
    <glyph glyph-name="uni30C0" unicode="&#x30c0;" horiz-adv-x="252" 
d="M221 173l-13 -14l-10 10q-12 14 -20 20l14 12q16 -12 29 -28zM202 205l13 12q15 -12 27 -26l-13 -13q-16 19 -27 27zM88 201h2l30 -12v-3q-6 -4 -11 -15l-3 -6q-1 -3 -3 -6h27h22q8 0 14 4l2 1q4 2 5 1l27 -19v-3q-8 -6 -16 -23q-1 -1 -1 -2q-22 -52 -52 -84
q-34 -37 -88 -60q-5 3 -8 8l-6 6q-5 4 -8 7v1q29 7 68 35q15 12 27 26q-16 13 -50 30l16 18q20 -5 51 -25q3 5 6 9q17 25 20 46h-72q-23 -30 -50 -56q-2 -1 -2 0l-24 12l-1 2q63 49 78 108z" />
    <glyph glyph-name="uni30C1" unicode="&#x30c1;" horiz-adv-x="246" 
d="M185 199l21 -24v-2q-6 -1 -18 -5t-19 -6q-9 -3 -19 -4v-27v-15q44 0 86 5v-34q-9 0 -28 1t-29 1h-31q-3 -21 -9 -40q-15 -38 -55 -67q-4 -5 -9 -5h-1q-3 1 -8 4q-12 8 -20 11v1q30 16 48 36q20 23 25 60h-44q-10 0 -32 -1t-33 -1v29h111v25v12q-31 -4 -64 -6q-2 1 -4 6
q-1 2 -2 3l-6 9q-3 3 -4 5l1 3h13q35 0 69 5q33 3 54 17q1 0 2 2q3 3 5 2z" />
    <glyph glyph-name="uni30C2" unicode="&#x30c2;" horiz-adv-x="272" 
d="M245 151l-15 -10q-9 14 -24 26l14 11l5 -5q14 -14 20 -22zM262 173l-12 -14q-9 15 -22 27l11 12q15 -10 23 -25zM177 191l20 -21q2 -1 1 -4v-1l-21 -3q-8 -2 -13 -3q-7 -1 -15 -3v-40h35q13 0 36 2q12 1 18 1v-29q-14 0 -43 1t-44 1h-2q-4 -40 -22 -64q-26 -32 -61 -51
q-2 -2 -3 0l-21 19q50 25 69 60q9 14 9 34v3q1 0 0 -1h-4q-24 0 -71 -2q-23 -1 -35 -1v30q6 0 19 -1q26 -2 39 -2h53v7q0 15 -2 28q-32 -4 -64 -5l-13 27h32q27 0 56 5q23 4 44 13h3z" />
    <glyph glyph-name="uni30C3" unicode="&#x30c3;" horiz-adv-x="194" 
d="M53 109l-24 -8q-3 12 -15 36q-3 6 -4 9l24 7q1 -2 3 -7q8 -15 16 -37zM70 162l24 5q11 -22 15 -45l-24 -6q-7 30 -15 46zM157 167l27 -10v-3q-7 -4 -11 -19q-2 -5 -3 -8q-6 -17 -16 -32q-14 -22 -32 -41q-23 -24 -55 -45q0 -1 -2 0l-17 17q48 27 73 58q28 38 33 83h3z
" />
    <glyph glyph-name="uni30C4" unicode="&#x30c4;" horiz-adv-x="236" 
d="M33 94l-1 1q-9 30 -22 59l12 3q10 3 16 4q12 -22 23 -60q-15 -3 -28 -7zM85 169l27 6q12 -24 18 -59q-14 -3 -29 -5q-5 31 -16 58zM189 173h3q18 -9 34 -19v-3l-8 -5q-4 -12 -9 -23q-28 -61 -60 -89q-34 -31 -75 -51q-2 -2 -2 0l-22 17v2q120 56 139 171z" />
    <glyph glyph-name="uni30C5" unicode="&#x30c5;" horiz-adv-x="270" 
d="M61 103l-25 -11l-2 1q-1 4 -5 13q-2 5 -3 8q-7 18 -16 37q5 1 13 3q9 2 13 3q12 -20 25 -54zM129 118l-28 -8l-1 1q-8 28 -20 56l28 7l2 -1q1 -3 4 -10q12 -29 15 -45zM186 165h2l30 -19v-3q-8 -3 -13 -15q-1 -1 -1 -2q-7 -18 -16 -34q-10 -19 -24 -36q-23 -31 -55 -53
q-19 -12 -41 -21h-2q-9 12 -22 18v1q18 5 35 16q36 20 64 57q14 19 25 40q14 28 18 51zM199 175l13 13q18 -11 27 -21l-11 -13q-7 6 -21 15q-5 4 -8 6zM218 199l13 11h3q2 -1 5 -3q15 -10 21 -16l-13 -13q-17 16 -29 21z" />
    <glyph glyph-name="uni30C6" unicode="&#x30c6;" horiz-adv-x="236" 
d="M96 185h43q14 0 41 2q-19 -2 3 0v-30q-7 0 -19 1h-18h-48h-24q-16 -1 -24 -1v29q24 -1 46 -1zM82 125h72q36 0 72 2v-34q-10 0 -30 1h-30h-25q-2 -19 -5 -34q-14 -51 -73 -86q-2 -2 -2 0l-9 6q-9 8 -15 10v3q33 13 51 35q21 26 21 61v5h-30h-34q-23 -1 -35 -1v34
q36 -2 72 -2z" />
    <glyph glyph-name="uni30C7" unicode="&#x30c7;" horiz-adv-x="260" 
d="M84 180h42q12 0 34 2q12 1 18 1v-29q-6 0 -19 1q-14 1 -21 1h-51q-7 0 -21 -1t-21 -1v29q4 0 13 -1q17 -2 26 -2zM229 164l-13 -11q-12 12 -27 24l13 11q15 -12 27 -24zM250 188l-13 -11q-10 11 -24 21l11 11q2 -2 7 -5q13 -10 19 -16zM69 125h94q28 0 58 2v-32
q-7 0 -22 1q-26 2 -39 2h-23q-2 -30 -7 -44q-15 -46 -64 -75h-2q-10 11 -23 17v2q28 10 46 32q22 26 22 65v3h-36q-10 0 -31 -1q-21 -2 -32 -2v32q38 -2 59 -2z" />
    <glyph glyph-name="uni30C8" unicode="&#x30c8;" horiz-adv-x="122" 
d="M10 199l36 -2q-2 -9 -5 -17v-2v-63l13 14q28 -13 57 -39l1 -2l-18 -25h-2q-24 24 -51 42v-23q0 -21 3 -62q2 -29 2 -43h-34q2 36 2 81q0 38 -1 112q0 15 -3 29z" />
    <glyph glyph-name="uni30C9" unicode="&#x30c9;" horiz-adv-x="160" 
d="M129 158l-12 -11q-2 2 -6 5q-14 13 -22 18l14 12q8 -6 21 -19zM150 182l-12 -12q-16 16 -24 21l11 11q14 -8 25 -20zM10 201l34 -3q0 -3 -2 -8q-2 -6 -2 -10v-67q4 9 13 17q27 -13 57 -41q-9 -14 -17 -26h-3q-31 32 -50 43v-51q0 -39 2 -76h-32q0 8 0 5q2 35 2 54v138
q0 13 -2 25z" />
    <glyph glyph-name="uni30CA" unicode="&#x30ca;" horiz-adv-x="244" 
d="M143 157v-24h9q18 0 54 2q18 1 28 1v-32q-10 0 -32 1h-32h-28q-2 -29 -9 -48q-11 -31 -34 -55q-16 -18 -28 -25q-2 -1 -6 2q-1 1 -2 1q-5 4 -15 9q-3 2 -5 3l-1 2q36 19 57 58q11 22 15 53h-30q-27 0 -74 -2v32q37 -2 73 -2h31v4q0 13 -4 38q-1 13 -2 19q4 0 13 -1
q18 -2 27 -2q0 -3 -2 -9q-2 -3 -2 -4q-1 -8 -1 -21z" />
    <glyph glyph-name="uni30CB" unicode="&#x30cb;" horiz-adv-x="222" 
d="M92 163h59q15 0 29 2v-32q-7 0 -22 1t-22 1h-45q-9 0 -26 -1t-25 -1v31q25 -1 52 -1zM75 45h69q35 0 68 2v-34q-10 0 -32 1t-33 1h-72q-11 0 -33 -1t-32 -1v34q32 -2 65 -2z" />
    <glyph glyph-name="uni30CC" unicode="&#x30cc;" horiz-adv-x="214" 
d="M175 178l29 -19v-2q-6 -6 -10 -14l-18 -30q-12 -20 -25 -38q22 -15 43 -34l-23 -21q-19 17 -39 32q-3 -2 -8 -8q-8 -7 -13 -11q-33 -28 -74 -45q0 -2 -2 0q-12 10 -25 17v2q54 19 98 63q-27 20 -56 36l16 20q32 -16 59 -35q11 12 18 25q10 15 17 32h-70h-22
q-15 -1 -23 -1v27q59 -2 117 1l8 3h3z" />
    <glyph glyph-name="uni30CD" unicode="&#x30cd;" horiz-adv-x="244" 
d="M164 73l16 20h2q3 -1 8 -4q12 -6 18 -11q5 -3 13 -10q9 -6 13 -10l-19 -21q-18 15 -51 36zM146 165v-14h11h2q9 2 17 6h2l24 -19v-2q-7 -5 -18 -16l-4 -4q-15 -17 -32 -29v-56q0 -12 2 -34q1 -12 1 -18h-32q0 8 1 22q1 15 1 22v37v8q-29 -21 -62 -35q-20 -10 -31 -11
q-1 2 -4 5q-4 7 -8 10l-2 1q-4 4 -4 7q37 9 82 35q41 21 60 45h-31h-39q-27 -1 -40 -1v27h77v14q0 6 -2 19q-1 7 -1 10q4 0 11 -1q14 -2 22 -2q0 -5 -2 -14q-1 -8 -1 -12z" />
    <glyph glyph-name="uni30CE" unicode="&#x30ce;" horiz-adv-x="194" 
d="M148 183h4l32 -16v-3q-11 -8 -21 -32q-1 -2 -1 -3q-23 -44 -56 -80q-30 -36 -67 -59h-2q-6 4 -16 10q-7 4 -10 6l-1 1q79 44 124 138q11 18 14 38z" />
    <glyph glyph-name="uni30CF" unicode="&#x30cf;" horiz-adv-x="268" 
d="M36 25h-2q-14 9 -24 12v2q2 3 7 8q25 27 35 44q17 28 24 63q18 -5 34 -11q0 -4 -4 -11q-1 -2 -2 -3q-3 -5 -8 -16q-2 -6 -4 -9q-22 -45 -56 -79zM258 52v-2l-25 -17h-2q-3 5 -9 16q-34 64 -57 96l24 12h2q28 -34 67 -105z" />
    <glyph glyph-name="uni30D0" unicode="&#x30d0;" horiz-adv-x="268" 
d="M82 146h3l29 -16v-3q-6 -5 -15 -20q-3 -5 -5 -8q-30 -47 -60 -69q-1 -1 -3 0l-21 18v2q54 41 72 96zM229 37h-2q-29 51 -68 96l22 15q37 -36 77 -93q-9 -4 -25 -15q-3 -2 -4 -3zM194 169l11 11q9 -6 26 -23l-13 -11q-10 13 -24 23zM255 178l-13 -13q-17 17 -27 24l13 12
q2 -1 5 -4q15 -11 22 -19z" />
    <glyph glyph-name="uni30D1" unicode="&#x30d1;" horiz-adv-x="270" 
d="M82 148l32 -15v-3q-7 -5 -15 -20q-1 -3 -2 -4q-31 -48 -68 -72l-19 22q56 43 70 92h2zM159 135l24 15q44 -42 74 -94v-4l-25 -16l-2 1q-2 4 -7 11q-36 60 -64 87zM231 215q27 -2 29 -29q-1 -28 -29 -29q-27 2 -29 29q2 27 29 29zM247 186q-1 14 -16 15q-15 -1 -16 -15
q1 -16 16 -17q15 1 16 17z" />
    <glyph glyph-name="uni30D2" unicode="&#x30d2;" horiz-adv-x="186" 
d="M10 189h3l31 -6q0 -2 -1 -4q-1 -1 -1 -2q-1 -3 -1 -9v-56q12 2 35 9q4 2 7 3q38 13 60 27h2q9 -9 16 -18v-1q5 -6 4 -10q-7 -1 -20 -6q-7 -2 -10 -3q-57 -21 -94 -29v-29q0 -17 4 -24q7 -11 21 -11h28q49 0 82 6v-31q-18 -2 -36 -2h-70q-26 0 -43 13q-14 13 -14 36v113
q0 17 -3 34z" />
    <glyph glyph-name="uni30D3" unicode="&#x30d3;" horiz-adv-x="214" 
d="M140 173l13 12q12 -8 27 -26v-2l-12 -13q-4 5 -14 15zM161 194l14 11q17 -10 29 -25l-13 -13q-17 20 -30 27zM41 168v-59q20 4 39 10q26 8 39 15q9 5 18 12h2l20 -26q2 -2 0 -6h-4h-2q-13 -4 -25 -9q-38 -14 -87 -22v-20q-1 -30 12 -37q4 -3 12 -3h43q16 0 48 4
q16 1 24 2l-3 -30q-8 0 -24 -1q-33 -2 -50 -2h-33q-20 0 -29 3q-17 3 -23 15q-3 8 -3 17v74q0 20 -3 61q-1 13 -2 20q6 0 18 -1t17 -2q0 -2 -2 -7t-2 -8z" />
    <glyph glyph-name="uni30D4" unicode="&#x30d4;" horiz-adv-x="208" 
d="M171 191q-13 -1 -15 -14q1 -13 15 -14q12 1 13 14q-2 13 -13 14zM171 205q25 -2 27 -28q-2 -27 -27 -29q-27 2 -29 29q2 26 29 28zM10 183h3q7 0 20 -2q7 -1 10 -1q0 -6 -4 -13v-61q13 3 38 11l9 3q26 9 49 23h2h2q8 -8 14 -16l1 -1q6 -5 6 -10h-9q-18 -9 -38 -15
q-35 -13 -74 -21v-35q0 -14 14 -19q6 -2 23 -2h5h21q18 0 55 3q11 2 16 2l-2 -29h-3q-18 -1 -37 -1h-74q-20 0 -31 5q-13 6 -14 31q-1 9 -1 19v98v15q-1 10 -1 16z" />
    <glyph glyph-name="uni30D5" unicode="&#x30d5;" horiz-adv-x="212" 
d="M65 165h66q30 0 43 4h1l26 -14q1 -1 1 -3q0 -5 -4 -8t-8 -12q-1 -4 -2 -6q-24 -53 -63 -89q-29 -28 -75 -49q-2 -2 -3 0l-24 17v2q101 43 138 134h-105h-23q-15 -1 -23 -1v26q28 -1 55 -1z" />
    <glyph glyph-name="uni30D6" unicode="&#x30d6;" horiz-adv-x="250" 
d="M70 157h61q14 0 28 2q1 0 5 1q4 2 6 2h1l25 -21l-3 -9q-2 -3 -3 -5q-2 -4 -4 -11q-4 -11 -7 -16q-9 -18 -17 -30q-15 -23 -34 -41q-24 -22 -73 -49h-2l-24 19v1q108 52 130 130h-94q-10 0 -28 -1h-27v29q30 -1 60 -1zM192 194l26 -25l-13 -12l-27 26zM240 189l-14 -11
l-26 23l13 11z" />
    <glyph glyph-name="uni30D7" unicode="&#x30d7;" horiz-adv-x="248" 
d="M61 157h88q4 0 11 3q3 2 4 2h2l26 -20q0 -3 -3 -7q-2 -3 -3 -4q-2 -5 -5 -14q-2 -7 -3 -11q-1 -1 -2 -4q-3 -8 -12 -21q-12 -22 -31 -42q-26 -30 -67 -49q-8 -6 -20 -10q-2 0 -9 7l-2 2q-2 2 -8 5q-5 4 -8 6q99 36 136 131h-93q-9 0 -27 -1h-25v29q32 -2 51 -2zM209 212
q27 -2 29 -29q-1 -28 -29 -29q-27 2 -29 29q2 27 29 29zM223 183q-1 13 -14 14q-13 -1 -14 -14q1 -13 14 -14q13 1 14 14z" />
    <glyph glyph-name="uni30D8" unicode="&#x30d8;" horiz-adv-x="260" 
d="M34 63l-24 21v3q21 11 56 42q7 5 10 8q13 11 22 11t26 -11q2 -1 3 -2q3 -2 8 -6q72 -53 115 -74v-3l-17 -28h-2q-52 35 -101 76q-2 2 -8 6q-10 9 -16 12q-11 4 -25 -11l-2 -2q-21 -22 -42 -42q-1 -1 -3 0z" />
    <glyph glyph-name="uni30D9" unicode="&#x30d9;" horiz-adv-x="258" 
d="M31 63l-21 25v2q30 19 58 40q2 1 5 4q11 9 19 11q11 4 27 -8q11 -6 32 -21q10 -8 15 -11q2 -1 5 -4q49 -34 77 -49l-17 -29h-1q-40 28 -79 59q-6 5 -18 14q-7 6 -10 8q-2 1 -5 4q-9 7 -14 8q-10 3 -21 -5q-12 -12 -24 -23q-15 -13 -28 -25zM170 159l15 10q13 -11 25 -23
l-12 -13q-7 7 -20 19q-5 5 -8 7zM234 165l-13 -14q-11 14 -26 27l12 12q15 -12 27 -25z" />
    <glyph glyph-name="uni30DA" unicode="&#x30da;" horiz-adv-x="266" 
d="M256 54v-2l-20 -27h-3q-6 2 -18 10q-5 4 -7 5q-33 21 -88 69q-9 7 -15 7q-5 0 -11 -6q-2 -1 -3 -2q-3 -3 -11 -10q-8 -6 -12 -10t-12 -11q-9 -8 -13 -12l-2 -2q-4 -6 -8 -5l-23 24v2q26 15 48 32q5 5 15 13q5 4 7 6q2 1 5 3q8 6 12 7q11 3 30 -9q1 -1 2 -1l9 -6
q3 -2 14 -11q62 -50 104 -64zM207 195q27 -2 29 -29q-2 -28 -29 -30q-28 2 -30 30q2 27 30 29zM222 166q-1 13 -15 14q-14 -1 -15 -14q0 -15 15 -15t15 15z" />
    <glyph glyph-name="uni30DB" unicode="&#x30db;" horiz-adv-x="258" 
d="M61 90l27 -13v-4q-6 -4 -16 -18q-3 -5 -5 -7q-13 -19 -31 -36q0 -1 -2 0t-6 4q-5 4 -9 6h-1q-7 2 -8 6q34 27 51 62zM174 72l18 19h2q29 -25 54 -52v-2l-22 -19h-2q-2 3 -6 8q-27 32 -44 46zM111 191l38 -2q0 -2 -2 -7q-2 -6 -2 -10v-32h39q24 0 48 1v-28q-8 0 -25 1h-25
h-37v-17v-52q0 -20 1 -37v-5v-1q-4 -9 -9 -13q-4 -3 -10 -5q-15 -6 -30 -5h-4q-3 13 -8 23q-3 6 -1 7h7q12 -1 17 0q9 4 9 13v71q0 -5 0 21h-44h-24q-17 -1 -25 -1v28q21 -1 44 -1h48q-1 17 -5 51z" />
    <glyph glyph-name="uni30DC" unicode="&#x30dc;" horiz-adv-x="250" 
d="M58 93h2l26 -14v-2q-5 -4 -11 -13l-6 -9q-7 -9 -22 -26q-8 -9 -12 -14q-3 -1 -8 3l-2 2q-3 2 -12 6q-2 1 -3 1v2q33 33 48 64zM166 77l19 15q21 -18 47 -55l-20 -17h-2q-5 7 -16 21q-17 24 -28 36zM176 173l12 11q6 -5 17 -15q5 -5 8 -7l-10 -14l-5 5q-14 14 -22 20z
M200 197l12 12q16 -10 28 -23l-13 -13q-13 14 -27 24zM109 191h4q5 0 15 -1t15 -1q1 -2 -1 -5q-1 -1 -1 -2q-1 -5 -1 -10v-32h35q29 0 46 1v-30q-7 0 -21 1h-22h-38v-75v-9q3 -22 -4 -28q-5 -6 -17 -10q-14 -2 -26 -2l-8 25v2h16q13 1 14 18v79h-42h-26q-17 -1 -26 -1v30
q17 -1 50 -1h44q-2 29 -6 51z" />
    <glyph glyph-name="uni30DD" unicode="&#x30dd;" horiz-adv-x="256" 
d="M59 90h2l25 -12q2 -3 0 -5q-6 -4 -13 -15q-3 -4 -4 -6q-10 -14 -33 -36q-2 -1 -2 0l-24 15v3q27 20 49 56zM168 77l19 17q21 -16 51 -55q-12 -11 -20 -23h-2q-4 6 -13 17q-21 30 -35 44zM187 189q2 27 30 29q27 -3 29 -29q-1 -28 -29 -30q-29 2 -30 30zM232 188
q-1 15 -15 16q-16 -1 -17 -16q0 -15 17 -16q14 1 15 16zM112 189h3q7 0 21 -2q5 -1 8 -1q1 -3 -1 -10q-1 -4 -1 -7v-32q40 0 79 3l4 -29q-8 0 -24 1t-25 1h-34v-96q0 -20 -16 -27q-7 -4 -25 -4q-5 -1 -8 -1q-3 9 -6 17q0 1 -1 3q-4 5 -2 8h17q12 1 13 18v82h-37q-9 0 -27 -1
q-17 -1 -25 -1v29q15 0 45 -1q29 -1 44 -1v13q0 6 -1 18q-1 13 -1 20z" />
    <glyph glyph-name="uni30DE" unicode="&#x30de;" horiz-adv-x="246" 
d="M236 143v-2q-8 -4 -19 -16l-5 -5q-41 -46 -74 -72q14 -13 26 -28l-24 -18h-2q-39 45 -75 67l-1 1l21 19h2q15 -9 26 -19q4 -3 7 -5q31 26 63 66h-112q-9 0 -29 -1t-30 -1v30q15 -1 44 -1h76q33 0 66 1l6 6h2q17 -10 32 -22z" />
    <glyph glyph-name="uni30DF" unicode="&#x30df;" horiz-adv-x="144" 
d="M46 194h3q36 -10 69 -27l-12 -26l-2 -1q-36 17 -73 29l-1 1zM30 127h2q24 -7 70 -29q3 -2 5 -3l-15 -26q-37 19 -76 35l-1 1zM25 54h2q53 -17 99 -44h1q6 -2 7 -5q-2 -3 -7 -8q-9 -10 -13 -17l-3 2q-48 28 -100 46l-1 2z" />
    <glyph glyph-name="uni30E0" unicode="&#x30e0;" horiz-adv-x="250" 
d="M104 183h3q19 -5 37 -14v-3l-6 -5q-6 -3 -10 -16q-2 -6 -3 -8q-23 -60 -46 -99h1q5 0 8 1q47 3 92 12q-2 2 -5 6q-14 21 -24 30v2l19 15h2q29 -25 68 -78v-2l-18 -18q-1 0 -2 -2q-5 -3 -7 -3q-3 5 -10 15q-4 8 -7 12h-1q-42 -8 -126 -20l-24 -3q-1 0 -5 -1q-3 -1 -5 -2
q-1 -1 -4 -2q-2 0 -4 -1l-1 -1q-2 -3 -5 -2l-11 35l1 3h5q16 0 31 1h1q47 89 56 148z" />
    <glyph glyph-name="uni30E1" unicode="&#x30e1;" horiz-adv-x="208" 
d="M164 189h2l32 -16v-4q-5 -2 -8 -7t-8 -16q-3 -5 -4 -8q-10 -23 -25 -44q19 -15 38 -28l-18 -26h-2q-21 18 -36 28q-5 -7 -11 -13q-40 -46 -88 -68q0 -2 -1 0q-1 1 -3 2q-5 4 -14 11h-1q-6 1 -7 5q60 26 101 78l1 1q-7 5 -23 15q-15 10 -23 15l15 21q25 -12 49 -27
q28 43 34 81z" />
    <glyph glyph-name="uni30E2" unicode="&#x30e2;" horiz-adv-x="232" 
d="M79 170h64q11 0 34 2q11 1 17 1v-30q-8 0 -25 1h-26h-24v-40h37q11 0 33 1h33v-28h-32q-22 1 -33 1h-38v-40q1 -14 19 -15h25q12 0 39 2q-19 -2 3 0v-28q-12 -1 -21 -1h-23q-27 0 -39 3q-20 2 -26 11q-7 10 -7 21v47h-28h-25q-17 -1 -26 -1v28h28q20 -1 30 -1h21v40h-10
h-22q-15 -1 -23 -1v30q5 0 15 -1q20 -2 30 -2z" />
    <glyph glyph-name="uni30E3" unicode="&#x30e3;" horiz-adv-x="218" 
d="M67 180h28q1 -3 -2 -7v-4q0 -6 2 -19q2 -8 2 -12q1 -1 1 -2q1 -1 1 -2q11 2 36 6l18 3q21 1 30 8h4q11 -7 21 -16v-2q-7 -3 -14 -13q-1 -3 -2 -4q-17 -26 -37 -49h-2l-17 12q21 20 35 46v2q-35 -9 -68 -15q3 -21 8 -43q4 -30 11 -60l-26 -4q-6 51 -16 102q-2 0 -2 -1
q-24 -2 -48 -8l-1 -1q-4 -2 -8 -2l-11 24v3h7h1q24 3 57 8q0 3 -2 8q-1 7 -1 10q-3 17 -5 32z" />
    <glyph glyph-name="uni30E4" unicode="&#x30e4;" horiz-adv-x="262" 
d="M114 194l-2 -11v-1v-5v-1l3 -18q3 -16 5 -24q38 6 75 14q2 1 6 2q11 2 15 5q2 1 3 2h2q17 -7 31 -16v-4q-7 -4 -17 -19q-2 -3 -3 -5q-24 -37 -43 -57l-2 -1l-12 6q-8 3 -12 5v3q10 9 19 21q14 17 25 36q-12 -3 -37 -8l-45 -9q12 -62 26 -123l-28 -7h-2q-12 68 -24 125
q-2 -1 -7 -2q-32 -6 -72 -18l-8 32q29 2 82 12q0 6 -2 9q-1 3 -2 10q-6 29 -11 44z" />
    <glyph glyph-name="uni30E5" unicode="&#x30e5;" horiz-adv-x="202" 
d="M60 148h81q6 0 5 -2l-7 -89h27q12 0 26 1v-25q-5 0 -15 1h-13h-126h-13q-10 -1 -15 -1v25q14 -1 26 -1h79l6 70h-61q-4 0 -11 -1h-9v24q9 -2 20 -2z" />
    <glyph glyph-name="uni30E6" unicode="&#x30e6;" horiz-adv-x="246" 
d="M92 165h92l-12 -121q33 0 64 1v-32q-12 0 -36 1q-25 1 -38 1h-80q-13 0 -38 -1h-34v31q33 -1 68 -1h63l9 93h-66h-42v29q24 -1 50 -1z" />
    <glyph glyph-name="uni30E7" unicode="&#x30e7;" horiz-adv-x="152" 
d="M37 159h101q1 -18 1 -55q0 -59 3 -89h-25v14h-80q-4 0 -12 -1h-11v20q11 -1 23 -1h80v37h-80h-23v20q11 -1 23 -1h80v34h-80h-27v25q3 0 9 -1q12 -2 18 -2z" />
    <glyph glyph-name="uni30E8" unicode="&#x30e8;" horiz-adv-x="180" 
d="M74 169h94v-144q0 -16 2 -29h-32v11h-65q-10 0 -31 -1t-32 -1v31q31 -2 62 -2h66v42h-77q-11 0 -34 -2q-11 -1 -17 -1v32q8 0 5 0q32 -2 49 -2h74v40h-84h-21q-15 -1 -23 -1v28h32q22 -1 32 -1z" />
    <glyph glyph-name="uni30E9" unicode="&#x30e9;" horiz-adv-x="218" 
d="M69 186h76q18 0 38 2v-31q-6 0 -20 1q-13 1 -20 1h-64q-8 0 -23 -1q-14 -1 -21 -1v31q16 -2 34 -2zM61 127h115q1 0 3 2q3 2 4 1q16 -7 25 -18v-4l-6 -4q-6 -4 -11 -18q-2 -3 -2 -4q-1 -2 -3 -5q-11 -19 -18 -28q-11 -15 -23 -27q-30 -28 -66 -44q-1 -2 -3 0q-3 3 -11 8
q-9 7 -13 11v2q86 33 115 101h-104q-8 0 -26 -1t-27 -1v31q26 -2 51 -2z" />
    <glyph glyph-name="uni30EA" unicode="&#x30ea;" horiz-adv-x="144" 
d="M37 172v-67q0 -8 1 -24q1 -17 1 -26h-29q0 7 1 21v21v55v18q-1 12 -1 19q15 -1 32 -1q0 -3 -3 -8q-2 -5 -2 -8zM131 177v-44q0 -36 -7 -73q-6 -35 -26 -60q-14 -16 -29 -31q0 -2 -2 0q-1 1 -3 2q-4 3 -15 8h-1q-6 2 -7 6q24 17 35 30q25 30 25 84v64q0 10 -2 31
q2 -15 0 3q18 -1 35 -3q0 -3 -1 -8q-2 -6 -2 -9z" />
    <glyph glyph-name="uni30EB" unicode="&#x30eb;" horiz-adv-x="266" 
d="M64 169h3h15q10 -1 15 -1v-8q-1 -6 -1 -9v-11q0 -9 -2 -26q-1 -9 -1 -13v-2q-4 -23 -8 -34q-14 -41 -49 -65q0 -1 -2 0q-10 8 -23 15l-1 2q31 17 44 45q14 27 14 65v9q0 20 -4 33zM157 157v-111q0 -2 1 -2q27 10 70 48q10 9 15 13l13 -23q-28 -31 -84 -64q-3 -2 -8 -5
q-14 -7 -17 -13q-6 0 -9 4q-1 2 -4 5q-2 2 -9 11q-1 1 0 3q5 18 5 37v92q0 11 -1 23q5 0 15 -1q11 0 16 -1q0 -3 -1 -8q-2 -5 -2 -8z" />
    <glyph glyph-name="uni30EC" unicode="&#x30ec;" horiz-adv-x="206" 
d="M12 173l37 -6q0 -2 -2 -6q-3 -4 -3 -7v-115h2q30 8 70 31q39 23 73 55l7 -25v-2q-44 -44 -112 -74q-2 -1 -7 -3q-16 -7 -24 -12q-11 -3 -17 -10h-2l-24 25v1q2 5 3 9t1 7v112q0 9 -2 20z" />
    <glyph glyph-name="uni30ED" unicode="&#x30ed;" horiz-adv-x="182" 
d="M170 159v-104q0 -29 2 -55h-31v15h-99v-15h-32q2 28 2 58v101h158zM42 41h99v92h-99v-92z" />
    <glyph glyph-name="uni30EE" unicode="&#x30ee;" horiz-adv-x="176" 
d="M11 167h128q1 0 3 1q4 2 5 1q5 -2 14 -9q3 -2 5 -3v-3q-6 -9 -7 -18q-2 -6 -4 -18q-3 -16 -6 -24q-3 -14 -15 -33q-20 -35 -53 -56l-19 15v2q32 17 52 47q19 31 24 77h-106v-33q0 -12 1 -23h-23v11q1 8 1 12v54z" />
    <glyph glyph-name="uni30EF" unicode="&#x30ef;" horiz-adv-x="205" 
d="M10 180h148l11 3h2l22 -14q2 -2 0 -6q-1 -6 -4 -11q-3 -28 -9 -55q-9 -30 -19 -45q-20 -39 -64 -72h-1l-22 18v2q49 33 66 69q21 41 21 84v4h-125l1 -75h-27v98z" />
    <glyph glyph-name="uni30F0" unicode="&#x30f0;" horiz-adv-x="252" 
d="M76 148h63v1q-2 23 -5 42q0 1 -1 3q0 5 -2 7h39q1 -3 -3 -8q-2 -4 -2 -6v-38v-1h21q7 0 21 2q7 1 11 1v-29h-52l-1 -1q0 -7 1 -22v-22h1h39q18 0 36 2v-32h-74l-1 -1q0 -9 1 -27q2 -30 2 -47h-32q0 23 2 69q0 -3 0 5l-1 1q-64 -2 -129 -5v34h43v1v44h-6q-13 -1 -18 -1v31
q5 0 16 -1q20 -2 31 -2zM130 77h10q2 22 0 44v1h-60v-1v-44v0h50z" />
    <glyph glyph-name="uni30F1" unicode="&#x30f1;" horiz-adv-x="242" 
d="M189 175l20 -16q2 -1 1 -4v-1q-7 -3 -15 -15q-3 -4 -5 -6q-16 -23 -36 -41l-20 10v-1q-1 -1 -1 -2v-64h43q27 0 56 2v-32q-9 0 -26 1q-18 1 -27 1h-110q-9 0 -29 -1t-30 -1v32q31 -2 61 -2h35v58q0 6 -1 17q-1 2 -1 4q6 0 16 -1q9 -1 15 -2q15 12 31 34h-92q-6 0 -17 -1
t-17 -1v30q25 -1 49 -1h42q24 0 47 1q1 0 3 1q7 2 8 1z" />
    <glyph glyph-name="uni30F2" unicode="&#x30f2;" horiz-adv-x="202" 
d="M192 158v-1l-5 -5q-3 -5 -4 -15q-1 -6 -2 -8q-19 -70 -53 -102q-36 -33 -92 -45h-2q-5 9 -15 18l-2 2q-5 3 -4 6q55 2 97 42q18 16 28 40h-75h-26q-18 -1 -27 -1v26q18 -1 37 -1h101q1 6 4 16q2 11 3 16h-100q-7 0 -21 -1t-21 -1v29q21 -1 40 -1h70q18 0 34 1q1 0 4 1
q2 2 4 1l12 -6t12 -7q3 -2 3 -4z" />
    <glyph glyph-name="uni30F3" unicode="&#x30f3;" horiz-adv-x="222" 
d="M80 133l-18 -18h-2q-22 24 -48 44l19 16h3q18 -14 46 -40v-2zM200 143l12 -27v-1q-51 -52 -160 -111l-6 -3q-10 -3 -12 -8h-3q-6 7 -16 24q-3 6 -5 9v2q14 1 33 9q83 31 157 106z" />
    <glyph glyph-name="uni30F4" unicode="&#x30f4;" horiz-adv-x="252" 
d="M221 169l-13 -10l-5 5q-13 13 -21 19l13 11q15 -11 26 -25zM242 194l-13 -11l-4 4q-11 12 -19 17l11 11q2 -2 6 -5q13 -9 19 -16zM125 185v-28h50q1 0 6 1q4 2 5 1l27 -18v-4q-7 -4 -8 -16q-15 -47 -29 -69q-18 -31 -52 -57q-12 -12 -27 -20q-2 -2 -2 0q-3 1 -8 4
q-12 8 -20 11v3q88 43 107 137h-135v-64h-29q0 12 1 35v34v22h85v16q0 5 -2 17q-2 7 -2 11q19 0 38 -1q0 -2 -2 -6q-3 -6 -3 -9z" />
    <glyph glyph-name="uni30F5" unicode="&#x30f5;" horiz-adv-x="186" 
d="M39 141h47v3q2 12 2 25v9q15 -1 29 -3q0 -3 -3 -7q-2 -2 -2 -4q-1 -5 -2 -13q-1 -5 -1 -7v-3h34q17 0 33 1v-12q0 -9 -2 -27q-1 -9 -1 -13q-1 -23 -8 -44q-6 -17 -14 -23q-12 -10 -36 -10h-6l-3 22q7 -1 13 -1h4q9 0 15 7q5 6 9 21q5 18 5 46v11h-46l-1 -1
q-14 -63 -76 -105l-19 16q55 30 72 89l-1 1h-42h-10q-7 -1 -11 -1v24q11 -1 21 -1z" />
    <glyph glyph-name="uni30F6" unicode="&#x30f6;" horiz-adv-x="208" 
d="M78 183l24 -10q1 -3 -2 -8q-2 -3 -2 -4l-3 -6q-2 -3 -5 -10q-2 -6 -5 -12h82q16 0 31 1v-24h-15q-10 1 -16 1h-23q-3 -34 -15 -54q-16 -31 -51 -56q0 -1 -1 0l-20 13v2q57 35 64 95h-50q-18 -25 -46 -42l-15 15v2q52 32 67 97h1z" />
    <glyph glyph-name="uni3105" unicode="&#x3105;" horiz-adv-x="203" 
d="M82 198q1 7 8 3q11 -9 17 -21q0 -4 -6 -6q-4 -1 -24 -27q-19 -25 -28 -34q55 10 107 23q3 2 7 2q25 -13 30 -26q0 -3 -4 -5q-6 -4 -9 -10q-46 -113 -82 -111q-3 0 -3 3q0 2 1 10q-2 9 -20 27q-3 2 -4 3q-1 7 7 8q20 -15 27 -17q31 9 52 84q3 13 -19 11q-62 -7 -95 -22
q-1 0 -5 -3t-6 -3q-23 19 -9 27q49 35 58 84z" />
    <glyph glyph-name="uni3106" unicode="&#x3106;" horiz-adv-x="188" 
d="M16 -11q-6 2 -2 8q47 13 86 50q-24 21 -52 38q-3 3 -2 6q2 3 6 2q35 -15 61 -31q23 26 31 58q1 4 -2 5q-49 -5 -80 -17q-2 -2 -8 -5q-11 6 -13 22q33 20 46 64q-5 14 4 14q15 -9 21 -21q1 -5 -10 -9q-7 -7 -16 -21q-11 -18 -21 -27q69 12 80 20q1 1 3 1q17 -5 30 -24
q0 -4 -7 -8q-5 -2 -6 -4q-15 -35 -36 -58q23 -15 33 -26q15 -16 13 -29q-6 -15 -20 -3q-19 21 -42 42q-38 -34 -97 -47z" />
    <glyph glyph-name="uni3107" unicode="&#x3107;" horiz-adv-x="186" 
d="M32 171h7q36 0 93 13q1 0 4 1q4 2 7 2q16 -5 33 -25q0 -2 -3 -6q-4 -5 -4 -9v-5q0 -9 1 -27q2 -34 2 -53v-40q-1 -22 -11 -26q-15 4 -17 16q0 3 2 11q5 23 5 54v37q0 41 -7 48q-5 9 -35 1q-5 -1 -17 -4q-34 -8 -40 -8h-2q-4 1 -7 4q0 -3 -1 -7q-1 -9 -1 -14v-41
q0 -33 -3 -65q0 -30 -10 -32q-16 8 -18 19q0 3 3 12q13 34 13 82v11q1 29 -11 55q-1 3 4 4q5 -1 13 -9v1z" />
    <glyph glyph-name="uni3108" unicode="&#x3108;" horiz-adv-x="183" 
d="M35 160v-7q0 -6 -1 -18v-17q-1 -34 -1 -95v-6q-1 -4 4 -4q45 0 93 12q6 1 20 1q11 -2 18 -14q5 -11 -5 -12q-4 0 -12 1q-20 2 -29 2h-10q-20 0 -72 -7q-14 -2 -15 -2q-10 4 -15 15q0 1 1 6q8 30 8 51v42q-1 49 -9 70q1 2 4 2q6 -1 12 -6q45 3 90 17q8 4 14 4
q13 -3 17 -12q2 -9 -11 -10q-50 -3 -85 -13q-4 -1 -5 -1q-4 0 -12 5q1 -2 1 -4z" />
    <glyph glyph-name="uni3109" unicode="&#x3109;" horiz-adv-x="208" 
d="M111 104q3 -4 1 -7q-1 -2 -4 -4q-3 -1 -3 -2q-1 -2 -3 -7q-30 -69 -84 -89q-7 -3 -6 2q0 3 -2 3q66 37 72 112q-17 -2 -23 -4q-4 -2 -10 -6q-6 -5 -9 -5q-4 2 -11 12q-5 8 -2 9q30 17 50 59q2 6 4 17q1 6 2 8q1 3 5 2q21 -16 20 -26q-2 -2 -5 -3q-4 -1 -7 -4
q-2 -3 -9 -11q-21 -28 -32 -38q12 2 34 6q41 6 63 11q1 0 3 1q8 2 12 2q13 -3 31 -21q0 -4 -6 -10q-4 -6 -15 -37q-31 -87 -56 -84q-2 0 -3 5q0 4 -1 5q-1 8 -23 22l-2 1q-3 5 3 8q2 -1 7 -3q14 -6 20 -6q26 5 43 88q2 12 -14 12q-19 -1 -53 -7q5 -3 13 -11z" />
    <glyph glyph-name="uni310A" unicode="&#x310a;" horiz-adv-x="195" 
d="M10 114h2q19 -1 68 7q6 26 5 47q0 10 -4 19q-1 2 -1 3v1q-1 4 3 4q25 -4 33 -19q0 -2 -3 -5t-4 -6q-2 -17 -8 -41q15 2 39 7q6 2 8 2t6 1q5 2 7 2q16 -3 24 -19q-1 -7 -5 -8q-4 0 -13 1q-8 1 -13 1h-12q-12 0 -34 -2q-7 -1 -11 -1q-15 -55 -35 -92h3q26 3 74 13
q-4 6 -12 16q-5 6 -7 9q-2 5 4 6q51 -28 51 -51q-1 -10 -15 -13q-4 0 -8 9q0 3 -1 4l-3 6q-2 3 -3 5q-39 -8 -76 -21q-2 -1 -6 -5q-6 -6 -8 -6q-12 6 -20 21q23 13 42 95q-14 -2 -34 -7q-11 -3 -13 -3q-15 7 -20 20z" />
    <glyph glyph-name="uni310B" unicode="&#x310b;" horiz-adv-x="183" 
d="M12 188q4 0 15 -1h5q37 0 91 12q17 -1 29 -16q0 -6 -3 -7q-8 -1 -17 -8q-12 -11 -42 -46l-6 -6q41 5 54 12q2 1 3 1q15 -6 29 -24q3 -3 0 -6q0 -3 -6 -5t-8 -6q-53 -100 -81 -98q-7 0 -7 3q3 10 -19 33q-5 5 -3 7q2 3 8 0q3 -2 8 -6q9 -7 17 -12q22 -5 61 82q5 15 -7 14
q-23 0 -44 -11q-6 -3 -8 -3q-15 3 -19 14q0 2 6 8l1 1q36 35 45 58v3q1 1 -1 0q-47 -6 -72 -14q-7 -2 -10 -2q-21 9 -19 23z" />
    <glyph glyph-name="uni310C" unicode="&#x310c;" horiz-adv-x="193" 
d="M47 100l-1 -1q-5 -6 -9 -6q-13 6 -17 17q0 2 4 4q3 2 4 3q21 32 18 69q2 4 6 4q16 -9 23 -18q0 -3 -1 -5q-12 -2 -27 -50q7 1 29 5q15 2 22 3q8 28 7 55q0 1 -1 7q-2 7 -2 10q2 3 5 4q17 -7 28 -16q2 -1 0 -7q-1 -1 -3 -4l-3 -3q-3 -21 -10 -41q13 2 25 6q2 0 4 1
q4 2 6 2q23 -11 29 -24q0 -5 -7 -8q-4 -2 -5 -4q-1 -5 -4 -18q-20 -95 -56 -98q-11 -2 -10 9q-3 10 -14 20q-6 6 -6 8q-1 6 5 5q2 -1 7 -5q13 -9 18 -9q28 -2 42 97q0 7 -7 7q-16 -3 -33 -5q-34 -84 -95 -120q-3 -2 -6 0q-2 4 0 6q52 37 81 111q-39 -5 -46 -11z" />
    <glyph glyph-name="uni310D" unicode="&#x310d;" horiz-adv-x="187" 
d="M78 189q17 -8 21 -19q0 -4 -4 -5q-4 -2 -24 -28q-31 -40 -48 -56q15 -15 38 -35q34 -27 31 -44q-1 -8 -12 -10q-6 0 -15 11q-1 1 -1 2q-17 31 -54 75v2q47 52 63 101q-1 6 5 6zM91 89v2q56 56 57 87q1 6 7 6q14 -9 21 -23q0 -4 -5 -5q-5 -2 -7 -5q-25 -34 -59 -62
q71 -57 71 -81q1 -11 -13 -14q-5 0 -12 9q-25 51 -60 86z" />
    <glyph glyph-name="uni310E" unicode="&#x310e;" horiz-adv-x="201" 
d="M18 176h11q32 0 113 17q22 4 24 4q11 -1 19 -11q6 -7 -3 -10h-2q-8 2 -18 2q-19 -1 -67 -9q9 -7 12 -13v-3q0 -2 -7 -8l-2 -1q-2 -2 -22 -31q1 2 -3 -4q4 1 12 2q30 3 46 10q1 0 3 1q3 2 5 2q23 -8 31 -21q0 -3 -4 -5q-3 -2 -4 -4q-2 -3 -7 -16q-41 -94 -67 -92
q-2 0 -3 4t-2 6q0 1 -1 2q-3 7 -20 18q-3 8 4 8l1 -1q11 -8 22 -10q26 4 52 84q1 7 -5 6q-43 -3 -55 -10q-1 0 -7 -4q-9 -4 -10 -4q-9 3 -16 17q0 2 3 5l1 1q16 11 29 44q1 3 2 11q1 3 1 5q-17 -2 -42 -6l-11 -2q-21 9 -13 16z" />
    <glyph glyph-name="uni310F" unicode="&#x310f;" horiz-adv-x="207" 
d="M60 178l5 1q50 1 97 14q8 2 10 2q10 -2 20 -12q5 -9 -3 -11q-5 -2 -22 1h-3q-28 -1 -74 -8q-1 0 -4 -1q-5 -2 -9 -2q-4 1 -9 4l-1 -2q1 -131 -49 -168q-3 -2 -6 0q-2 2 -1 4q37 32 36 131v4q1 29 -4 48q2 2 3 2q7 0 14 -7z" />
    <glyph glyph-name="uni3110" unicode="&#x3110;" horiz-adv-x="140" 
d="M122 156v-151q-2 -10 -8 -11q-11 6 -15 17q0 1 1 5q6 18 6 42v16q-3 -1 -10 -4q-52 -23 -58 -28q-2 -1 -5 -5q-4 -5 -7 -5q-11 7 -16 18q0 3 4 7q4 5 5 9q4 20 5 67q0 14 -4 21q-1 3 -1 5q1 2 4 2q21 -6 22 -17q0 -1 -2 -4q-3 -5 -4 -11q-1 -11 -3 -36q-3 -28 -3 -33
q12 4 36 11q25 7 37 12v80q0 15 -5 27q-2 4 -2 6q1 4 4 4q26 -7 27 -16q0 -2 -2 -5q-7 -9 -6 -23z" />
    <glyph glyph-name="uni3111" unicode="&#x3111;" horiz-adv-x="161" 
d="M10 77v3q76 70 79 113q1 0 2 1q2 2 4 1q14 -11 20 -24q1 -3 -2 -6l-4 -2q-3 -1 -5 -3q-44 -52 -79 -80q9 -5 32 -15q94 -40 91 -58q-1 -17 -18 -13q-3 3 -8 7q-28 29 -112 76z" />
    <glyph glyph-name="uni3112" unicode="&#x3112;" horiz-adv-x="199" 
d="M106 119v-40q0 -18 3 -64l1 -8q-1 -8 -8 -10q-12 7 -18 26q0 2 1 5q7 19 7 64v69q-33 -4 -55 -9q-1 0 -3 -1q-5 -3 -8 -3q-10 4 -16 18q2 1 3 1q44 0 133 18q2 0 5 1q7 2 10 2q11 -1 20 -11q8 -10 -1 -12q-4 -1 -11 1q-10 1 -16 1q-9 0 -42 -3q2 0 -5 -1q-1 -10 0 -30
v-14z" />
    <glyph glyph-name="uni3113" unicode="&#x3113;" horiz-adv-x="219" 
d="M106 58v5q-30 -3 -35 -10q-5 -5 -8 -5q-11 5 -16 19q0 1 2 3q6 5 6 13v41q0 12 -8 32q-2 6 -2 7q16 5 29 -10q0 -2 -2 -5q-4 -5 -3 -10v-65q19 0 37 3v74q0 20 -6 36q-2 3 -2 5q-1 4 0 5l1 1q18 0 31 -15q-5 -7 -6 -12q-2 -37 -3 -68v-23q9 1 29 4q-13 -2 5 1q3 0 6 -4
q1 5 1 8q2 15 2 48q0 9 -4 18q-1 2 -1 3q0 5 4 5q23 -8 24 -16v-1l-1 -2q-6 -6 -6 -11q-3 -70 -10 -81h-3q-1 1 -3 4q-6 9 -6 14q-8 -1 -29 -2q4 0 -8 -1v-10q0 -7 1 -20v-21q27 3 54 8h7q12 0 20 -11q6 -11 -5 -12q-3 0 -12 1q-13 2 -19 2q-35 0 -120 -11q-17 -2 -19 -2
q-18 7 -15 14q15 2 46 4q29 3 43 4q4 23 4 46z" />
    <glyph glyph-name="uni3114" unicode="&#x3114;" horiz-adv-x="174" 
d="M110 198h2q19 -15 20 -23q0 -3 -7 -4q-5 -1 -6 -3q-40 -46 -93 -74q-5 -3 -8 0q-2 4 2 6q61 42 84 85q1 1 1 4q1 6 5 9zM119 69v-37q0 -39 -8 -44q-12 3 -17 19q0 1 2 4q5 11 5 21v35v11q-47 -38 -85 -51q-6 1 -3 7q80 39 125 118v2q2 7 6 7q12 -7 18 -18q2 -3 0 -5
q0 -2 -5 -3q-4 -2 -5 -3q-15 -21 -40 -44q7 -3 10 -7q3 -3 -2 -10q-1 -1 -1 -2z" />
    <glyph glyph-name="uni3115" unicode="&#x3115;" horiz-adv-x="197" 
d="M155 175q2 10 -4 9q-32 -1 -90 -11q-12 -2 -13 -2q-14 6 -19 22q1 0 2 1h1q76 -4 128 12q23 -10 27 -22q-1 -2 -4 -4q-12 -8 -18 -39q-5 -17 -13 -21q-5 2 -6 6q-14 -1 -40 -8q-18 -5 -23 -5q-5 1 -11 4q-1 -84 -53 -129q-3 -2 -6 0q-3 3 -1 6q40 45 39 114q0 7 -3 20
q-1 5 -1 7q3 7 20 -8q16 1 50 10q12 3 14 3q4 0 14 -6q1 7 5 19q4 14 5 22z" />
    <glyph glyph-name="uni3116" unicode="&#x3116;" horiz-adv-x="159" 
d="M140 161v-31q0 -14 1 -78q1 -21 1 -23q-1 -23 -13 -27q-5 1 -9 9h-8q-12 3 -49 -4q-15 -2 -19 -2q-2 0 -7 5q-3 2 -4 3q-1 2 -3 2v-1q-1 -13 -6 -16q-11 3 -14 19q0 2 1 5q9 20 9 79v37q0 10 -4 29q-2 9 -2 11q0 3 3 2t8 -6q79 9 96 21q22 -7 28 -18q0 -2 -4 -6
q-6 -5 -5 -10zM58 119q0 2 4 4h1q34 -23 35 -37q-5 -23 -18 -13q-6 19 -17 37q-5 7 -5 9zM30 24h10q21 -2 61 6l5 1q5 0 12 -5q0 3 2 10q5 27 4 40v45q1 26 -2 42q-3 9 -13 8q-17 0 -70 -12l-5 3v-19q1 -50 -4 -114v-5z" />
    <glyph glyph-name="uni3117" unicode="&#x3117;" horiz-adv-x="180" 
d="M69 119v-103q-2 -18 -9 -23q-10 7 -12 19q0 3 1 14q4 29 4 56v42q0 26 -3 39h-2q-5 -1 -12 -3t-9 -2q-13 4 -17 19q0 1 2 1q68 2 116 16q2 0 4 1q5 2 7 2q23 -9 31 -24q0 -3 -4 -6q-5 -3 -5 -5q-25 -92 -50 -93q-3 0 -5 6q-1 3 -2 5v1q-3 5 -20 15q-6 3 -6 7q1 4 6 5
q3 -1 8 -4q13 -6 16 -6q21 -1 32 69q2 8 -11 9q-14 0 -69 -11q12 -11 13 -19q0 -2 -1 -4q-3 -8 -3 -23z" />
    <glyph glyph-name="uni3118" unicode="&#x3118;" horiz-adv-x="200" 
d="M183 120h-19q-32 1 -58 -5q-6 -24 -12 -50v-3q8 2 23 5q13 4 19 5l2 1q7 4 9 4q12 -5 21 -17q1 -1 1 -3v-1q0 -3 -7 -6q-3 -1 -4 -2t-7 -11q-21 -34 -31 -43q-4 -4 -7 -3q-4 3 -2 7q12 15 24 47q3 11 -4 10q-30 -2 -40 -10q-2 -1 -5 -3q-7 -5 -9 -5q-9 3 -13 16q0 3 4 7
q8 6 11 15q3 7 10 37q-32 -8 -47 -14l-2 -1q-6 -2 -10 -2q-5 0 -18 17l-1 2q-1 1 -1 2t2 1q10 -1 63 7q11 2 17 3q6 34 6 46q0 9 -4 19q-1 2 -1 3q0 4 2 4h2q32 -7 32 -13q0 -3 -1 -4q-1 -2 -4 -4t-3 -3q-2 -7 -5 -22q-4 -15 -6 -23q11 2 29 6q10 2 14 3q1 0 4 1q5 2 8 2
q9 -1 18 -11q7 -9 0 -11z" />
    <glyph glyph-name="uni3119" unicode="&#x3119;" horiz-adv-x="201" 
d="M86 191q5 4 17 -10q12 -12 8 -20q-1 -2 -5 -9l-3 -6l-35 -60q-28 -47 -36 -60q39 4 93 10q22 1 22 2q-2 8 -11 29q-4 10 -5 13t0 4q2 1 5 0q22 -16 41 -54q14 -33 -8 -36q-11 0 -14 19q-1 8 -3 10q-35 -5 -92 -13q3 0 -6 -1q-3 -1 -11 -4q-12 -5 -16 -3q-13 9 -17 24
q0 5 9 14l1 1q26 32 62 111q3 11 2 21q-2 13 2 18z" />
    <glyph glyph-name="uni311A" unicode="&#x311a;" horiz-adv-x="181" 
d="M103 113l-2 -44v-57q-2 -17 -10 -20q-12 6 -15 17q0 2 3 13q6 21 6 32l1 55q-1 15 -7 20q-10 11 -58 43q-11 7 -3 19q7 6 19 -2q8 -5 39 -40q18 -19 19 -19q31 29 44 51q3 4 5 10q1 6 4 6q13 -3 23 -21q0 -4 -5 -5q-4 -1 -6 -3q-9 -8 -24 -20q-40 -33 -33 -35z" />
    <glyph glyph-name="uni311B" unicode="&#x311b;" horiz-adv-x="197" 
d="M107 153v-17q0 -8 3 -19q2 -6 2 -8q-1 -5 -10 -9q-1 0 -3 1q-5 1 -13 1q-42 -2 -44 -46q3 -43 49 -47q32 -3 45 20q4 7 11 3q5 -4 1 -12q-16 -29 -57 -28q-61 5 -65 65q4 57 66 60v8q1 30 -4 45q-20 -1 -28 -3q-2 0 -10 -2q-17 -3 -21 -3q-9 3 -19 16q0 1 1 2v1
q77 2 131 12q2 0 7 2q9 2 14 2q10 -1 19 -13q5 -10 -5 -10q-1 0 -4 1q-9 1 -14 1q-14 0 -58 -4q10 -6 10 -9t-2 -7q-2 -2 -2 -3z" />
    <glyph glyph-name="uni311C" unicode="&#x311c;" horiz-adv-x="196" 
d="M95 103v8v25q-20 -2 -50 -7q-15 -3 -18 -3q-10 3 -17 15q0 5 5 5q34 -3 79 5q0 15 -2 32q0 3 -4 13l-1 4q0 5 12 2q15 -4 16 -9q0 -2 -2 -6q-3 -3 -3 -6q0 -6 -1 -16v-12h3q11 1 26 4q4 0 12 2q7 1 10 1q21 -4 26 -19q-1 -5 -5 -5q-3 0 -8 1q-14 2 -27 2q-19 0 -36 -1
q1 -24 4 -38q1 -2 1 -3q-1 -9 -10 -11h-5q-8 1 -12 1q-37 -2 -39 -37q3 -39 47 -42q25 -1 36 11q6 9 9 4q3 -6 -2 -15q-17 -20 -46 -22q-55 7 -61 60q4 53 63 57z" />
    <glyph glyph-name="uni311D" unicode="&#x311d;" horiz-adv-x="209" 
d="M82 103v-44q-2 -50 38 -47q10 0 22 2q3 1 5 1q13 -3 19 -15q3 -7 -27 -7q-47 -1 -61 17q-14 16 -12 73v18q-1 0 -4 -1q-3 0 -5 -1q-10 -1 -22 -5q-6 -2 -8 -2q-15 7 -17 17q14 1 39 4q11 1 17 2v54q1 5 -3 14q-1 3 -1 4q0 6 3 6q20 -4 26 -13v-2q0 1 -1 -2q0 -1 -2 -3
q-6 -7 -6 -23v-33q34 6 48 8q3 21 3 41q-1 9 -4 24q0 5 3 5q14 -2 27 -11q1 -1 1 -4q0 -1 -3 -4q-3 -4 -4 -6q-2 -23 -6 -42q17 4 29 4q11 -2 19 -13q4 -9 -7 -11q-4 0 -15 3q-7 1 -8 1h-10q-8 -1 -12 -1q-13 -49 -27 -74q-5 -4 -7 2q11 31 18 70q-32 -4 -45 -6z" />
    <glyph glyph-name="uni311E" unicode="&#x311e;" horiz-adv-x="190" 
d="M46 160l3 2q13 -7 18 -17q2 -2 -1 -5q-1 -2 -5 -4q-3 -1 -3 -2q-2 -3 -5 -10q-7 -14 -13 -22l10 1q27 4 39 6q8 29 10 65q-22 -3 -52 -9q-8 -2 -9 -2q-17 5 -18 21h14q67 1 110 14q6 2 8 2q9 -3 18 -14q6 -9 -1 -11q-12 1 -29 2q-15 0 -30 -1q2 -1 5 -3q14 -10 13 -14
q0 -2 -2 -4q-6 -5 -8 -16q-1 -4 -4 -13q-2 -9 -4 -14q27 5 34 7q2 0 5 2q4 2 6 2q11 -4 24 -19q1 -1 1 -3v-1q0 -3 -4 -5q-4 -3 -6 -7q-13 -45 -50 -87q-13 -8 -16 -2q37 43 45 94q-1 11 -9 10q-6 0 -27 -3q-5 -1 -8 -1q-35 -85 -86 -106q-5 1 -3 6q44 29 69 96
q-40 -6 -46 -9q-3 -1 -9 -5q-5 -4 -7 -4q-9 5 -13 19q0 4 5 7q17 6 29 41q1 2 1 8q1 6 1 8z" />
    <glyph glyph-name="uni311F" unicode="&#x311f;" horiz-adv-x="200" 
d="M10 177q0 4 8 3q63 5 74 13q1 0 2 2q3 2 5 2q20 -7 28 -17v-1q1 -2 -1 -4l-3 -3q-7 -4 -7 -8q-6 -89 65 -148q8 -7 9 -9q-3 -18 -27 -9q-63 52 -62 170q0 11 -8 10q-18 -3 -48 -12q-16 -4 -18 -4q-13 6 -17 15z" />
    <glyph glyph-name="uni3120" unicode="&#x3120;" horiz-adv-x="184" 
d="M40 95l55 -2q37 48 35 60q2 4 5 3q18 -13 22 -23q0 -2 -3 -5q-1 -1 -6 -3q-6 -2 -7 -3q-58 -69 -97 -106q24 5 69 16q15 3 22 5l-3 6q-3 5 -7 11q-6 10 -6 13q2 4 9 -1q44 -38 46 -56q0 -11 -12 -14q-11 0 -14 12q-1 3 -4 11q-3 6 -4 9q-91 -27 -108 -40q-2 -1 -5 -1
t-16 23q-1 4 1 6q1 1 7 3q9 3 13 5q19 16 54 58q-7 -1 -17 -2q-23 -2 -43 -9q-9 3 -15 23q0 4 7 6q10 3 15 8q53 54 53 83q0 2 4 6q14 -6 23 -19q1 -3 -1 -5t-7 -4l-1 -1q-1 -2 -5 -6q-38 -47 -59 -66q-2 -1 0 -1z" />
    <glyph glyph-name="uni3121" unicode="&#x3121;" horiz-adv-x="182" 
d="M19 181h12q64 1 89 16q4 2 5 2q26 -13 26 -22q0 -3 -4 -5l-2 -2q-1 0 -3 -3q-10 -41 -30 -76q59 -61 60 -81q-3 -10 -11 -11q-8 0 -18 14l-1 1q-18 31 -41 58q-27 -39 -66 -68l-1 -1q-16 -9 -22 -6q-2 2 0 3q43 28 77 87q-28 33 -49 54q-6 5 -5 9t6 2q26 -18 57 -47
q12 25 20 55q5 18 -13 13h-2q-56 -12 -70 -13q-11 4 -17 15q-3 6 3 6z" />
    <glyph glyph-name="uni3122" unicode="&#x3122;" horiz-adv-x="179" 
d="M57 168h-1q-8 -2 -17 8q-11 12 -4 13h33q35 1 62 11l2 1q18 -5 30 -21q2 -3 -2 -7q-6 -3 -8 -5q-4 -5 -12 -19q-10 -18 -16 -25q-7 -5 -11 0q16 32 19 52v1q-2 6 -4 5q-18 0 -53 -10q-7 -2 -10 -3q14 -14 14 -22q0 -4 -5 -8q-4 -3 -6 -6l-15 -21q-11 -14 -14 -19l-3 -3
q-2 -3 -3 -5q58 5 92 13q3 1 8 4t7 3q21 -11 28 -22v-1q1 -1 -1 -3q-1 -2 -5 -4q-5 -2 -6 -5q-24 -53 -45 -74q-3 -4 -7 -3q-3 2 -2 7q21 37 28 66q0 1 1 3q4 14 -3 14q-63 -9 -82 -12q-5 -1 -13 -4q-4 -2 -5 -2q-9 2 -18 19q0 2 5 5q4 2 5 3q34 41 37 76z" />
    <glyph glyph-name="uni3123" unicode="&#x3123;" horiz-adv-x="183" 
d="M21 198q-1 2 3 4q18 -5 30 -15q2 -2 2 -4v-1q0 -1 -4 -5q-3 -4 -4 -6q-2 -6 -8 -59q-1 -11 -1 -15q3 0 12 1q77 9 84 14q1 0 4 2q4 3 6 3q14 -7 26 -19q2 -3 0 -7q-1 -1 -4 -3t-5 -4q-23 -82 -37 -93q-7 -4 -7 2q18 51 20 87q1 12 -11 11q-61 -2 -89 -13q-1 0 -2 -2
q-2 -2 -4 -2q-11 3 -22 18q0 2 5 7t6 9q0 1 1 4q5 41 4 62q0 4 -4 20z" />
    <glyph glyph-name="uni3124" unicode="&#x3124;" horiz-adv-x="201" 
d="M112 83v-51q-2 -22 23 -20q16 0 31 5q6 2 8 2q13 -3 17 -15q-2 -7 -36 -8h-34q-26 1 -26 22v63q1 10 -4 22q-1 1 -1 2q-16 -78 -72 -114q-4 -1 -6 0q-2 3 0 6q51 42 62 119q-18 -4 -37 -10l-4 -1q-20 8 -18 18q36 3 61 8q2 20 2 42q0 6 -3 19q-1 3 -1 4q1 5 3 5q1 0 3 -1
q27 -7 25 -13q0 -1 -3 -4q-2 -3 -3 -5q0 -23 -4 -44q23 4 46 10q8 2 9 2q14 -4 19 -15q1 -7 -14 -7q-24 1 -62 -5v-3q-1 -3 -1 -5q23 -4 28 -11q0 -4 -3 -7q-5 -4 -5 -10z" />
    <glyph glyph-name="uni3125" unicode="&#x3125;" horiz-adv-x="181" 
d="M113 194q0 4 6 4q11 -6 25 -23q3 -3 -1 -7q-4 -1 -7 -4q-38 -62 -100 -146q52 2 102 8q5 1 6 1q10 -1 19 -12q8 -11 1 -15q-1 0 -3 1q-32 6 -62 5q-55 -2 -66 -9q-2 -2 -4 -3q-4 -3 -7 0q-9 12 -11 21q-1 4 1 5t4 3q4 2 6 4q57 63 91 150v17z" />
    <glyph glyph-name="uni3126" unicode="&#x3126;" horiz-adv-x="203" 
d="M53 169q-1 5 2 6q26 -6 29 -15v-3q0 -1 -3 -4q-2 -3 -2 -4q4 -116 -60 -160q-3 -2 -6 0t0 5q51 46 48 139q-1 19 -7 32q-1 3 -1 4zM127 158v-92q1 -48 38 -51q3 0 7 1q2 1 3 1q11 -2 18 -13q0 -9 -18 -10q-62 3 -64 72v99q-1 10 -5 19q-2 4 -2 6q-1 4 4 5q18 -5 27 -17
q0 -3 -1 -5q-7 -7 -7 -15z" />
    <glyph glyph-name="uni3127" unicode="&#x3127;" horiz-adv-x="51" 
d="M34 175v-127v-14q1 -12 0 -21q0 -24 -10 -24q-8 6 -14 30q0 2 2 5q4 6 4 11q0 9 1 23q1 34 1 61v49q0 13 -6 30q-2 5 -2 6q1 4 4 5q19 -5 26 -18v-2q1 -1 0 -2q-6 -7 -6 -12z" />
    <glyph glyph-name="uni3128" unicode="&#x3128;" horiz-adv-x="193" 
d="M17 -7q-4 -1 -5 2q-2 2 1 4q46 36 80 87q-32 34 -71 66q-3 2 -2 4t5 2q32 -19 77 -57q33 55 33 97q-1 4 4 5q11 -4 25 -19q3 -2 0 -6v-1q0 -1 -2 -3q-4 -3 -6 -8q-12 -35 -39 -77q64 -56 66 -82q-1 -9 -10 -12q-8 -2 -13 6q-18 31 -55 72q-42 -54 -88 -80z" />
    <glyph glyph-name="uni3129" unicode="&#x3129;" horiz-adv-x="177" 
d="M158 168v-24q0 -30 7 -95q2 -22 2 -26q-1 -18 -6 -25q-2 -3 -4 -2q-11 4 -15 20v2l-1 1q-3 0 -10 -1q-50 -7 -77 -13q-12 -2 -20 -8q-4 -3 -7 -3q-9 3 -16 19q-1 4 4 7l5 5q16 39 18 123q0 19 -6 31q-1 3 -1 4q-1 6 4 6q28 -10 30 -20q0 -2 -2 -4q-3 -3 -4 -7
q-7 -91 -24 -134q33 1 96 4q7 1 10 1v33q0 80 -7 106q-1 8 -11 19q0 5 3 7q26 -5 35 -13q1 -1 1 -3q0 -1 -2 -5q-2 -3 -2 -5z" />
    <glyph glyph-name="uni3220" unicode="&#x3220;" horiz-adv-x="268" 
d="M41 210l6 -3q-28 -54 -28 -121q0 -64 28 -117l-7 -2q-29 49 -29 119q-1 71 30 124zM58 95h153v-8h-153v8zM221 207l6 3q31 -53 30 -123q0 -75 -29 -120l-7 2q28 50 28 118q0 66 -28 120z" />
    <glyph glyph-name="uni3221" unicode="&#x3221;" horiz-adv-x="268" 
d="M75 157h117v-9h-117v9zM215 29h-160v8h160v-8zM41 210l6 -3q-28 -54 -28 -121q0 -64 28 -117l-7 -2q-29 49 -29 119q-1 71 30 124zM221 207l6 3q31 -53 30 -123q0 -75 -29 -120l-7 2q28 50 28 118q0 66 -28 120z" />
    <glyph glyph-name="uni3222" unicode="&#x3222;" horiz-adv-x="268" 
d="M68 167h132v-8h-132v8zM194 90h-118v8h118v-8zM55 29h160v-9h-160v9zM41 210l6 -3q-28 -54 -28 -121q0 -64 28 -117l-7 -2q-29 49 -29 119q-1 71 30 124zM221 207l6 3q31 -53 30 -123q0 -75 -29 -120l-7 2q28 50 28 118q0 66 -28 120z" />
    <glyph glyph-name="uni3223" unicode="&#x3223;" horiz-adv-x="268" 
d="M64 169h140v-156h-140v156zM117 162v-38q0 -49 -24 -77l-7 5q21 27 22 72v38h-36v-142h124v142h-47v-92q-1 -13 15 -12q20 -4 17 35l8 -3v-6q0 -34 -19 -34h-12q-17 1 -18 17v95h-23zM41 210l6 -3q-28 -54 -28 -121q0 -64 28 -117l-7 -2q-29 49 -29 119q-1 71 30 124z
M221 207l6 3q31 -53 30 -123q0 -75 -29 -120l-7 2q28 50 28 118q0 66 -28 120z" />
    <glyph glyph-name="uni3224" unicode="&#x3224;" horiz-adv-x="268" 
d="M41 210l6 -3q-28 -54 -28 -121q0 -64 28 -117l-7 -2q-29 49 -29 119q-1 71 30 124zM221 207l6 3q31 -53 30 -123q0 -75 -29 -120l-7 2q28 50 28 118q0 66 -28 120zM170 98h-44l-18 -78h52zM215 20v-7h-157v7h42l17 78h-41v7h43l12 57h-63v7h128v-7h-56l-12 -57h47
q4 1 4 -5l-10 -80h46z" />
    <glyph glyph-name="uni3225" unicode="&#x3225;" horiz-adv-x="268" 
d="M213 137v-7h-155v7h71v46h8v-46h76zM68 5l-4 8q25 24 43 77l8 -6q-16 -49 -47 -79zM211 13l-8 -7q-35 35 -52 81l9 3q15 -44 51 -77zM41 210l6 -3q-28 -54 -28 -121q0 -64 28 -117l-7 -2q-29 49 -29 119q-1 71 30 124zM221 207l6 3q31 -53 30 -123q0 -75 -29 -120l-7 2
q28 50 28 118q0 66 -28 120z" />
    <glyph glyph-name="uni3226" unicode="&#x3226;" horiz-adv-x="268" 
d="M58 85l-3 8l56 7v78l8 -2v-75l92 12l2 -8l-94 -12v-70q2 -12 12 -14h50q8 -2 14 35l8 -3q-6 -40 -18 -39h-56q-17 2 -18 21v69zM41 210l6 -3q-28 -54 -28 -121q0 -64 28 -117l-7 -2q-29 49 -29 119q-1 71 30 124zM221 207l6 3q31 -53 30 -123q0 -75 -29 -120l-7 2
q28 50 28 118q0 66 -28 120z" />
    <glyph glyph-name="uni3227" unicode="&#x3227;" horiz-adv-x="268" 
d="M111 127l8 -3q-9 -74 -48 -115l-7 6q39 40 47 112zM111 169h49v-24q2 -81 58 -132l-5 -8q-62 60 -62 140v17h-40v7zM41 210l6 -3q-28 -54 -28 -121q0 -64 28 -117l-7 -2q-29 49 -29 119q-1 71 30 124zM221 207l6 3q31 -53 30 -123q0 -75 -29 -120l-7 2q28 50 28 118
q0 66 -28 120z" />
    <glyph glyph-name="uni3228" unicode="&#x3228;" horiz-adv-x="268" 
d="M75 122v8h55q6 32 8 57l8 -3q-2 -15 -6 -42q-1 -8 -1 -12h33q6 0 7 -5l-17 -108q-1 -9 20 -10t21 13l4 18l8 -1l-3 -20q-4 -17 -29 -17q-33 0 -29 19l16 103h-33q-15 -102 -69 -122l-4 4q50 23 65 118h-54zM41 210l6 -3q-28 -54 -28 -121q0 -64 28 -117l-7 -2
q-29 49 -29 119q-1 71 30 124zM221 207l6 3q31 -53 30 -123q0 -75 -29 -120l-7 2q28 50 28 118q0 66 -28 120z" />
    <glyph glyph-name="uni3229" unicode="&#x3229;" horiz-adv-x="268" 
d="M55 103v8h75v83l9 -2v-81h76v-8h-76v-110h-9v110h-75zM41 210l6 -3q-28 -54 -28 -121q0 -64 28 -117l-7 -2q-29 49 -29 119q-1 71 30 124zM221 207l6 3q31 -53 30 -123q0 -75 -29 -120l-7 2q28 50 28 118q0 66 -28 120z" />
    <glyph glyph-name="uni4E00" unicode="&#x4e00;" horiz-adv-x="240" 
d="M27 68l-17 29l220 -1l-2 -8z" />
    <glyph glyph-name="uni4E01" unicode="&#x4e01;" horiz-adv-x="241" 
d="M111 3l4 169l-85 -8l-20 22h221v-8l-93 -15l-15 -157q5 -22 -48 -18l-12 26q49 -19 48 -11z" />
    <glyph glyph-name="uni4E03" unicode="&#x4e03;" horiz-adv-x="250" 
d="M25 76l-15 20l92 6v86l27 -11l-19 -74l130 12l-2 -9l-118 -21l-10 -71q-1 -13 15 -13h68q14 -2 15 56l19 -22q-13 -39 -34 -40l-63 -8q-29 -4 -28 27v79z" />
    <glyph glyph-name="uni4E07" unicode="&#x4e07;" horiz-adv-x="250" 
d="M10 7q94 6 102 166l-77 -7l-19 25h224v-9l-102 -14l-24 -49l106 2q-11 -58 -15 -100q-1 -36 -62 -47l-25 26q79 -7 77 22q6 38 5 88l-74 -13q-37 -78 -87 -104z" />
    <glyph glyph-name="uni4E08" unicode="&#x4e08;" 
d="M128 149l-86 -13l-23 24h111l1 45l23 -9l-14 -38l101 -2v-8l-95 -11q-8 -72 -25 -106q37 -32 115 -32l-22 -19q-61 12 -93 42q-32 -23 -111 -44l20 25q54 2 79 30q-32 41 -63 74l38 -6q-1 -20 30 -61q15 31 14 109z" />
    <glyph glyph-name="uni4E09" unicode="&#x4e09;" horiz-adv-x="246" 
d="M216 169v-8l-179 -8l-12 28zM58 72l-18 28h167l-2 -8zM30 -7l-20 28h226l-4 -10z" />
    <glyph glyph-name="uni4E0A" unicode="&#x4e0a;" horiz-adv-x="247" 
d="M117 198l23 -12l-14 -76h90l-1 -9l-77 -15l-12 -85h111l-2 -7l-214 -15l-11 25l107 -3v197z" />
    <glyph glyph-name="uni4E0B" unicode="&#x4e0b;" horiz-adv-x="242" 
d="M131 166l-11 -192l-10 3l-1 199l-77 -7l-22 24h222v-10zM207 66l-7 -4q-5 4 -13 10q-35 28 -55 42l29 4q12 -24 46 -52z" />
    <glyph glyph-name="uni4E0C" unicode="&#x4e0c;" horiz-adv-x="240" 
d="M14 -6q69 26 67 120v59l-66 -17l-5 26l217 11l3 -20h-69l10 -191l-18 4v187h-63v-59q2 -99 -57 -141z" />
    <glyph glyph-name="uni4E0D" unicode="&#x4e0d;" horiz-adv-x="237" 
d="M226 185l1 -7l-195 -18l-16 25h210zM10 36q72 49 117 132l8 -25q-46 -65 -122 -116zM215 31q-58 77 -75 91l33 -2l47 -88zM128 -21l-10 3v141l23 -28z" />
    <glyph glyph-name="uni4E0E" unicode="&#x4e0e;" horiz-adv-x="213" 
d="M49 194l24 -20l-15 -74h136q5 -128 -84 -120l-20 24q98 -23 96 87l-137 -9v112zM28 30l-18 24l151 7l-3 -4zM96 138l-17 25h122l2 -6z" />
    <glyph glyph-name="uni4E10" unicode="&#x4e10;" horiz-adv-x="247" 
d="M114 170l-85 -5l-19 23h227l-2 -8l-105 -15l-7 -37l84 -2l-3 -8l-74 -7l-7 -35h93q-8 -65 -8 -68q0 -40 -61 -40l-17 26q70 -20 70 16l1 55l-157 -11l-5 18l8 64l22 -22q-20 -28 -21 -38h66v94z" />
    <glyph glyph-name="uni4E11" unicode="&#x4e11;" horiz-adv-x="247" 
d="M98 182l-43 -13l-14 21h169q-14 -93 -23 -185h50v-6l-214 -17l-13 23h73q2 19 9 84l-43 -9l-12 18h55q2 18 4 55q1 20 2 29zM92 5l79 11q13 53 14 73l-75 -12q-17 -59 -18 -72zM101 98l79 9q10 60 11 75l-70 -14z" />
    </font>
</defs>
</svg>
